<?xml version="1.0" encoding="utf-8"?>
<!-- Generator: Adobe Illustrator 19.0.0, SVG Export Plug-In . SVG Version: 6.00 Build 0)  -->
<svg version="1.1" id="Layer_1" xmlns="http://www.w3.org/2000/svg" xmlns:xlink="http://www.w3.org/1999/xlink" x="0px" y="0px"
	 viewBox="94 796 400 400" style="enable-background:new 94 796 400 400;" xml:space="preserve">
<style type="text/css">
	.st0{fill:#F1F5F5;}
	.st1{fill:#F8FCFC;}
	.st2{fill:#E3E7E8;}
	.st3{fill:#E9F7FA;}
	.st4{fill:#4EDBBF;}
	.st5{fill:#47C9AF;}
	.st6{fill:#757575;}
	.st7{fill:#7EB8BD;}
</style>
<g>
	<g>
		<path class="st0" d="M489.8,949.9V939L310.6,812.8c-9.9-7-23.9-7-33.8,0L98.2,939v10.9L489.8,949.9L489.8,949.9z"/>
		<path class="st1" d="M120.4,938l163.3-115.4c2.8-2,6.3-3,10-3c3.7,0,7.2,1.1,10,3L467.6,938H120.4z"/>
		<rect x="98.2" y="949.9" class="st2" width="391.6" height="216.9"/>
		<path class="st3" d="M276.8,1044.2c9.9-6.8,23.9-6.8,33.8,0l123.7,84.6h8.6V888.5H145.1v240.4h8.4L276.8,1044.2z"/>
		<polygon class="st4" points="319.6,1050.4 489.8,1166.8 489.8,949.9 		"/>
		<path class="st5" d="M489.8,1166.8l-179.2-122.6c-9.9-6.8-23.9-6.8-33.8,0L98.2,1166.8H489.8z"/>
		<polygon class="st4" points="98.2,949.9 98.2,1166.8 268.1,1050.2 		"/>
		<path class="st6" d="M320,1047.8c0,0-12.8-12.6-26.3-12.6c-13.5,0-25.7,12.4-25.7,12.4l-122.9-70l123,72.6l8.7-5.9
			c9.9-6.8,23.9-6.8,33.8,0l9,6.1l123.3-72.7L320,1047.8z"/>
	</g>
	<path class="st6" d="M442.9,977.6c0,0,4-17.9,0-71.7L442.9,977.6z"/>
</g>
<g>
	<g>
		<path class="st7" d="M216.8,962.2v4.8l-20.3-18.4v-4.2l20.3-18.3v4.8l-17,15.7L216.8,962.2z"/>
		<path d="M220.3,937.9h5.4c0.9-7.5,1.9-13,3.1-16.6c1.1-3.6,2.6-6.5,4.5-8.6c1.8-2.1,3.6-3.2,5.2-3.2c0.9,0,1.6,0.4,2.1,1.1
			c0.5,0.7,0.7,1.6,0.7,2.5c0,0.9-0.2,1.6-0.5,2.2c-0.3,0.6-0.7,0.9-1.2,0.9c-0.5,0-1.5-0.3-3-0.9c-0.7-0.3-1.3-0.4-1.7-0.4
			c-1,0-1.9,1.2-2.7,3.6c-0.8,2.4-1.4,5.7-1.9,9.9l-1.1,9.5h6l-0.4,3.2h-6.1l-3.6,28.5c-1.1,8.7-2.9,15.2-5.3,19.7
			c-2.4,4.5-5.1,6.7-7.9,6.7c-1,0-1.7-0.4-2.2-1.1c-0.5-0.7-0.7-1.6-0.7-2.7c0-0.9,0.2-1.7,0.5-2.2c0.3-0.6,0.8-0.8,1.5-0.8
			c0.3,0,0.8,0.1,1.4,0.2c1.1,0.3,2.1,0.4,3,0.4c1.5,0,2.6-0.7,3.3-2.1c0.7-1.4,1.4-4.8,2-10.2l4.6-36.5h-5.4L220.3,937.9z"/>
		<path class="st7" d="M238,962.2l17-15.6l-17-15.7v-4.8l20.3,18.3v4.2L238,967V962.2z"/>
	</g>
	<g>
		<path d="M274.3,962.2c-1.2,0-2.3-0.2-3.3-0.6s-1.8-1-2.5-1.8c-1.4-1.6-2.1-3.9-2.1-6.8v-13.1h-5.6v-3.3h9.7V953
			c0,1.9,0.3,3.3,1,4.2c0.4,0.5,0.8,0.9,1.3,1.1c0.5,0.2,1.1,0.3,1.7,0.3h4.9v3.5L274.3,962.2L274.3,962.2z M266.7,932
			c-0.5,0-0.7-0.2-0.7-0.7v-3.9c0-0.5,0.2-0.7,0.7-0.7h3.3c0.5,0,0.7,0.2,0.7,0.7v3.9c0,0.5-0.2,0.7-0.7,0.7H266.7z"/>
		<path d="M295.4,962.7c-1.6,0-3-0.3-4.2-1c-1.2-0.6-2.2-1.5-3-2.6c-0.9-1.2-1.5-2.6-2-4.3c-0.4-1.7-0.7-3.5-0.7-5.5
			c0-2,0.2-3.8,0.6-5.5c0.4-1.7,1.1-3.1,2-4.3c0.9-1.2,2-2.1,3.2-2.6c1.2-0.6,2.6-0.9,4.1-0.9c1.5,0,2.9,0.3,4,1
			c1.2,0.7,2.1,1.6,2.7,2.9v-13.1h4.2V962h-3.8l-0.4-3.2c-0.3,0.6-0.7,1.1-1.2,1.6c-0.4,0.5-1,0.9-1.6,1.2
			C298.3,962.3,297,962.7,295.4,962.7z M296,959.1c2,0,3.6-0.8,4.6-2.5c1-1.6,1.6-4.1,1.6-7.3c0-3.2-0.5-5.7-1.6-7.3
			c-0.5-0.8-1.1-1.4-1.9-1.8c-0.8-0.4-1.7-0.7-2.7-0.7c-2,0-3.5,0.8-4.6,2.5c-1,1.7-1.5,4.1-1.5,7.3c0,3.2,0.5,5.7,1.5,7.3
			c0.5,0.9,1.2,1.5,2,1.9C294.2,958.9,295.1,959.1,296,959.1z"/>
		<path d="M323.4,962.7c-1.6,0-3-0.3-4.2-1c-1.2-0.6-2.2-1.5-3-2.6c-0.9-1.2-1.5-2.6-2-4.3c-0.4-1.7-0.7-3.5-0.7-5.5
			c0-2,0.2-3.8,0.6-5.5c0.4-1.7,1.1-3.1,2-4.3c0.9-1.2,2-2.1,3.2-2.6c1.2-0.6,2.6-0.9,4.1-0.9c1.5,0,2.9,0.3,4,1
			c1.2,0.7,2.1,1.6,2.7,2.9v-13.1h4.2V962h-3.8l-0.4-3.2c-0.3,0.6-0.7,1.1-1.2,1.6c-0.4,0.5-1,0.9-1.6,1.2
			C326.3,962.3,324.9,962.7,323.4,962.7z M324,959.1c2,0,3.6-0.8,4.6-2.5c1-1.6,1.6-4.1,1.6-7.3c0-3.2-0.5-5.7-1.6-7.3
			c-0.5-0.8-1.1-1.4-1.9-1.8c-0.8-0.4-1.7-0.7-2.7-0.7c-2,0-3.5,0.8-4.6,2.5c-1,1.7-1.5,4.1-1.5,7.3c0,3.2,0.5,5.7,1.5,7.3
			c0.5,0.9,1.2,1.5,2,1.9C322.2,958.9,323,959.1,324,959.1z"/>
		<path d="M358.2,962.2c-1.2,0-2.3-0.2-3.3-0.6s-1.8-1-2.5-1.8c-1.4-1.6-2.1-3.9-2.1-6.8v-13.1h-5.6v-3.3h9.7V953
			c0,1.9,0.3,3.3,1,4.2c0.4,0.5,0.8,0.9,1.3,1.1c0.5,0.2,1.1,0.3,1.7,0.3h4.9v3.5L358.2,962.2L358.2,962.2L358.2,962.2z M350.5,932
			c-0.5,0-0.7-0.2-0.7-0.7v-3.9c0-0.5,0.2-0.7,0.7-0.7h3.3c0.5,0,0.7,0.2,0.7,0.7v3.9c0,0.5-0.2,0.7-0.7,0.7H350.5z"/>
		<path d="M380.6,962.7c-1.7,0-3.3-0.3-4.6-0.9c-1.4-0.6-2.5-1.4-3.4-2.6c-1-1.2-1.7-2.6-2.1-4.3c-0.5-1.7-0.7-3.6-0.7-5.7
			c0-4.3,0.9-7.6,2.8-9.9c1.9-2.3,4.5-3.4,8.1-3.4c1.8,0,3.4,0.3,4.7,0.9c1.3,0.6,2.5,1.4,3.4,2.6c1.9,2.3,2.8,5.6,2.8,9.9
			c0,2.2-0.2,4.1-0.7,5.8c-0.5,1.7-1.2,3.1-2.1,4.2c-0.9,1.1-2,2-3.4,2.5C384,962.4,382.4,962.7,380.6,962.7z M380.6,959.1
			c2.1,0,3.7-0.8,4.8-2.5c1.1-1.6,1.6-4.1,1.6-7.3c0-3.2-0.5-5.7-1.6-7.3c-1.1-1.6-2.7-2.5-4.8-2.5c-2.1,0-3.7,0.8-4.8,2.5
			c-1.1,1.7-1.6,4.1-1.6,7.3c0,3.2,0.5,5.7,1.6,7.3C376.9,958.3,378.5,959.1,380.6,959.1z"/>
	</g>
	<g>
		<path class="st7" d="M343,962.6c-1,0-1.9-0.4-2.6-1.1c-0.7-0.7-1.1-1.6-1.1-2.8c0-1.1,0.4-2.1,1.1-2.8c0.7-0.7,1.6-1.1,2.6-1.1
			c1,0,1.9,0.4,2.6,1.1c0.7,0.7,1.1,1.6,1.1,2.8c0,1.1-0.4,2.1-1.1,2.8S344,962.6,343,962.6z"/>
	</g>
</g>
<g>
	<path d="M268.3,933.1c-1,0-1.9-0.4-2.6-1.1c-0.7-0.7-1.1-1.6-1.1-2.8c0-1.1,0.4-2.1,1.1-2.8c0.7-0.7,1.6-1.1,2.6-1.1
		c1,0,1.9,0.4,2.6,1.1c0.7,0.7,1.1,1.6,1.1,2.8c0,1.1-0.4,2.1-1.1,2.8C270.2,932.7,269.3,933.1,268.3,933.1z"/>
</g>
<g>
	<path d="M352.2,933c-1,0-1.9-0.4-2.6-1.1c-0.7-0.7-1.1-1.6-1.1-2.8c0-1.1,0.4-2.1,1.1-2.8c0.7-0.7,1.6-1.1,2.6-1.1
		c1,0,1.9,0.4,2.6,1.1c0.7,0.7,1.1,1.6,1.1,2.8c0,1.1-0.4,2.1-1.1,2.8S353.2,933,352.2,933z"/>
</g>
</svg>