<?xml version="1.0" encoding="utf-8"?>
<!-- Generator: Adobe Illustrator 16.0.0, SVG Export Plug-In . SVG Version: 6.00 Build 0)  -->
<!DOCTYPE svg PUBLIC "-//W3C//DTD SVG 1.1//EN" "http://www.w3.org/Graphics/SVG/1.1/DTD/svg11.dtd">
<svg version="1.1" id="Layer_1" xmlns="http://www.w3.org/2000/svg" xmlns:xlink="http://www.w3.org/1999/xlink" x="0px" y="0px"
	 width="1200px" height="1200px" viewBox="0 0 1200 1200" enable-background="new 0 0 1200 1200" xml:space="preserve">
<g>
	<g>
		<path fill="#F1F5F5" d="M894.912,543.869v-16.456L625.018,337.279c-14.911-10.492-36.035-10.488-50.94,0.009l-268.99,190.125
			v16.456H894.912z"/>
		<path fill="#F8FCFC" d="M338.458,525.869l246.009-173.881c4.18-2.944,9.547-4.575,15.087-4.575c5.536,0,10.901,1.629,15.104,4.587
			l246.808,173.869H338.458z"/>
		<rect x="305.087" y="543.869" fill="#E3E7E8" width="589.825" height="326.719"/>
		<path fill="#E9F7FA" d="M574.077,685.916c14.906-10.195,36.029-10.199,50.94-0.008l186.271,127.459h12.949V451.283H375.761
			v362.084h12.673L574.077,685.916z"/>
		<polygon fill="#4EDBBF" points="638.519,695.146 894.912,870.588 894.912,543.869 		"/>
		<path fill="#47C9AF" d="M894.912,870.588l-269.895-184.68c-14.911-10.191-36.035-10.188-50.94,0.008l-268.99,184.672H894.912z"/>
		<polygon fill="#4EDBBF" points="305.087,543.869 305.087,870.588 561.025,694.877 		"/>
		<path fill="#757575" d="M639.148,691.283c0,0-19.245-19.016-39.595-19.016s-38.702,18.74-38.702,18.74l-185.09-105.44
			l185.264,109.31l13.052-8.961c14.906-10.195,36.029-10.199,50.94-0.008l13.501,9.238l185.72-109.579L639.148,691.283z"/>
	</g>
	<path fill="#757575" d="M824.238,585.567c0,0,6.048-26.951,0.001-107.942L824.238,585.567z"/>
</g>
<path fill="#359783" d="M502.212,568.683c0-26.983,9.546-50.021,28.638-69.114c19.092-19.091,42.13-28.637,69.112-28.637
	c26.983,0,50.021,9.545,69.113,28.637c19.092,19.093,28.637,42.131,28.637,69.114c0,26.984-9.545,50.02-28.637,69.114
	c-19.093,19.09-42.13,28.637-69.113,28.637c-26.982,0-50.021-9.547-69.112-28.637C511.758,618.703,502.212,595.667,502.212,568.683
	L502.212,568.683z M512.903,568.683c0,23.928,8.528,44.42,25.584,61.477c17.055,17.053,37.547,25.582,61.475,25.582
	c23.929,0,44.42-8.529,61.478-25.582c17.054-17.057,25.582-37.549,25.582-61.477c0-23.928-8.528-44.42-25.582-61.476
	c-17.058-17.055-37.549-25.584-61.478-25.584c-23.928,0-44.42,8.529-61.475,25.584C521.431,524.263,512.903,544.755,512.903,568.683
	L512.903,568.683z M540.396,589.683c-0.509-0.508-0.509-1.017,0-1.526c1.018-1.019,2.291-1.4,3.818-1.147
	c1.527,0.255,2.418,0.51,2.672,0.766c1.782,0.763,3.755,2.481,5.918,5.154s3.882,4.519,5.155,5.537
	c6.109,5.09,12.346,5.473,18.709,1.146c0.51-1.782,1.337-3.31,2.482-4.582c1.145-1.274,2.228-2.164,3.245-2.673
	c1.019-0.51,2.8-1.273,5.347-2.292c-8.401-0.762-15.211-2.226-20.429-4.39c-5.219-2.164-9.355-4.9-12.41-8.208
	c-4.073-4.583-6.555-10.566-7.446-17.947c-0.891-7.383-0.318-14.127,1.718-20.237c1.527-3.818,3.691-7.256,6.491-10.311
	c-2.037-6.364-1.655-13.619,1.146-21.764c8.146,0.509,15.528,3.308,22.146,8.4c12.728-3.31,25.965-3.437,39.711-0.382
	c1.782-1.272,4.519-2.863,8.21-4.774c3.691-1.909,8.337-2.991,13.938-3.245c1.019,2.799,1.717,6.109,2.099,9.927
	c0.384,3.818,0.191,7.382-0.571,10.691c5.854,6.109,8.908,14.256,9.163,24.438c0,8.146-1.398,14.892-4.2,20.237
	c-2.799,5.346-7.763,9.801-14.893,13.364c-4.835,2.292-11.199,3.691-19.091,4.2c3.564,1.783,6.173,3.628,7.828,5.538
	c1.655,1.909,2.736,4.9,3.246,8.974v12.027c0,0,0.127,3.883,0.382,11.646c0.764,1.273,1.654,2.355,2.673,3.246
	c1.019,0.89,1.909,1.526,2.673,1.908s1.019,0.955,0.764,1.719s-1.273,1.146-3.055,1.146c-4.328,0-7.765-1.529-10.31-4.584
	c-0.764-1.272-1.146-2.799-1.146-4.582v-18.328c0-2.035-0.509-3.499-1.527-4.39c-1.018-0.892-2.036-1.466-3.055-1.719v24.055
	c0,4.329,0.51,7.128,1.527,8.401c1.019,1.272,1.655,2.545,1.91,3.818c0.254,0.254,0.063,0.445-0.573,0.572s-1.718-0.063-3.245-0.572
	c-3.311-0.764-5.602-2.482-6.872-5.155c-1.274-2.673-1.911-5.537-1.911-8.592v-23.673h-4.964v23.673
	c0,3.055-0.636,5.982-1.908,8.782c-1.782,3.564-5.092,5.474-9.928,5.727c-0.764-0.253-1.146-0.508-1.146-0.762
	c0.254-0.255,1.018-1.527,2.291-3.818c0.254-0.51,0.572-1.528,0.954-3.056s0.573-3.31,0.573-5.346v-24.055
	c-1.02,0.253-1.974,0.827-2.864,1.719c-0.891,0.89-1.337,2.354-1.337,4.39v18.328c0,1.783-0.381,3.31-1.145,4.582
	c-2.291,3.055-5.729,4.584-10.311,4.584c-1.781,0-2.8-0.383-3.055-1.146c-0.254-0.51-0.19-0.955,0.191-1.337
	s0.954-0.827,1.718-1.337c0.764-0.509,1.273-0.891,1.527-1.146c1.019-0.764,1.782-1.78,2.291-3.055
	c0.764-1.017,0.955-3.69,0.573-8.019c-0.382-4.326-0.445-7.127-0.191-8.4c-6.618,2.291-13.364,1.146-20.237-3.436
	c-2.036-2.036-4.073-4.964-6.109-8.782C548.032,596.811,544.978,593.503,540.396,589.683L540.396,589.683z"/>
</svg>
