<?xml version="1.0" encoding="utf-8"?>
<!-- Generator: Adobe Illustrator 16.0.0, SVG Export Plug-In . SVG Version: 6.00 Build 0)  -->
<!DOCTYPE svg PUBLIC "-//W3C//DTD SVG 1.1//EN" "http://www.w3.org/Graphics/SVG/1.1/DTD/svg11.dtd">
<svg version="1.1" id="Layer_1" xmlns="http://www.w3.org/2000/svg" xmlns:xlink="http://www.w3.org/1999/xlink" x="0px" y="0px"
	 width="847.362px" height="376.004px" viewBox="0 0 847.362 376.004" enable-background="new 0 0 847.362 376.004"
	 xml:space="preserve">
<g>
	<g>
		<path fill="#7EB8BD" d="M87.996,229.058v20.932L0,170.155v-18.297l87.996-79.474v20.882L13.993,161.38L87.996,229.058z"/>
		<path fill="#FFFFFF" d="M103.565,123.392h23.551c3.875-32.384,8.31-56.481,13.303-72.287
			c4.992-15.804,11.496-28.273,19.511-37.406C167.944,4.566,175.499,0,182.594,0c4.007,0,7.029,1.555,9.066,4.663
			c2.036,3.11,3.054,6.801,3.054,11.076c0,3.887-0.691,7.127-2.072,9.716c-1.383,2.594-3.191,3.886-5.428,3.886
			c-2.303,0-6.646-1.359-13.027-4.079c-3.16-1.294-5.627-1.943-7.401-1.943c-4.344,0-8.259,5.28-11.745,15.836
			c-3.488,10.561-6.284,24.844-8.388,42.846l-4.949,41.391h26.108l-1.576,13.795h-26.452l-15.428,123.975
			c-4.796,37.697-12.465,66.262-23.009,85.693c-10.544,19.432-21.99,29.148-34.341,29.148c-4.139,0-7.275-1.589-9.411-4.762
			c-2.134-3.177-3.202-7.093-3.202-11.756c0-4.019,0.739-7.223,2.217-9.619c1.479-2.398,3.597-3.595,6.356-3.595
			c1.379,0,3.417,0.32,6.109,0.972c4.599,1.167,9,1.748,13.204,1.748c6.504,0,11.234-3.012,14.19-9.034
			c2.956-6.025,5.912-20.762,8.869-44.209l20.003-158.562h-23.551L103.565,123.392z"/>
		<path fill="#7EB8BD" d="M180.229,229.058l74.003-67.677l-74.003-68.115V72.384l87.996,79.474v18.297l-87.996,79.834V229.058z"/>
	</g>
	<g>
		<path fill="#FFFFFF" d="M338.011,229.067c-5.256,0-9.969-0.821-14.141-2.464c-4.172-1.642-7.833-4.302-10.987-7.98
			c-5.978-6.964-8.966-16.817-8.966-29.563v-56.956h-24.142v-14.189h42.273v71.146c0,8.213,1.51,14.354,4.533,18.427
			c1.577,2.168,3.465,3.744,5.666,4.729c2.201,0.986,4.714,1.479,7.538,1.479h21.187v15.372H338.011z M304.901,97.911
			c-1.971,0-2.957-0.985-2.957-2.956V77.907c0-1.97,0.986-2.956,2.957-2.956h14.189c1.972,0,2.957,0.986,2.957,2.956v17.048
			c0,1.971-0.984,2.956-2.957,2.956H304.901z"/>
		<path fill="#FFFFFF" d="M429.949,231.137c-6.964,0-13.074-1.379-18.329-4.139c-5.256-2.76-9.658-6.568-13.205-11.431
			c-3.81-5.188-6.667-11.382-8.572-18.575c-1.906-7.193-2.858-15.224-2.858-24.092c0-8.736,0.936-16.703,2.809-23.896
			c1.872-7.193,4.746-13.353,8.622-18.476c3.877-5.124,8.508-8.949,13.896-11.48c5.386-2.528,11.266-3.794,17.639-3.794
			c6.7,0,12.546,1.414,17.539,4.238c5.059,2.891,9.033,7.061,11.924,12.514V74.951h18.131v153.328h-16.357l-1.773-13.895
			c-1.512,2.627-3.219,4.977-5.125,7.045c-1.904,2.07-4.205,3.859-6.896,5.371C442.396,229.691,436.583,231.137,429.949,231.137z
			 M432.51,215.765c8.869,0,15.569-3.612,20.102-10.839c4.533-7.16,6.799-17.738,6.799-31.73s-2.266-24.601-6.799-31.828
			c-2.104-3.351-4.797-5.977-8.08-7.884c-3.285-1.905-7.26-2.857-11.924-2.857c-8.804,0-15.405,3.581-19.807,10.741
			c-4.466,7.227-6.7,17.835-6.7,31.828s2.233,24.602,6.7,31.828c2.3,3.744,5.125,6.471,8.476,8.18
			C424.627,214.911,428.372,215.765,432.51,215.765z"/>
		<path fill="#FFFFFF" d="M551.446,231.137c-6.965,0-13.072-1.379-18.326-4.139c-5.258-2.76-9.658-6.568-13.205-11.431
			c-3.812-5.188-6.67-11.382-8.574-18.575s-2.857-15.224-2.857-24.092c0-8.736,0.938-16.703,2.809-23.896
			c1.873-7.193,4.746-13.353,8.623-18.476c3.873-5.124,8.506-8.949,13.893-11.48c5.387-2.528,11.268-3.794,17.639-3.794
			c6.701,0,12.547,1.414,17.541,4.238c5.057,2.891,9.031,7.061,11.924,12.514V74.951h18.131v153.328h-16.357l-1.773-13.895
			c-1.512,2.627-3.221,4.977-5.125,7.045c-1.906,2.07-4.205,3.859-6.898,5.371C563.896,229.691,558.081,231.137,551.446,231.137z
			 M554.011,215.765c8.867,0,15.568-3.612,20.102-10.839c4.531-7.16,6.799-17.738,6.799-31.73s-2.268-24.601-6.799-31.828
			c-2.104-3.351-4.797-5.977-8.08-7.884c-3.287-1.905-7.262-2.857-11.924-2.857c-8.805,0-15.406,3.581-19.807,10.741
			c-4.469,7.227-6.701,17.835-6.701,31.828s2.232,24.602,6.701,31.828c2.297,3.744,5.123,6.471,8.475,8.18
			C546.126,214.911,549.87,215.765,554.011,215.765z"/>
		<path fill="#FFFFFF" d="M702.509,229.067c-5.256,0-9.969-0.821-14.141-2.464c-4.172-1.642-7.834-4.302-10.986-7.98
			c-5.98-6.964-8.969-16.817-8.969-29.563v-56.956h-24.141v-14.189h42.273v71.146c0,8.213,1.508,14.354,4.531,18.427
			c1.576,2.168,3.465,3.744,5.668,4.729c2.199,0.986,4.711,1.479,7.537,1.479h21.186v15.372H702.509z M669.399,97.911
			c-1.971,0-2.955-0.985-2.955-2.956V77.907c0-1.97,0.984-2.956,2.955-2.956h14.189c1.971,0,2.957,0.986,2.957,2.956v17.048
			c0,1.971-0.986,2.956-2.957,2.956H669.399z"/>
		<path fill="#FFFFFF" d="M800.063,231.137c-7.557,0-14.273-1.231-20.152-3.695c-5.879-2.463-10.855-6.158-14.928-11.086
			c-4.141-5.124-7.193-11.314-9.164-18.574c-1.971-7.258-2.957-15.487-2.957-24.685c0-18.657,4.041-32.978,12.121-42.963
			c8.078-9.919,19.771-14.88,35.08-14.88c7.883,0,14.732,1.266,20.545,3.794c5.816,2.531,10.691,6.224,14.633,11.086
			c8.08,9.985,12.121,24.274,12.121,42.865c0,9.395-1.002,17.737-3.004,25.029c-2.006,7.292-5.045,13.401-9.117,18.328
			c-3.941,4.862-8.852,8.539-14.73,11.037C814.63,229.889,807.813,231.137,800.063,231.137z M800.063,215.765
			c9.262,0,16.258-3.612,20.988-10.839c4.729-7.16,7.094-17.738,7.094-31.73s-2.365-24.601-7.094-31.828
			c-4.73-7.16-11.727-10.741-20.988-10.741c-9.199,0-16.162,3.581-20.891,10.741c-4.73,7.227-7.096,17.835-7.096,31.828
			s2.365,24.57,7.096,31.73C783.901,212.152,790.864,215.765,800.063,215.765z"/>
	</g>
	<g>
		<path fill="#7EB8BD" d="M636.534,230.939c-4.465,0-8.244-1.545-11.332-4.631c-3.086-3.086-4.631-7.096-4.631-12.021
			c0-4.928,1.545-8.934,4.631-12.022c3.088-3.087,6.867-4.632,11.332-4.632c4.467,0,8.246,1.545,11.332,4.632
			c3.086,3.089,4.631,7.095,4.631,12.022c0,4.926-1.545,8.936-4.631,12.021S641.001,230.939,636.534,230.939z"/>
	</g>
</g>
<g>
	<path fill="#FFFFFF" d="M312.034,102.69c-4.465,0-8.244-1.545-11.332-4.631c-3.086-3.086-4.631-7.096-4.631-12.021
		c0-4.928,1.545-8.934,4.631-12.022c3.088-3.087,6.867-4.632,11.332-4.632c4.467,0,8.246,1.545,11.332,4.632
		c3.086,3.089,4.631,7.095,4.631,12.022c0,4.926-1.545,8.936-4.631,12.021S316.501,102.69,312.034,102.69z"/>
</g>
<g>
	<path fill="#FFFFFF" d="M676.534,102.439c-4.465,0-8.244-1.545-11.332-4.631c-3.086-3.086-4.631-7.096-4.631-12.021
		c0-4.928,1.545-8.934,4.631-12.022c3.088-3.087,6.867-4.632,11.332-4.632c4.467,0,8.246,1.545,11.332,4.632
		c3.086,3.089,4.631,7.095,4.631,12.022c0,4.926-1.545,8.936-4.631,12.021S681.001,102.439,676.534,102.439z"/>
</g>
</svg>
