<?xml version="1.0" encoding="utf-8"?>
<!-- Generator: Adobe Illustrator 16.0.0, SVG Export Plug-In . SVG Version: 6.00 Build 0)  -->
<!DOCTYPE svg PUBLIC "-//W3C//DTD SVG 1.1//EN" "http://www.w3.org/Graphics/SVG/1.1/DTD/svg11.dtd">
<svg version="1.1" xmlns="http://www.w3.org/2000/svg" xmlns:xlink="http://www.w3.org/1999/xlink" x="0px" y="0px"
	 width="286.299px" height="286.299px" viewBox="0 0 286.299 286.299" enable-background="new 0 0 286.299 286.299"
	 xml:space="preserve">
<g id="Layer_1">
	<g>
		<g>
			<ellipse fill="#63B8B0" cx="206.312" cy="152.22" rx="8.707" ry="8.698"/>
			<g>
				<path fill="#FFFFFF" d="M212.707,154.566c0.043,0,0.084-0.018,0.113-0.047c0.031-0.035,0.051-0.084,0.047-0.133
					c-0.006-0.146-0.02-0.294-0.041-0.438c-0.016-0.095-0.102-0.162-0.195-0.145l-0.238,0.048c-0.025-0.105-0.053-0.213-0.09-0.321
					l0.234-0.081c0.037-0.013,0.072-0.043,0.088-0.084c0.021-0.043,0.021-0.093,0.006-0.138c-0.049-0.132-0.111-0.269-0.182-0.4
					c-0.047-0.085-0.158-0.12-0.234-0.073l-0.211,0.123c-0.055-0.093-0.117-0.184-0.189-0.276l0.195-0.15
					c0.035-0.026,0.057-0.065,0.061-0.11c0.006-0.047-0.012-0.096-0.043-0.133c-0.094-0.113-0.193-0.221-0.299-0.315
					c-0.072-0.067-0.189-0.063-0.246,0.004l-0.162,0.186c-0.086-0.071-0.172-0.138-0.266-0.201l0.137-0.207
					c0.021-0.035,0.029-0.078,0.021-0.12c-0.01-0.044-0.041-0.087-0.082-0.115c-0.141-0.082-0.266-0.146-0.389-0.202
					c-0.094-0.041-0.199,0.002-0.229,0.085l-0.096,0.229c-0.105-0.04-0.213-0.077-0.314-0.102l0.057-0.24
					c0.012-0.039,0.008-0.084-0.016-0.121c-0.025-0.042-0.066-0.07-0.115-0.081c-0.141-0.032-0.287-0.055-0.436-0.066
					c-0.104-0.009-0.184,0.062-0.186,0.154l-0.014,0.246h-0.008c-0.113-0.005-0.23-0.001-0.326,0.005l-0.023-0.243
					c-0.002-0.085-0.078-0.151-0.166-0.151c-0.008,0-0.016,0.001-0.025,0.001c-0.152,0.02-0.295,0.046-0.428,0.079
					c-0.047,0.011-0.092,0.041-0.113,0.082c-0.021,0.039-0.027,0.083-0.016,0.126l0.066,0.234c-0.105,0.033-0.211,0.072-0.312,0.114
					l-0.1-0.226c-0.037-0.084-0.145-0.118-0.232-0.077c-0.139,0.067-0.268,0.14-0.383,0.217c-0.041,0.025-0.07,0.067-0.08,0.114
					c-0.008,0.045,0.002,0.087,0.027,0.12l0.143,0.203c-0.09,0.063-0.178,0.134-0.264,0.207l-0.164-0.18
					c-0.062-0.065-0.174-0.065-0.244,0.003c-0.096,0.094-0.186,0.198-0.293,0.328c-0.029,0.038-0.041,0.087-0.035,0.135
					c0.006,0.042,0.027,0.079,0.062,0.104l0.197,0.144c-0.064,0.092-0.127,0.188-0.18,0.284l-0.215-0.118
					c-0.078-0.041-0.186-0.002-0.225,0.083c-0.066,0.122-0.121,0.259-0.172,0.404c-0.016,0.046-0.014,0.1,0.008,0.143
					c0.02,0.04,0.055,0.066,0.094,0.078l0.229,0.07c-0.031,0.106-0.055,0.215-0.076,0.327l-0.236-0.039
					c-0.092-0.014-0.178,0.054-0.189,0.149c-0.021,0.152-0.029,0.295-0.029,0.438c0,0.098,0.07,0.174,0.168,0.174l0,0l0.238-0.007
					c0.006,0.108,0.016,0.222,0.031,0.333l-0.234,0.042c-0.043,0.004-0.078,0.028-0.104,0.062c-0.027,0.038-0.037,0.092-0.027,0.141
					c0.027,0.137,0.064,0.279,0.115,0.423c0.031,0.092,0.129,0.143,0.215,0.111l0.221-0.087c0.043,0.111,0.088,0.212,0.139,0.308
					l-0.207,0.114c-0.035,0.019-0.066,0.056-0.078,0.098c-0.01,0.047-0.004,0.096,0.021,0.138c0.078,0.129,0.16,0.251,0.244,0.361
					c0.062,0.077,0.172,0.093,0.242,0.035l0.182-0.15c0.07,0.083,0.145,0.163,0.229,0.244l-0.158,0.172
					c-0.027,0.033-0.041,0.073-0.041,0.117c0.004,0.048,0.025,0.092,0.066,0.126c0.115,0.1,0.232,0.189,0.348,0.265
					c0.08,0.052,0.193,0.027,0.234-0.048l0.125-0.198c0.1,0.059,0.199,0.112,0.301,0.156l-0.096,0.214
					c-0.018,0.036-0.02,0.08-0.004,0.12c0.018,0.044,0.057,0.084,0.104,0.102c0.129,0.053,0.27,0.098,0.418,0.136
					c0.094,0.023,0.193-0.035,0.209-0.12l0.051-0.229c0.105,0.021,0.215,0.037,0.33,0.049l-0.02,0.234
					c0,0.045,0.012,0.086,0.041,0.117c0.033,0.037,0.078,0.057,0.127,0.057c0.055,0.003,0.111,0.006,0.168,0.006
					c0.086,0,0.174-0.004,0.27-0.009c0.053-0.007,0.098-0.031,0.127-0.069c0.025-0.033,0.039-0.074,0.031-0.114l-0.025-0.233
					c0.113-0.015,0.225-0.034,0.33-0.059l0.059,0.226c0.023,0.089,0.121,0.14,0.217,0.114c0.146-0.044,0.283-0.094,0.41-0.147
					c0.047-0.022,0.082-0.06,0.1-0.103c0.014-0.044,0.012-0.085-0.008-0.125l-0.102-0.21c0.102-0.053,0.199-0.105,0.293-0.166
					l0.131,0.197c0.047,0.076,0.162,0.093,0.236,0.038c0.113-0.079,0.227-0.169,0.346-0.276c0.033-0.03,0.057-0.079,0.057-0.126
					c0-0.043-0.014-0.085-0.045-0.117l-0.164-0.168c0.076-0.077,0.152-0.163,0.221-0.252l0.189,0.148
					c0.068,0.056,0.18,0.035,0.238-0.043c0.084-0.117,0.162-0.241,0.234-0.37c0.023-0.043,0.029-0.094,0.016-0.139
					c-0.016-0.044-0.041-0.078-0.082-0.097l-0.211-0.107c0.047-0.101,0.09-0.203,0.127-0.308l0.229,0.078
					c0.086,0.028,0.182-0.024,0.211-0.119c0.043-0.14,0.076-0.283,0.104-0.427c0.008-0.05-0.004-0.099-0.033-0.135
					c-0.027-0.038-0.066-0.062-0.107-0.066l-0.24-0.03c0.016-0.109,0.023-0.219,0.023-0.335H212.707z M212.145,154.528
					c0,1.58-1.287,2.864-2.867,2.864s-2.865-1.284-2.865-2.864c0-1.582,1.285-2.867,2.865-2.867S212.145,152.946,212.145,154.528z"
					/>
				<path fill="#FFFFFF" d="M209.975,151.568c0.055,0,0.105-0.021,0.146-0.064c0.043-0.045,0.066-0.109,0.064-0.177
					c-0.008-0.211-0.029-0.424-0.061-0.635c-0.025-0.128-0.137-0.218-0.262-0.193l-0.367,0.072
					c-0.035-0.164-0.082-0.329-0.139-0.507l0.355-0.124c0.055-0.018,0.098-0.057,0.121-0.11c0.025-0.058,0.029-0.124,0.008-0.185
					c-0.074-0.191-0.162-0.388-0.268-0.581c-0.041-0.078-0.119-0.127-0.203-0.127c-0.037,0-0.072,0.009-0.105,0.029l-0.326,0.19
					c-0.088-0.146-0.184-0.291-0.295-0.435l0.301-0.234c0.043-0.035,0.072-0.087,0.078-0.146c0.006-0.062-0.016-0.127-0.057-0.176
					c-0.137-0.166-0.283-0.32-0.439-0.463c-0.092-0.087-0.248-0.082-0.32,0.008l-0.252,0.285c-0.133-0.113-0.273-0.217-0.422-0.315
					l0.211-0.319c0.031-0.046,0.041-0.104,0.029-0.158c-0.014-0.063-0.055-0.119-0.113-0.154c-0.197-0.12-0.385-0.216-0.561-0.295
					c-0.121-0.054-0.264,0-0.305,0.112l-0.145,0.353c-0.172-0.066-0.338-0.121-0.502-0.162l0.094-0.369
					c0.016-0.053,0.006-0.11-0.023-0.161c-0.033-0.054-0.09-0.096-0.156-0.109c-0.201-0.043-0.412-0.074-0.627-0.094
					c-0.133-0.011-0.246,0.08-0.252,0.202l-0.02,0.382l-0.031-0.002c-0.17-0.007-0.348,0-0.494,0.013l-0.033-0.38
					c-0.008-0.121-0.119-0.218-0.256-0.197c-0.225,0.027-0.434,0.065-0.627,0.112c-0.062,0.016-0.117,0.056-0.15,0.111
					c-0.029,0.051-0.039,0.11-0.02,0.165l0.102,0.365c-0.168,0.05-0.332,0.11-0.492,0.178l-0.154-0.348
					c-0.051-0.111-0.189-0.158-0.309-0.1c-0.199,0.094-0.385,0.201-0.553,0.31c-0.059,0.036-0.098,0.092-0.109,0.154
					c-0.01,0.06,0.004,0.116,0.035,0.16l0.217,0.313c-0.141,0.098-0.277,0.209-0.41,0.327l-0.254-0.276
					c-0.08-0.088-0.234-0.088-0.326,0.001c-0.137,0.137-0.271,0.29-0.426,0.479c-0.039,0.05-0.057,0.116-0.049,0.179
					c0.01,0.057,0.037,0.106,0.086,0.141l0.303,0.223c-0.104,0.143-0.199,0.292-0.283,0.445l-0.328-0.181
					c-0.107-0.055-0.25,0-0.303,0.109c-0.092,0.179-0.176,0.375-0.248,0.588c-0.025,0.064-0.02,0.133,0.01,0.19
					c0.025,0.052,0.072,0.089,0.125,0.104l0.354,0.109c-0.049,0.166-0.09,0.339-0.119,0.515l-0.367-0.062
					c-0.121-0.019-0.238,0.072-0.252,0.202c-0.031,0.217-0.043,0.426-0.043,0.636c0,0.129,0.094,0.231,0.225,0.231l0,0l0.369-0.011
					c0.008,0.173,0.021,0.35,0.049,0.524l-0.365,0.063c-0.053,0.008-0.102,0.038-0.135,0.087c-0.037,0.05-0.051,0.119-0.039,0.185
					c0.043,0.197,0.098,0.403,0.168,0.614c0.043,0.124,0.176,0.192,0.289,0.15l0.342-0.132c0.064,0.172,0.137,0.328,0.219,0.481
					l-0.32,0.174c-0.055,0.026-0.09,0.074-0.104,0.132c-0.018,0.061-0.01,0.127,0.025,0.183c0.113,0.189,0.234,0.365,0.357,0.527
					c0.08,0.104,0.229,0.126,0.32,0.047l0.283-0.229c0.105,0.127,0.227,0.255,0.361,0.383l-0.246,0.264
					c-0.039,0.042-0.059,0.098-0.055,0.156c0.004,0.063,0.033,0.125,0.084,0.169c0.174,0.145,0.344,0.273,0.51,0.383
					c0.107,0.072,0.258,0.038,0.314-0.06l0.189-0.308c0.158,0.092,0.316,0.174,0.471,0.244l-0.146,0.328
					c-0.023,0.05-0.023,0.106-0.002,0.163c0.025,0.061,0.072,0.109,0.135,0.137c0.191,0.073,0.398,0.14,0.607,0.197
					c0.129,0.028,0.256-0.046,0.279-0.161l0.076-0.354c0.168,0.034,0.346,0.061,0.523,0.076l-0.031,0.364
					c0,0.058,0.02,0.112,0.059,0.154c0.039,0.048,0.102,0.076,0.166,0.079c0.082,0.003,0.162,0.005,0.246,0.005
					c0.125,0,0.258-0.005,0.391-0.014c0.068-0.007,0.131-0.041,0.17-0.091c0.039-0.045,0.051-0.1,0.043-0.153l-0.041-0.357
					c0.18-0.024,0.355-0.057,0.52-0.098l0.088,0.353c0.031,0.117,0.164,0.188,0.291,0.15c0.211-0.063,0.412-0.135,0.596-0.214
					c0.062-0.029,0.109-0.08,0.135-0.138c0.018-0.057,0.016-0.114-0.01-0.164l-0.156-0.329c0.158-0.077,0.314-0.164,0.459-0.261
					l0.201,0.307c0.064,0.101,0.215,0.124,0.318,0.05c0.162-0.113,0.324-0.243,0.498-0.399c0.047-0.044,0.076-0.105,0.078-0.169
					c0-0.062-0.018-0.113-0.061-0.154l-0.254-0.262c0.123-0.121,0.24-0.253,0.35-0.395l0.287,0.228
					c0.096,0.073,0.246,0.045,0.32-0.056c0.123-0.172,0.236-0.353,0.34-0.539c0.033-0.059,0.039-0.128,0.021-0.19
					c-0.02-0.054-0.057-0.099-0.109-0.123l-0.322-0.166c0.074-0.16,0.141-0.323,0.199-0.487l0.352,0.121
					c0.115,0.039,0.242-0.034,0.281-0.157c0.062-0.205,0.111-0.415,0.148-0.621c0.01-0.066-0.008-0.131-0.043-0.183
					c-0.035-0.047-0.086-0.075-0.145-0.087l-0.369-0.047c0.025-0.172,0.035-0.343,0.039-0.526H209.975z M209.17,151.53
					c0,2.315-1.883,4.199-4.197,4.199c-2.316,0-4.199-1.884-4.199-4.199c0-2.313,1.883-4.197,4.199-4.197
					C207.287,147.333,209.17,149.217,209.17,151.53z"/>
			</g>
		</g>
		<circle fill="#F2B02B" cx="48.866" cy="128.296" r="8.735"/>
		<g>
			<circle fill="#63B8B0" cx="80.932" cy="120.728" r="7.1"/>
			<path fill="#FFFFFF" d="M85.321,120.612c0.052,0,0.102-0.022,0.138-0.059c0.041-0.043,0.063-0.102,0.059-0.161
				c-0.006-0.178-0.023-0.359-0.051-0.537c-0.02-0.117-0.124-0.199-0.238-0.177l-0.294,0.059c-0.028-0.129-0.064-0.26-0.108-0.395
				l0.282-0.099c0.051-0.016,0.091-0.053,0.115-0.104c0.023-0.052,0.025-0.113,0.005-0.168c-0.062-0.16-0.136-0.328-0.226-0.489
				c-0.055-0.104-0.189-0.148-0.283-0.092l-0.261,0.151c-0.068-0.112-0.145-0.224-0.23-0.338l0.238-0.183
				c0.041-0.033,0.067-0.082,0.072-0.136c0.006-0.057-0.012-0.116-0.049-0.163c-0.117-0.138-0.241-0.271-0.37-0.388
				c-0.087-0.081-0.231-0.078-0.3,0.005l-0.2,0.229c-0.102-0.088-0.209-0.168-0.323-0.248l0.166-0.25
				c0.027-0.046,0.036-0.098,0.025-0.15c-0.01-0.056-0.047-0.107-0.1-0.142c-0.172-0.1-0.328-0.18-0.478-0.248
				c-0.113-0.05-0.242,0-0.279,0.104l-0.114,0.28c-0.137-0.051-0.264-0.093-0.391-0.126l0.073-0.293
				c0.014-0.049,0.008-0.102-0.02-0.148c-0.029-0.051-0.083-0.088-0.141-0.101c-0.172-0.04-0.352-0.065-0.534-0.081
				c-0.128-0.012-0.227,0.077-0.229,0.188l-0.014,0.303l-0.01,0c-0.139-0.005-0.282-0.003-0.403,0.009l-0.025-0.301
				c-0.005-0.105-0.097-0.187-0.209-0.187c-0.008,0-0.016,0.001-0.025,0.002c-0.188,0.024-0.365,0.057-0.527,0.098
				c-0.06,0.012-0.11,0.048-0.141,0.1c-0.027,0.047-0.036,0.102-0.019,0.152l0.083,0.291c-0.131,0.039-0.26,0.085-0.384,0.139
				l-0.121-0.277c-0.047-0.102-0.176-0.145-0.285-0.094c-0.17,0.083-0.328,0.171-0.469,0.263c-0.052,0.034-0.086,0.085-0.096,0.143
				c-0.012,0.053,0,0.106,0.031,0.149l0.173,0.245c-0.111,0.08-0.217,0.166-0.321,0.257l-0.205-0.221
				c-0.073-0.082-0.212-0.081-0.299,0.002c-0.114,0.114-0.228,0.242-0.356,0.403c-0.037,0.045-0.054,0.106-0.045,0.165
				c0.008,0.052,0.035,0.099,0.077,0.129l0.242,0.176c-0.082,0.111-0.153,0.228-0.219,0.346l-0.264-0.144
				c-0.099-0.049-0.229-0.002-0.278,0.101c-0.076,0.15-0.146,0.319-0.209,0.497c-0.021,0.058-0.017,0.123,0.009,0.174
				c0.026,0.047,0.066,0.082,0.115,0.097l0.282,0.085c-0.038,0.13-0.069,0.265-0.092,0.402l-0.294-0.05
				c-0.11-0.016-0.215,0.068-0.232,0.186c-0.023,0.184-0.036,0.359-0.036,0.538c0,0.118,0.086,0.211,0.205,0.211l0,0l0.296-0.008
				c0.006,0.134,0.019,0.271,0.04,0.409l-0.291,0.048c-0.05,0.007-0.095,0.038-0.126,0.081c-0.034,0.048-0.048,0.109-0.035,0.17
				c0.035,0.166,0.083,0.343,0.143,0.519c0.037,0.111,0.159,0.175,0.264,0.137l0.272-0.106c0.052,0.134,0.108,0.258,0.169,0.375
				l-0.255,0.138c-0.047,0.025-0.078,0.07-0.095,0.121c-0.014,0.057-0.005,0.118,0.025,0.168c0.095,0.16,0.196,0.31,0.299,0.446
				c0.075,0.094,0.212,0.112,0.298,0.042l0.221-0.184c0.086,0.101,0.179,0.2,0.283,0.298l-0.193,0.211
				c-0.036,0.038-0.056,0.088-0.049,0.144c0,0.059,0.03,0.113,0.077,0.154c0.142,0.122,0.287,0.233,0.426,0.324
				c0.1,0.064,0.238,0.035,0.294-0.057l0.149-0.244c0.12,0.072,0.244,0.135,0.365,0.189l-0.116,0.261
				c-0.02,0.046-0.022,0.101,0,0.151c0.02,0.054,0.066,0.099,0.124,0.122c0.161,0.063,0.333,0.121,0.513,0.168
				c0.115,0.025,0.237-0.043,0.256-0.149l0.062-0.279c0.13,0.025,0.266,0.046,0.409,0.06l-0.025,0.288
				c-0.003,0.054,0.016,0.104,0.053,0.144c0.036,0.043,0.091,0.07,0.15,0.072c0.069,0.001,0.139,0.004,0.207,0.004
				c0.105,0,0.219-0.004,0.331-0.011c0.064-0.007,0.12-0.039,0.157-0.084c0.033-0.043,0.046-0.092,0.039-0.143l-0.033-0.284
				c0.139-0.018,0.275-0.043,0.407-0.075l0.07,0.279c0.028,0.108,0.15,0.173,0.265,0.141c0.178-0.054,0.348-0.114,0.505-0.182
				c0.056-0.025,0.101-0.071,0.119-0.127c0.021-0.049,0.019-0.104-0.005-0.15l-0.125-0.261c0.124-0.059,0.244-0.128,0.359-0.203
				l0.16,0.242c0.059,0.093,0.198,0.114,0.292,0.046c0.136-0.096,0.274-0.207,0.422-0.336c0.042-0.042,0.069-0.097,0.07-0.154
				c0.003-0.055-0.02-0.104-0.054-0.143l-0.204-0.207c0.094-0.097,0.188-0.201,0.272-0.309l0.23,0.182
				c0.086,0.066,0.223,0.042,0.292-0.053c0.105-0.142,0.202-0.296,0.288-0.453c0.03-0.054,0.034-0.118,0.018-0.172
				c-0.015-0.052-0.051-0.094-0.097-0.117l-0.261-0.133c0.06-0.123,0.111-0.25,0.157-0.378l0.278,0.097
				c0.105,0.034,0.225-0.03,0.261-0.145c0.053-0.174,0.094-0.35,0.125-0.524c0.011-0.061-0.004-0.119-0.041-0.166
				c-0.03-0.045-0.079-0.072-0.128-0.081l-0.294-0.037c0.016-0.134,0.026-0.267,0.028-0.411H85.321z M84.627,120.564
				c0,1.937-1.576,3.513-3.513,3.513c-1.939,0-3.513-1.577-3.513-3.513c0-1.938,1.574-3.513,3.513-3.513
				C83.052,117.052,84.627,118.626,84.627,120.564z"/>
		</g>
		<g>
			<g>
				<path fill="#63B8B0" d="M54.388,83.239C69.32,67.345,89.294,58.22,110.631,57.546l0.008,0.294
					c-44.069,1.39-78.979,38.537-79.473,84.568l-0.296-0.006C31.11,120.138,39.463,99.127,54.388,83.239z"/>
				<path fill="#63B8B0" d="M31.249,142.492l-0.461-0.006l0-0.084c0.24-22.285,8.599-43.317,23.539-59.22
					c14.949-15.911,34.944-25.044,56.303-25.719l0.083-0.003l0.014,0.462l-0.083,0.002c-44.024,1.39-78.898,38.499-79.392,84.485
					L31.249,142.492z M30.955,142.321l0.128,0.002c0.537-46.008,35.422-83.129,79.47-84.563l-0.003-0.128
					c-21.283,0.694-41.204,9.806-56.102,25.665C39.555,99.15,31.214,120.108,30.955,142.321z"/>
			</g>
			<g>
				<polygon fill="#63B8B0" points="32.527,141.994 31.028,144.521 29.591,141.959 				"/>
				<path fill="#63B8B0" d="M31.027,144.688l-1.58-2.813l3.226,0.038L31.027,144.688z M29.733,142.044l1.298,2.309l1.351-2.277
					L29.733,142.044z"/>
			</g>
			<g>
				<polygon fill="#63B8B0" points="112.185,57.664 110.467,59.521 110.329,55.946 				"/>
				<path fill="#63B8B0" d="M110.392,59.726l-0.154-3.979l2.064,1.913L110.392,59.726z M110.42,56.144l0.122,3.173l1.524-1.647
					L110.42,56.144z"/>
			</g>
		</g>
		<g>
			<g>
				<path fill="#63B8B0" d="M82.219,101.563c7.931-8.442,18.54-13.288,29.871-13.645l0.005,0.156
					c-23.406,0.738-41.944,20.467-42.208,44.912l-0.158-0.001C69.857,121.16,74.294,110,82.219,101.563z"/>
				<path fill="#63B8B0" d="M70.052,133.155l-0.491-0.006l0.002-0.166c0.128-11.867,4.58-23.066,12.534-31.534
					c7.961-8.475,18.612-13.339,29.987-13.698l0.167-0.005l0.017,0.49l-0.168,0.005c-23.314,0.735-41.783,20.391-42.045,44.748
					L70.052,133.155z"/>
			</g>
			<g>
				<polygon fill="#63B8B0" points="70.61,132.768 69.814,134.109 69.051,132.748 				"/>
				<path fill="#63B8B0" d="M69.811,134.442l-1.047-1.864l2.138,0.025L69.811,134.442z M69.338,132.919l0.48,0.856l0.5-0.846
					L69.338,132.919z"/>
			</g>
			<g>
				<polygon fill="#63B8B0" points="112.915,87.98 112.002,88.967 111.928,87.067 				"/>
				<path fill="#63B8B0" d="M111.852,89.376l-0.106-2.706l1.404,1.301L111.852,89.376z M112.11,87.463l0.043,1.094l0.525-0.567
					L112.11,87.463z"/>
			</g>
		</g>
		<g>
			<g>
				<path fill="#63B8B0" d="M101.747,119.177c3.291-3.502,7.692-5.513,12.395-5.661l0.001,0.065
					c-9.711,0.307-17.405,8.492-17.513,18.636l-0.065-0.001C96.618,127.31,98.458,122.679,101.747,119.177z"/>
				<path fill="#63B8B0" d="M96.795,132.386l-0.398-0.004l0.001-0.168c0.053-4.948,1.91-9.618,5.227-13.15
					c3.322-3.535,7.766-5.565,12.511-5.715l0.168-0.005l0.011,0.399l-0.166,0.005c-9.622,0.304-17.243,8.416-17.351,18.47
					L96.795,132.386z"/>
			</g>
			<g>
				<polygon fill="#63B8B0" points="96.93,132.126 96.6,132.682 96.282,132.118 				"/>
				<polygon fill="#63B8B0" points="96.596,133.016 95.995,131.948 97.221,131.962 				"/>
			</g>
			<g>
				<polygon fill="#63B8B0" points="114.483,113.542 114.105,113.952 114.075,113.162 				"/>
				<polygon fill="#63B8B0" points="113.954,114.36 113.892,112.767 114.72,113.533 				"/>
			</g>
		</g>
		<path fill="#9BBD2F" d="M100.417,65.147c0,7.047-5.721,12.763-12.779,12.763c-7.057,0-12.772-5.715-12.772-12.763
			c0-7.046,5.715-12.754,12.772-12.754C94.695,52.393,100.417,58.101,100.417,65.147z"/>
		<ellipse fill="#FD7161" cx="65.713" cy="96.11" rx="8.675" ry="8.663"/>
		<path fill="#FD7161" d="M101.821,147.082c0,4.784-3.883,8.666-8.672,8.666c-4.794,0-8.677-3.882-8.677-8.666
			c0-4.785,3.883-8.663,8.677-8.663C97.938,138.419,101.821,142.297,101.821,147.082z"/>
		<ellipse fill="#9BBD2F" cx="110.908" cy="127.383" rx="7.73" ry="7.719"/>
		<g>
			<path fill="#F3F0E9" d="M113.76,122.08c-1.006-0.585-2.181-0.745-3.299-0.446c-1.121,0.292-2.062,1.014-2.649,2.02
				c-1.089,1.873-0.606,4.233,1.037,5.556l-1.792,3.082c-0.184,0.31-0.073,0.716,0.242,0.896c0.154,0.094,0.338,0.111,0.497,0.068
				c0.162-0.042,0.311-0.147,0.4-0.307l1.791-3.073c0.861,0.333,1.797,0.394,2.704,0.151c1.122-0.294,2.063-1.006,2.647-2.011
				C116.544,125.941,115.836,123.28,113.76,122.08z M114.197,127.352c-0.409,0.697-1.065,1.203-1.843,1.409
				c-0.783,0.205-1.601,0.093-2.295-0.313c-1.451-0.838-1.941-2.688-1.103-4.135c0.403-0.697,1.062-1.195,1.841-1.4
				c0.781-0.208,1.601-0.102,2.301,0.302C114.543,124.056,115.032,125.91,114.197,127.352z"/>
			<path fill="#F3F0E9" d="M110.797,123.48c-0.73,0.225-1.339,0.701-1.622,1.27c-0.048,0.085-0.014,0.181,0.069,0.22
				c0.039,0.021,0.079,0.026,0.115,0.014c0.04-0.013,0.082-0.041,0.105-0.082c0.248-0.491,0.785-0.907,1.432-1.11
				c0.694-0.217,1.42-0.166,2.04,0.144c0.079,0.041,0.175,0.011,0.216-0.072c0.042-0.083,0.013-0.182-0.073-0.22
				C112.39,123.293,111.579,123.238,110.797,123.48z"/>
		</g>
		<g>
			<path fill="#63B8B0" d="M231.029,112.025c-1.008-0.585-2.182-0.745-3.299-0.445c-1.123,0.292-2.062,1.014-2.65,2.02
				c-1.088,1.872-0.605,4.232,1.037,5.555l-1.793,3.083c-0.184,0.31-0.072,0.716,0.244,0.896c0.152,0.093,0.336,0.111,0.496,0.068
				c0.162-0.042,0.311-0.147,0.398-0.307l1.793-3.072c0.861,0.334,1.797,0.394,2.701,0.15c1.123-0.293,2.064-1.006,2.648-2.011
				C233.812,115.887,233.105,113.226,231.029,112.025z M231.467,117.297c-0.41,0.697-1.066,1.203-1.844,1.409
				c-0.783,0.204-1.602,0.093-2.297-0.313c-1.449-0.838-1.939-2.688-1.102-4.136c0.402-0.697,1.062-1.195,1.842-1.399
				c0.781-0.208,1.602-0.102,2.301,0.302C231.811,114.002,232.301,115.855,231.467,117.297z"/>
			<path fill="#63B8B0" d="M228.066,113.426c-0.73,0.225-1.338,0.701-1.623,1.271c-0.047,0.085-0.014,0.181,0.07,0.219
				c0.037,0.022,0.078,0.027,0.113,0.015c0.041-0.013,0.084-0.041,0.107-0.082c0.246-0.492,0.785-0.907,1.43-1.11
				c0.695-0.217,1.42-0.166,2.039,0.143c0.08,0.041,0.178,0.011,0.217-0.071c0.043-0.083,0.012-0.183-0.074-0.22
				C229.658,113.239,228.848,113.184,228.066,113.426z"/>
		</g>
		<circle fill="#FD7161" cx="241.789" cy="136.588" r="9.236"/>
		<g>
			<path fill="#FFFFFF" d="M244.666,130.761L244.666,130.761L244.666,130.761h-7.449v11.994h9.117v-10.718L244.666,130.761z
				 M245.926,142.375h-8.297v-11.234h7.031l-0.201,1.286l1.467-0.205V142.375z"/>
			<g>
				<rect x="238.604" y="133.765" fill="#FFFFFF" width="6.334" height="0.42"/>
				<rect x="238.604" y="135.442" fill="#FFFFFF" width="6.334" height="0.423"/>
				<rect x="238.604" y="137.121" fill="#FFFFFF" width="6.334" height="0.423"/>
				<rect x="238.604" y="138.803" fill="#FFFFFF" width="6.334" height="0.421"/>
			</g>
		</g>
		<g>
			<path fill="#63B8B0" d="M58.219,57.256L58.219,57.256L58.219,57.256h-7.449V69.25h9.115V58.531L58.219,57.256z M59.479,68.87
				h-8.298V57.635h7.032l-0.201,1.286l1.467-0.205V68.87z"/>
			<g>
				<rect x="52.155" y="60.259" fill="#63B8B0" width="6.335" height="0.421"/>
				<rect x="52.155" y="61.938" fill="#63B8B0" width="6.335" height="0.422"/>
				<rect x="52.155" y="63.616" fill="#63B8B0" width="6.335" height="0.421"/>
				<rect x="52.155" y="65.297" fill="#63B8B0" width="6.335" height="0.42"/>
			</g>
		</g>
		<circle fill="#63B8B0" cx="39.24" cy="102.032" r="13.223"/>
		<path fill="#F2B02B" d="M82.524,94.576c0,5.849,4.743,10.595,10.592,10.595s10.593-4.746,10.593-10.595
			c0-5.847-4.744-10.59-10.593-10.59S82.524,88.729,82.524,94.576z"/>
		<g>
			<g>
				<path fill="#63B8B0" d="M237.172,83.239c-14.934-15.894-34.908-25.019-56.244-25.692l-0.008,0.294
					c44.07,1.39,78.979,38.537,79.473,84.568l0.297-0.006C260.449,120.138,252.098,99.127,237.172,83.239z"/>
				<path fill="#63B8B0" d="M260.309,142.409c-0.494-45.986-35.367-83.095-79.391-84.485l-0.084-0.002l0.014-0.462l0.084,0.003
					c21.357,0.675,41.354,9.808,56.301,25.719c14.939,15.903,23.299,36.935,23.539,59.22v0.084l-0.461,0.006L260.309,142.409z
					 M237.109,83.297c-14.896-15.858-34.816-24.971-56.1-25.665l-0.004,0.128c44.049,1.434,78.934,38.555,79.471,84.563l0.127-0.002
					C260.346,120.108,252.004,99.15,237.109,83.297z"/>
			</g>
			<g>
				<polygon fill="#63B8B0" points="259.033,141.994 260.531,144.521 261.969,141.959 				"/>
				<path fill="#63B8B0" d="M258.889,141.912l3.225-0.038l-1.582,2.813L258.889,141.912z M259.178,142.075l1.352,2.277l1.297-2.309
					L259.178,142.075z"/>
			</g>
			<g>
				<polygon fill="#63B8B0" points="179.375,57.664 181.094,59.521 181.23,55.946 				"/>
				<path fill="#63B8B0" d="M179.258,57.66l2.064-1.913l-0.154,3.979L179.258,57.66z M179.494,57.669l1.521,1.647l0.123-3.173
					L179.494,57.669z"/>
			</g>
		</g>
		<g>
			<g>
				<path fill="#63B8B0" d="M209.34,101.563c-7.932-8.442-18.537-13.288-29.869-13.645l-0.006,0.156
					c23.406,0.738,41.943,20.467,42.207,44.912l0.158-0.001C221.701,121.16,217.268,110,209.34,101.563z"/>
				<path fill="#63B8B0" d="M221.508,133.155l0.49-0.006l-0.002-0.166c-0.127-11.867-4.58-23.066-12.533-31.534
					c-7.961-8.475-18.611-13.339-29.988-13.698l-0.166-0.005l-0.018,0.49l0.168,0.005c23.314,0.735,41.783,20.391,42.047,44.748
					L221.508,133.155z"/>
			</g>
			<g>
				<polygon fill="#63B8B0" points="220.949,132.768 221.744,134.109 222.508,132.748 				"/>
				<path fill="#63B8B0" d="M220.658,132.604l2.139-0.025l-1.049,1.864L220.658,132.604z M221.24,132.93l0.5,0.846l0.482-0.856
					L221.24,132.93z"/>
			</g>
			<g>
				<polygon fill="#63B8B0" points="178.645,87.98 179.557,88.967 179.631,87.067 				"/>
				<path fill="#63B8B0" d="M178.408,87.972l1.406-1.301l-0.105,2.706L178.408,87.972z M178.881,87.99l0.525,0.567l0.043-1.094
					L178.881,87.99z"/>
			</g>
		</g>
		<g>
			<g>
				<path fill="#63B8B0" d="M189.812,119.177c-3.291-3.502-7.691-5.513-12.393-5.661l-0.004,0.065
					c9.713,0.307,17.404,8.492,17.514,18.636l0.064-0.001C194.941,127.31,193.102,122.679,189.812,119.177z"/>
				<path fill="#63B8B0" d="M194.766,132.386l0.396-0.004v-0.168c-0.053-4.948-1.91-9.618-5.227-13.15
					c-3.322-3.535-7.766-5.565-12.512-5.715l-0.168-0.005l-0.01,0.399l0.166,0.005c9.621,0.304,17.242,8.416,17.35,18.47
					L194.766,132.386z"/>
			</g>
			<g>
				<polygon fill="#63B8B0" points="194.629,132.126 194.961,132.682 195.277,132.118 				"/>
				<polygon fill="#63B8B0" points="194.965,133.016 195.564,131.948 194.338,131.962 				"/>
			</g>
			<g>
				<polygon fill="#63B8B0" points="177.076,113.542 177.455,113.952 177.484,113.162 				"/>
				<polygon fill="#63B8B0" points="177.605,114.36 177.668,112.767 176.84,113.533 				"/>
			</g>
		</g>
		<ellipse fill="#9BBD2F" cx="180.402" cy="127.878" rx="9.715" ry="9.702"/>
		<circle fill="#9BBD2F" cx="200.646" cy="61.785" r="13.091"/>
		<path fill="#F2B02B" d="M228.207,95.086c0,9.321,7.559,16.877,16.879,16.877c9.316,0,16.875-7.556,16.875-16.877
			c0-9.321-7.559-16.877-16.875-16.877C235.766,78.209,228.207,85.766,228.207,95.086z"/>
		<circle fill="#FD7161" cx="207.478" cy="104.027" r="8.757"/>
		<circle fill="#9BBD2F" cx="66.228" cy="153.283" r="8.242"/>
		<g>
			<path fill="#FFFFFF" d="M201.924,104.507l3.932-1.925v0.836l-2.883,1.344v0.016l2.883,1.335v0.828l-3.932-1.925V104.507z"/>
			<path fill="#FFFFFF" d="M206.148,107.269l1.928-5.915h0.695l-1.926,5.915H206.148z"/>
			<path fill="#FFFFFF" d="M213.031,105.122l-3.941,1.819v-0.812l3.146-1.36v-0.016l-3.146-1.36v-0.811l3.941,1.819V105.122z"/>
		</g>
		<g>
			<path fill="#63B8B0" d="M201.922,132.145l3.932-1.925v0.836l-2.883,1.343v0.017l2.883,1.336v0.827l-3.932-1.925V132.145z"/>
			<path fill="#63B8B0" d="M206.148,134.905l1.926-5.914h0.697l-1.926,5.914H206.148z"/>
			<path fill="#63B8B0" d="M213.031,132.76l-3.941,1.818v-0.812l3.146-1.359v-0.017l-3.146-1.359v-0.812l3.941,1.819V132.76z"/>
		</g>
		<g>
			<path fill="#FFFFFF" d="M96.606,147.335c-0.49,0-0.599,0.29-0.599,0.509c0,0.236,0.027,0.481,0.055,0.717
				c0.027,0.245,0.055,0.482,0.055,0.737c0,0.971-0.618,1.307-1.362,1.307h-0.191v-0.735h0.119c0.417-0.036,0.508-0.3,0.508-0.637
				c0-0.189-0.019-0.381-0.027-0.562c-0.027-0.2-0.046-0.39-0.046-0.571c0-0.618,0.237-0.982,0.69-1.118v-0.019
				c-0.454-0.145-0.69-0.526-0.69-1.117c0-0.173,0.019-0.345,0.046-0.535c0.009-0.19,0.027-0.391,0.027-0.6
				c0-0.345-0.145-0.59-0.49-0.617h-0.137v-0.735h0.164c0.863,0,1.39,0.444,1.39,1.317c0,0.254-0.027,0.489-0.055,0.734
				c-0.027,0.227-0.055,0.453-0.055,0.698c0,0.247,0.109,0.51,0.599,0.51V147.335z"/>
		</g>
		<g>
			<path fill="#FFFFFF" d="M89.047,146.617c0.49,0,0.599-0.263,0.599-0.51c0-0.245-0.027-0.472-0.055-0.698
				c-0.027-0.245-0.055-0.48-0.055-0.734c0-0.873,0.527-1.317,1.389-1.317h0.164v0.735h-0.136c-0.345,0.027-0.49,0.272-0.49,0.617
				c0,0.209,0.018,0.409,0.036,0.6c0.018,0.19,0.036,0.362,0.036,0.535c0,0.591-0.236,0.973-0.69,1.117v0.019
				c0.454,0.136,0.69,0.5,0.69,1.118c0,0.182-0.018,0.371-0.036,0.571c-0.019,0.182-0.036,0.373-0.036,0.562
				c0,0.337,0.091,0.601,0.508,0.637h0.118v0.735h-0.19c-0.745,0-1.362-0.336-1.362-1.307c0-0.255,0.028-0.492,0.055-0.737
				c0.027-0.235,0.055-0.48,0.055-0.717c0-0.219-0.109-0.509-0.599-0.509V146.617z"/>
		</g>
		<g>
			<g>
				<path fill="#63B8B0" d="M214.84,86.267c-0.49,0-0.6,0.29-0.6,0.508c0,0.236,0.027,0.481,0.055,0.717
					c0.027,0.245,0.055,0.482,0.055,0.736c0,0.971-0.617,1.307-1.361,1.307h-0.191v-0.735h0.119c0.416-0.036,0.508-0.3,0.508-0.636
					c0-0.19-0.018-0.381-0.027-0.563c-0.025-0.2-0.045-0.39-0.045-0.571c0-0.618,0.236-0.981,0.689-1.117v-0.018
					c-0.453-0.146-0.689-0.526-0.689-1.117c0-0.172,0.02-0.345,0.045-0.536c0.01-0.19,0.027-0.391,0.027-0.599
					c0-0.346-0.145-0.59-0.488-0.617h-0.139V82.29h0.164c0.861,0,1.389,0.445,1.389,1.316c0,0.255-0.027,0.491-0.055,0.735
					c-0.027,0.227-0.055,0.454-0.055,0.699s0.109,0.509,0.6,0.509V86.267z"/>
			</g>
			<g>
				<path fill="#63B8B0" d="M207.281,85.549c0.49,0,0.6-0.263,0.6-0.509s-0.027-0.472-0.057-0.699
					c-0.025-0.245-0.053-0.48-0.053-0.735c0-0.871,0.525-1.316,1.389-1.316h0.164v0.736h-0.139
					c-0.344,0.027-0.488,0.271-0.488,0.617c0,0.208,0.018,0.409,0.037,0.599c0.018,0.191,0.035,0.363,0.035,0.536
					c0,0.59-0.236,0.971-0.691,1.117v0.018c0.455,0.136,0.691,0.5,0.691,1.117c0,0.181-0.018,0.372-0.035,0.571
					c-0.02,0.182-0.037,0.373-0.037,0.563c0,0.336,0.09,0.6,0.508,0.636h0.119v0.735h-0.191c-0.744,0-1.361-0.336-1.361-1.307
					c0-0.254,0.027-0.491,0.053-0.736c0.029-0.236,0.057-0.48,0.057-0.717c0-0.218-0.109-0.508-0.6-0.508V85.549z"/>
			</g>
		</g>
		<g>
			<path fill="#FFFFFF" d="M58.443,96.147l3.932-1.925v0.836l-2.884,1.344v0.016l2.884,1.335v0.828l-3.932-1.925V96.147z"/>
			<path fill="#FFFFFF" d="M63.244,96.443c0-0.41,0.295-0.712,0.63-0.712c0.345,0,0.623,0.27,0.623,0.712
				c0,0.434-0.254,0.713-0.639,0.713C63.53,97.156,63.244,96.877,63.244,96.443z"/>
			<path fill="#FFFFFF" d="M65.152,96.443c0-0.41,0.295-0.712,0.63-0.712c0.344,0,0.623,0.27,0.623,0.712
				c0,0.434-0.254,0.713-0.639,0.713C65.438,97.156,65.152,96.877,65.152,96.443z"/>
			<path fill="#FFFFFF" d="M67.061,96.443c0-0.41,0.295-0.712,0.631-0.712c0.344,0,0.623,0.27,0.623,0.712
				c0,0.434-0.254,0.713-0.639,0.713C67.348,97.156,67.061,96.877,67.061,96.443z"/>
			<path fill="#FFFFFF" d="M72.984,96.762l-3.941,1.818v-0.811l3.146-1.36v-0.016l-3.146-1.36v-0.811l3.941,1.819V96.762z"/>
		</g>
		<g>
			<path fill="#63B8B0" d="M181.238,80.176l3.932-1.926v0.836l-2.883,1.343v0.017l2.883,1.335v0.827l-3.932-1.925V80.176z"/>
			<path fill="#63B8B0" d="M186.037,80.473c0-0.41,0.295-0.713,0.631-0.713c0.346,0,0.623,0.27,0.623,0.713
				c0,0.434-0.254,0.712-0.639,0.712C186.324,81.186,186.037,80.907,186.037,80.473z"/>
			<path fill="#63B8B0" d="M187.947,80.473c0-0.41,0.295-0.713,0.631-0.713c0.344,0,0.621,0.27,0.621,0.713
				c0,0.434-0.254,0.712-0.639,0.712C188.232,81.186,187.947,80.907,187.947,80.473z"/>
			<path fill="#63B8B0" d="M189.855,80.473c0-0.41,0.295-0.713,0.629-0.713c0.346,0,0.623,0.27,0.623,0.713
				c0,0.434-0.252,0.712-0.639,0.712C190.141,81.186,189.855,80.907,189.855,80.473z"/>
			<path fill="#63B8B0" d="M195.777,80.791l-3.939,1.819v-0.811l3.145-1.36v-0.016l-3.145-1.36V78.25l3.939,1.819V80.791z"/>
		</g>
		<polygon fill="#FFFFFF" points="70.125,151.128 68.177,148.806 66.228,146.482 64.279,148.806 62.33,151.128 64.049,151.128 
			64.049,158.426 68.407,158.426 68.407,151.128 		"/>
		<g>
			<g>
				<path fill="#FBD9A5" d="M164.202,170.708c-0.574-0.989-1.92,1.103-2.576,2.766c-0.344-0.589-1.703-8.662-1.885-12.173
					c-3.744-3.977-8.568-4.486-14.629-4.486c-6.647,0-14.077-1.469-17.921,1.773c-0.216,4.301-0.658,14.141-0.651,14.549
					c-0.655-1.597-1.798-3.382-2.351-2.429c-0.963,1.657-2.29,3.898-0.754,6.961c1.54,3.063,2.021,4.403,3.083,3.245
					c0.181-0.192,0.312-0.484,0.411-0.819l3.086,11.747l7.529,3.183c0.354,3.626,0.548,8.338,0.194,9.401
					c-0.732,2.231-6.229,13.88-6.229,13.88c23.387,0.651,23.436,0.116,26.157,1.016c2.439,0.8-5.871-12.248-6.717-14.272
					c-0.451-1.06-0.543-6.499-0.426-10.381l7.475-3.906l3.279-9.84c0.084-0.205,0.17-0.395,0.252-0.608
					c0.092,0.241,0.193,0.448,0.34,0.601c1.064,1.158,1.539-0.182,3.086-3.245C166.495,174.606,165.171,172.365,164.202,170.708z"/>
			</g>
			<g>
				<polygon fill="#4B4B4D" points="161.423,180.772 158.036,190.948 144.376,198.084 130.051,192.021 126.968,180.283 
					131.63,189.833 144.62,195.795 156.97,189.186 				"/>
			</g>
			<g>
				<path fill="#231F20" d="M167.274,160.335c-0.723-3.027-5.533-8.238-10.123-10.546c-2.582-1.286-3.908-1.418-4.58-1.287
					l1.025-0.581c0,0-1.463-0.832-2.811-0.942c-1.363-0.096-10.143,1.043-10.031,0.202c0.106-0.825,1.253-1.664,1.253-1.664
					s-6.792,0.524-8.881,1.572c-2.081,1.035-4.286,6.985-4.286,6.985s-3.792-2.363-4.903,0.519
					c-2.116,5.487,0.014,3.592-0.092,11.104c-0.096,7.513,1.32,7.959,1.639,8.792c0.322,0.838,0.68-1.329,2.761-4.983
					c2.088-3.638,1.225-11.559,1.225-11.559s0.944,1.648,6.573,1.778c5.649,0.137,6.793-0.851,13.482,0
					c6.686,0.863,5.852,2.911,7.104,8.015c1.25,5.103,4.148,9.019,4.148,9.019s1.49-6.835,3.162-7.457
					c1.674-0.617,4.283-0.569,4.283-0.569S168.021,163.357,167.274,160.335z"/>
			</g>
			<g>
				<path fill="#6D6E71" d="M182.825,237.62l-12.082-31.059c-5.447-3.863-20.197-5.019-20.197-5.019l-6.111,7.921h-1.347
					l-5.978-7.079c0.024-0.071,0.043-0.112,0.043-0.112s-0.058,0-0.136,0l-0.131-0.153l-0.112,0.164
					c-2.383,0.1-15.313,0.778-20.248,4.278l-15.114,31.059c0,0-11.43,18.299,3.383,18.299c5.505,0,15.129,0.104,15.129,0.104
					l0.039-9.033l-11.444-2.081l13.589-25.474l-0.167,40.548h43.385l0.242-42.049l8.555,26.052l-7.891,2.006l0.117,10.031
					c0,0,6.184,0,11.691,0C192.853,256.022,182.825,237.62,182.825,237.62z"/>
			</g>
			<g>
				<g>
					<g>
						<polygon fill="#52A39D" points="131.641,211.847 127.485,217.224 131.641,222.728 135.917,217.258 						"/>
					</g>
					<g>
						<polygon fill="#52A39D" points="139.758,211.847 135.602,217.224 139.758,222.728 144.033,217.258 						"/>
					</g>
					<g>
						<polygon fill="#52A39D" points="147.767,211.847 143.607,217.224 147.767,222.728 152.044,217.258 						"/>
					</g>
					<g>
						<polygon fill="#52A39D" points="155.866,211.847 151.714,217.224 155.866,222.728 160.146,217.258 						"/>
					</g>
				</g>
				<g>
					<g>
						<polygon fill="#52A39D" points="131.641,222.29 127.485,227.671 131.641,233.172 135.917,227.701 						"/>
					</g>
					<g>
						<polygon fill="#52A39D" points="139.758,222.29 135.602,227.671 139.758,233.172 144.033,227.701 						"/>
					</g>
					<g>
						<polygon fill="#52A39D" points="147.767,222.29 143.607,227.671 147.767,233.172 152.044,227.701 						"/>
					</g>
					<g>
						<polygon fill="#52A39D" points="155.866,222.29 151.714,227.671 155.866,233.172 160.146,227.701 						"/>
					</g>
				</g>
				<g>
					<g>
						<polygon fill="#52A39D" points="131.641,232.735 127.485,238.111 131.641,243.615 135.917,238.143 						"/>
					</g>
					<g>
						<polygon fill="#52A39D" points="139.758,232.735 135.602,238.111 139.758,243.615 144.033,238.143 						"/>
					</g>
					<g>
						<polygon fill="#52A39D" points="147.767,232.735 143.607,238.111 147.767,243.615 152.044,238.143 						"/>
					</g>
					<g>
						<polygon fill="#52A39D" points="155.866,232.735 151.714,238.111 155.866,243.615 160.146,238.143 						"/>
					</g>
				</g>
				<g>
					<g>
						<polygon fill="#52A39D" points="131.641,243.177 127.485,248.56 131.641,254.058 135.917,248.587 						"/>
					</g>
					<g>
						<polygon fill="#52A39D" points="139.758,243.177 135.602,248.56 139.758,254.058 144.033,248.587 						"/>
					</g>
					<g>
						<polygon fill="#52A39D" points="147.767,243.177 143.607,248.56 147.767,254.058 152.044,248.587 						"/>
					</g>
					<g>
						<polygon fill="#52A39D" points="155.866,243.177 151.714,248.56 155.866,254.058 160.146,248.587 						"/>
					</g>
				</g>
			</g>
			<g>
				<path fill="#63B8B0" d="M161.771,168.573h-14.611l-3.48,1.509l-3.369-1.509h-14.856c0,0.004,0,0.013,0,0.018l1.026,4.743
					l-0.007-0.004c0.33,1.039,0.513,2.113,0.825,3.153c0.181,0.578,0.404,1.146,0.747,1.659c0.333,0.508,0.807,0.934,1.359,1.231
					c1.111,0.601,2.421,0.777,3.688,0.764c1.274-0.022,2.545-0.234,3.749-0.61c0.602-0.193,1.192-0.421,1.752-0.718
					c0.272-0.14,0.537-0.299,0.793-0.485c0.251-0.17,0.445-0.391,0.63-0.636c0.351-0.488,0.619-1.037,0.856-1.593
					c0.24-0.555,0.453-1.124,0.651-1.696c0.212-0.574,0.403-1.147,0.647-1.72c0.064-0.146,0.124-0.287,0.209-0.427
					c0.035-0.068,0.077-0.136,0.131-0.207c0.059-0.063,0.105-0.138,0.217-0.202c0.312-0.151,0.65-0.217,1.003-0.201
					c0.273-0.016,0.556,0.021,0.818,0.111c0.029,0.017,0.061,0.028,0.098,0.041l0.043,0.021c0.018,0.008,0.043,0.019,0.064,0.028
					c0.07,0.056,0.127,0.106,0.172,0.168c0.094,0.108,0.164,0.225,0.217,0.337c0.244,0.455,0.406,0.917,0.592,1.38
					c0.34,0.926,0.672,1.847,1.098,2.73c0.209,0.436,0.441,0.865,0.738,1.246c0.146,0.185,0.303,0.358,0.49,0.491
					c0.195,0.144,0.41,0.273,0.625,0.396c0.871,0.483,1.842,0.818,2.834,1.046c0.986,0.226,2.004,0.35,3.018,0.336
					c1.023-0.011,2.033-0.151,2.943-0.535c0.451-0.191,0.877-0.443,1.223-0.765c0.348-0.319,0.613-0.72,0.83-1.141
					c0.426-0.857,0.625-1.819,0.859-2.769c0.176-0.746,1.379-6.174,1.379-6.174C161.771,168.586,161.771,168.577,161.771,168.573z
					 M140.476,174.197c-0.224,0.696-0.538,1.37-0.974,1.969c-0.435,0.604-1.005,1.119-1.664,1.495
					c-0.657,0.372-1.397,0.592-2.145,0.751c-0.751,0.151-1.515,0.23-2.279,0.227c-0.758-0.004-1.526-0.097-2.23-0.333
					c-0.35-0.129-0.68-0.292-0.956-0.513c-0.077-0.056-0.138-0.114-0.198-0.173c-0.057-0.054-0.109-0.124-0.159-0.195
					c-0.106-0.14-0.194-0.297-0.275-0.455c-0.34-0.635-0.566-1.326-0.747-2.018c-0.177-0.699-0.29-1.411-0.305-2.119
					c-0.018-0.705,0.06-1.435,0.389-2.038c0.163-0.287,0.415-0.518,0.733-0.664c0.319-0.155,0.68-0.236,1.052-0.29
					c0.743-0.109,1.519-0.127,2.29-0.168c0.774-0.047,1.532-0.096,2.305-0.096c0.764,0,1.532,0.028,2.301,0.129
					c0.754,0.104,1.515,0.255,2.194,0.602c0.333,0.178,0.641,0.406,0.843,0.716c0.208,0.305,0.286,0.677,0.279,1.035
					C140.912,172.793,140.695,173.501,140.476,174.197z M159.083,174.952c-0.176,0.691-0.402,1.383-0.736,2.018
					c-0.088,0.158-0.176,0.315-0.283,0.455c-0.045,0.071-0.105,0.142-0.154,0.195c-0.061,0.059-0.133,0.117-0.205,0.173
					c-0.273,0.221-0.607,0.384-0.957,0.513c-0.697,0.236-1.461,0.329-2.227,0.333c-0.768,0.004-1.533-0.075-2.279-0.227
					c-0.746-0.159-1.488-0.379-2.148-0.751c-0.658-0.376-1.225-0.891-1.66-1.495c-0.438-0.599-0.748-1.272-0.975-1.969
					c-0.219-0.696-0.43-1.404-0.449-2.139c-0.006-0.358,0.064-0.73,0.273-1.035c0.209-0.31,0.52-0.538,0.854-0.716
					c0.668-0.347,1.43-0.497,2.191-0.602c0.764-0.101,1.527-0.129,2.297-0.129c0.775,0,1.531,0.049,2.305,0.096
					c0.779,0.041,1.545,0.059,2.289,0.168c0.369,0.054,0.732,0.135,1.051,0.29c0.316,0.146,0.578,0.377,0.727,0.664
					c0.336,0.604,0.406,1.333,0.396,2.038C159.378,173.541,159.265,174.253,159.083,174.952z"/>
			</g>
		</g>
		<rect x="94.434" y="255.693" fill="#C6C1B9" width="98.479" height="4.794"/>
		<g>
			<g>
				<g>
					<path fill="#E6E7E8" d="M170.54,253.028c0,2.321-1.984,3.329-4.51,3.329h-46.606c-2.427,0-4.512-0.646-4.512-3.329
						l-0.943-25.228c0-2.594,0.668-3.323,3.095-3.323h51.324c2.467,0,3.098,0.907,3.098,3.323L170.54,253.028z"/>
					<path fill="#FFFFFF" d="M168.339,224.478h-51.326c-2.427,0-3.004,0.568-3.004,2.364L114,226.933c0,0-0.082-1.431,28.603-1.431
						c28.745,0,28.829,1.366,28.829,1.366v-0.088C171.433,225.109,170.804,224.478,168.339,224.478z"/>
					<path fill="#939598" d="M114,226.933c0.24-0.319,2.26-0.574,3.449-0.754c1.189-0.171,2.385-0.309,3.583-0.432
						c2.395-0.231,4.799-0.379,7.203-0.493c4.81-0.225,9.627-0.23,14.44-0.188c4.812,0.065,9.62,0.178,14.431,0.377
						c2.406,0.111,4.809,0.238,7.207,0.415c1.201,0.097,2.4,0.202,3.594,0.338c0.754,0.043,3.209,0.339,3.525,0.672
						c-0.262-0.139-0.568-0.174-0.859-0.23c-0.295-0.053-0.594-0.09-0.889-0.125c-0.596-0.076-1.197-0.13-1.793-0.18
						c-1.197-0.097-2.396-0.165-3.596-0.223c-2.4-0.128-4.805-0.209-7.205-0.272c-4.805-0.144-9.613-0.219-14.423-0.282
						c-4.806-0.091-9.623,0.021-14.425,0.149c-2.403,0.063-4.793,0.099-7.188,0.273C118.663,226.161,116.344,226.426,114,226.933z"
						/>
				</g>
				<path opacity="0.09" fill="#808285" d="M170.573,224.878c0,0-9.539,10.843-24.287,19.004
					c-14.606,8.081-31.041,10.729-31.041,10.729c0.681,1.368,2.326,1.746,4.178,1.746h46.606c2.525,0,4.51-1.008,4.51-3.329
					l0.945-25.228C171.433,226.277,171.485,225.319,170.573,224.878z"/>
			</g>
			<g>
				<ellipse fill="#E6E7E8" cx="143.364" cy="240.618" rx="3.819" ry="1.104"/>
			</g>
		</g>
		<g>
			<g>
				<g>
					<g>
						<path fill="#63B8B0" d="M145.07,126.625c-2.564,0-4.394-0.383-4.464-0.402l-0.289-0.059l-8.279-22.32l0.795,0.018
							c0.096,0.004,9.006,0.197,11.952,0.197c3.128,0,12.61-0.193,12.704-0.197l0.779-0.018l-7.979,22.312l-0.283,0.066
							C149.928,126.242,148.15,126.625,145.07,126.625z M141.12,125.219c0.6,0.109,2.076,0.33,3.951,0.33
							c2.258,0,3.805-0.221,4.406-0.328l7.238-20.26c-2.34,0.047-9.326,0.182-11.931,0.182c-2.436,0-8.907-0.135-11.174-0.182
							L141.12,125.219z"/>
					</g>
				</g>
				<g>
					<path fill="#63B8B0" d="M133.887,111.275L133.887,111.275c-1.805,0-3.223-0.967-3.307-2.242
						c-0.033-0.504,0.15-1.006,0.531-1.441c0.607-0.684,1.652-1.139,2.801-1.205l22.195-1.363c1.932-0.119,3.527,0.881,3.617,2.225
						c0.078,1.373-1.389,2.531-3.326,2.652l-22.201,1.363C134.096,111.268,133.989,111.275,133.887,111.275z M156.41,106
						c-0.082,0-0.164,0-0.25,0.008l-22.189,1.359c-0.879,0.055-1.688,0.391-2.115,0.877c-0.146,0.16-0.311,0.424-0.297,0.723
						c0.051,0.727,1.094,1.322,2.328,1.322l0,0c0.084,0,0.168-0.002,0.252-0.014l22.189-1.357c1.357-0.084,2.461-0.816,2.41-1.611
						C158.691,106.59,157.646,106,156.41,106z"/>
				</g>
				<g>
					<path fill="#63B8B0" d="M135.952,116.396c-1.535,0-2.787-0.992-2.854-2.264c-0.041-0.572,0.166-1.135,0.576-1.594
						c0.518-0.592,1.328-0.965,2.211-1.02l18.23-1.109c1.641-0.121,3.006,0.9,3.1,2.244c0.076,1.35-1.188,2.518-2.818,2.615
						l-18.22,1.121C136.108,116.393,136.026,116.396,135.952,116.396z M154.336,111.383l-0.166,0.012l-18.23,1.109
						c-0.623,0.039-1.182,0.287-1.533,0.684c-0.166,0.188-0.352,0.492-0.33,0.891c0.043,0.752,0.863,1.332,1.875,1.332l0.164-0.004
						l18.22-1.115c1.064-0.068,1.936-0.785,1.9-1.576C156.18,111.971,155.346,111.383,154.336,111.383z"/>
				</g>
				<g>
					<path fill="#63B8B0" d="M137.831,121.83c-1.305,0-2.385-1.002-2.469-2.283c-0.078-1.346,0.955-2.502,2.305-2.588l14.814-0.902
						c1.309,0,2.395,1.006,2.463,2.287c0.045,0.629-0.166,1.258-0.598,1.744c-0.439,0.5-1.045,0.797-1.707,0.84L137.831,121.83z
						 M152.48,117.039l-14.751,0.9c-0.805,0.051-1.428,0.746-1.387,1.541c0.051,0.764,0.699,1.363,1.488,1.363v0.494l0.086-0.494
						l14.658-0.9c0.404-0.023,0.768-0.203,1.035-0.504c0.248-0.287,0.375-0.654,0.346-1.035
						C153.924,117.637,153.271,117.039,152.48,117.039z"/>
				</g>
				<g>
					<path fill="#63B8B0" d="M139.774,125.645c-1.023,0-1.879-0.762-1.943-1.73c-0.076-1.01,0.732-1.877,1.793-1.941l10.804-0.568
						l0,0c1.135,0,1.986,0.762,2.053,1.74c0.035,0.5-0.154,1.002-0.531,1.367c-0.33,0.336-0.781,0.533-1.268,0.559L139.774,125.645z
						 M150.529,122.252l-10.843,0.576c-0.521,0.025-0.914,0.494-0.873,1.035c0.035,0.523,0.459,0.926,0.961,0.926v0.43l0.053-0.43
						l10.796-0.568c0.219-0.012,0.428-0.109,0.6-0.27c0.189-0.197,0.297-0.477,0.277-0.756
						C151.465,122.67,151.031,122.252,150.529,122.252z"/>
				</g>
			</g>
			<g>
				<path fill="#63B8B0" d="M155.879,102.189h-22.753l-0.168-1.283c-0.029-0.125-1.781-12.133-8.82-21.66
					c-6.109-8.238-10.059-15.008-5.242-27.236c6.031-15.477,22.93-16.264,26.265-16.264c3.33,0,20.252,0.787,26.258,16.264
					c4.789,12.238,0.863,19.006-5.23,27.236c-7.051,9.527-8.803,21.535-8.828,21.66l-0.178,1.283H155.879z"/>
			</g>
			<g opacity="0.2">
				<path fill="#63B8B0" d="M171.418,52.01c-2.727-7.023-7.697-11.004-12.629-13.271l-27.007,56.955
					c0.844,3.076,1.158,5.16,1.166,5.213l0.176,1.283h22.751h1.307l0.176-1.283c0.027-0.125,1.777-12.133,8.816-21.66
					C172.281,71.016,176.207,64.248,171.418,52.01z"/>
			</g>
			<g>
				<path fill="#63B8B0" d="M168.602,63.955c0,12.947-10.504,23.447-23.459,23.447c-12.945,0-23.441-10.5-23.441-23.447
					c0-12.955,10.496-23.455,23.441-23.455C158.098,40.5,168.602,51,168.602,63.955z"/>
			</g>
			<g>
				<path fill="#FFFFFF" d="M164.809,63.943c0,10.854-8.816,19.645-19.658,19.645c-10.886,0-19.656-8.791-19.656-19.645
					c0-10.84,8.77-19.629,19.656-19.629C155.992,44.314,164.809,53.104,164.809,63.943z"/>
			</g>
		</g>
	</g>
</g>
<g id="Layer_2">
	<text transform="matrix(1 0 0 1 30.7871 107.2739)" fill="#FFFFFF" font-family="'Hack'" font-size="14">JS</text>
	<text transform="matrix(1 0 0 1 172.8047 129.8906)" fill="#FFFFFF" font-family="'Hack'" font-size="6.3322">code</text>
	<g>
		<g>
			<path fill="#63B8B0" d="M132.758,65.04v0.772l-3.248-2.947V62.19l3.248-2.934v0.771l-2.731,2.514L132.758,65.04z"/>
			<path fill="#231F20" d="M133.333,61.139h0.869c0.143-1.195,0.307-2.085,0.491-2.668c0.185-0.583,0.424-1.044,0.72-1.381
				c0.296-0.337,0.575-0.506,0.837-0.506c0.147,0,0.259,0.057,0.334,0.172c0.076,0.115,0.113,0.251,0.113,0.408
				c0,0.144-0.025,0.264-0.076,0.359c-0.051,0.096-0.118,0.144-0.201,0.144c-0.085,0-0.245-0.05-0.48-0.15
				c-0.117-0.048-0.208-0.072-0.273-0.072c-0.16,0-0.305,0.195-0.434,0.584s-0.232,0.917-0.31,1.582l-0.183,1.528h0.963
				l-0.058,0.509h-0.977l-0.569,4.577c-0.177,1.392-0.46,2.446-0.85,3.163s-0.812,1.076-1.268,1.076
				c-0.152,0-0.268-0.059-0.347-0.176c-0.079-0.117-0.118-0.262-0.118-0.434c0-0.148,0.027-0.267,0.081-0.355
				c0.055-0.088,0.133-0.133,0.235-0.133c0.051,0,0.126,0.012,0.226,0.036c0.17,0.043,0.333,0.064,0.488,0.064
				c0.24,0,0.415-0.111,0.523-0.333c0.109-0.223,0.218-0.766,0.327-1.632l0.739-5.854h-0.87L133.333,61.139z"/>
			<path fill="#63B8B0" d="M136.163,65.04l2.732-2.499l-2.732-2.514v-0.771l3.249,2.934v0.675l-3.249,2.947V65.04z"/>
		</g>
		<g>
			<path fill="#231F20" d="M141.988,65.04c-0.194,0-0.368-0.031-0.522-0.091s-0.289-0.159-0.406-0.294
				c-0.221-0.257-0.331-0.621-0.331-1.091V61.46h-0.891v-0.523h1.561v2.626c0,0.303,0.056,0.53,0.167,0.68
				c0.058,0.08,0.128,0.139,0.209,0.175s0.174,0.054,0.278,0.054h0.782v0.568H141.988z M140.766,60.198
				c-0.073,0-0.109-0.036-0.109-0.109V59.46c0-0.073,0.036-0.109,0.109-0.109h0.524c0.072,0,0.109,0.037,0.109,0.109v0.629
				c0,0.073-0.037,0.109-0.109,0.109H140.766z"/>
			<path fill="#231F20" d="M145.381,65.116c-0.258,0-0.482-0.051-0.676-0.153s-0.357-0.242-0.488-0.422
				c-0.141-0.191-0.246-0.42-0.316-0.686s-0.105-0.562-0.105-0.89c0-0.322,0.035-0.616,0.104-0.882
				c0.069-0.266,0.175-0.493,0.318-0.682c0.145-0.189,0.314-0.331,0.514-0.424s0.416-0.14,0.65-0.14
				c0.248,0,0.463,0.052,0.648,0.156c0.186,0.107,0.334,0.261,0.439,0.462v-2.106h0.67v5.66h-0.605l-0.064-0.513
				c-0.055,0.097-0.119,0.184-0.189,0.26s-0.154,0.143-0.254,0.198C145.84,65.062,145.625,65.116,145.381,65.116z M145.477,64.549
				c0.326,0,0.574-0.134,0.742-0.4c0.166-0.265,0.25-0.655,0.25-1.171c0-0.517-0.084-0.908-0.25-1.175
				c-0.078-0.124-0.178-0.221-0.299-0.291s-0.268-0.105-0.441-0.105c-0.324,0-0.568,0.132-0.73,0.396
				c-0.164,0.267-0.246,0.659-0.246,1.175c0,0.516,0.082,0.908,0.246,1.175c0.086,0.138,0.189,0.239,0.312,0.302
				C145.186,64.517,145.322,64.549,145.477,64.549z"/>
			<path fill="#231F20" d="M149.865,65.116c-0.256,0-0.482-0.051-0.674-0.153c-0.195-0.102-0.357-0.242-0.488-0.422
				c-0.141-0.191-0.246-0.42-0.316-0.686s-0.105-0.562-0.105-0.89c0-0.322,0.033-0.616,0.104-0.882
				c0.068-0.266,0.176-0.493,0.318-0.682s0.312-0.331,0.512-0.424s0.416-0.14,0.65-0.14c0.248,0,0.465,0.052,0.648,0.156
				c0.188,0.107,0.334,0.261,0.441,0.462v-2.106h0.668v5.66h-0.604l-0.064-0.513c-0.057,0.097-0.119,0.184-0.189,0.26
				s-0.156,0.143-0.256,0.198C150.326,65.062,150.111,65.116,149.865,65.116z M149.961,64.549c0.328,0,0.574-0.134,0.742-0.4
				c0.168-0.265,0.252-0.655,0.252-1.171c0-0.517-0.084-0.908-0.252-1.175c-0.078-0.124-0.176-0.221-0.299-0.291
				c-0.121-0.07-0.268-0.105-0.439-0.105c-0.324,0-0.568,0.132-0.73,0.396c-0.166,0.267-0.248,0.659-0.248,1.175
				c0,0.516,0.082,0.908,0.248,1.175c0.084,0.138,0.189,0.239,0.312,0.302S149.809,64.549,149.961,64.549z"/>
			<path fill="#231F20" d="M155.443,65.04c-0.193,0-0.369-0.031-0.521-0.091c-0.154-0.061-0.291-0.159-0.406-0.294
				c-0.221-0.257-0.332-0.621-0.332-1.091V61.46h-0.891v-0.523h1.561v2.626c0,0.303,0.057,0.53,0.168,0.68
				c0.059,0.08,0.127,0.139,0.209,0.175c0.08,0.036,0.174,0.054,0.277,0.054h0.783v0.568H155.443z M154.221,60.198
				c-0.072,0-0.109-0.036-0.109-0.109V59.46c0-0.073,0.037-0.109,0.109-0.109h0.523c0.074,0,0.109,0.037,0.109,0.109v0.629
				c0,0.073-0.035,0.109-0.109,0.109H154.221z"/>
			<path fill="#231F20" d="M159.043,65.116c-0.277,0-0.525-0.045-0.742-0.137c-0.217-0.09-0.402-0.227-0.551-0.409
				c-0.154-0.188-0.266-0.417-0.34-0.685c-0.072-0.269-0.109-0.572-0.109-0.912c0-0.688,0.15-1.217,0.449-1.586
				c0.297-0.366,0.729-0.549,1.293-0.549c0.293,0,0.545,0.047,0.76,0.14s0.395,0.23,0.539,0.409
				c0.299,0.369,0.449,0.896,0.449,1.583c0,0.347-0.037,0.655-0.111,0.924s-0.186,0.495-0.338,0.676
				c-0.145,0.18-0.326,0.315-0.543,0.408C159.582,65.07,159.33,65.116,159.043,65.116z M159.043,64.549
				c0.344,0,0.602-0.134,0.775-0.4c0.176-0.265,0.262-0.655,0.262-1.171c0-0.517-0.086-0.908-0.262-1.175
				c-0.174-0.264-0.432-0.396-0.775-0.396c-0.338,0-0.596,0.132-0.77,0.396c-0.176,0.267-0.264,0.659-0.264,1.175
				c0,0.516,0.088,0.907,0.264,1.171C158.447,64.415,158.705,64.549,159.043,64.549z"/>
		</g>
		<g>
			<path fill="#63B8B0" d="M153.008,65.109c-0.164,0-0.305-0.057-0.418-0.171c-0.115-0.114-0.172-0.262-0.172-0.444
				c0-0.182,0.057-0.33,0.172-0.444c0.113-0.114,0.254-0.17,0.418-0.17s0.305,0.057,0.418,0.17s0.17,0.262,0.17,0.444
				c0,0.182-0.057,0.33-0.17,0.444S153.172,65.109,153.008,65.109z"/>
		</g>
	</g>
	<text transform="matrix(0.9129 0 0 1 231.4648 97.3301)" fill="#FFFFFF" font-family="'Hack'" font-size="8.4728">videos</text>
	<text transform="matrix(1 0 0 1 41.3384 129.9727)" fill="#FFFFFF" font-family="'Hack'" font-size="6.2394">help</text>
	<text transform="matrix(0.9361 0 0 1 76.0405 67.3125)" fill="#FFFFFF" font-family="'Hack'" font-size="6.6278">record</text>
	<text transform="matrix(1 0 0 1 188.2393 64.4941)" fill="#FFFFFF" font-family="'Hack'" font-size="8.242">learn</text>
	<text transform="matrix(0.9466 0 0 1 83.6216 96.4434)" fill="#FFFFFF" font-family="'Hack'" font-size="6.8188">watch</text>
</g>
</svg>
