<?xml version="1.0" encoding="utf-8"?>
<!-- Generator: Adobe Illustrator 16.0.0, SVG Export Plug-In . SVG Version: 6.00 Build 0)  -->
<!DOCTYPE svg PUBLIC "-//W3C//DTD SVG 1.1//EN" "http://www.w3.org/Graphics/SVG/1.1/DTD/svg11.dtd">
<svg version="1.1" id="_x2014_ÎÓÈ_x5F_1" xmlns="http://www.w3.org/2000/svg" xmlns:xlink="http://www.w3.org/1999/xlink"
	 x="0px" y="0px" width="736.167px" height="695.718px" viewBox="61.463 57.206 736.167 695.718"
	 enable-background="new 61.463 57.206 736.167 695.718" xml:space="preserve">
<g>
	
		<rect x="291.238" y="516.271" transform="matrix(0.6544 -0.7562 0.7562 0.6544 -286.0948 433.9518)" fill="#009245" width="80.837" height="27.334"/>
	<path fill="#754C24" d="M331.683,406.185c-7.56,4.396-15.282,7.523-23.635,5.749l7.026-9.368L331.683,406.185z"/>
	
		<rect x="341.355" y="316.891" transform="matrix(0.6544 -0.7562 0.7562 0.6544 -119.7845 399.0446)" fill="#009245" width="70.558" height="27.334"/>
	<circle fill="#F9F9F0" cx="419.552" cy="421.005" r="279.66"/>
	<g opacity="0.22">
		<path fill="#5D5D5D" d="M305.382,417.931l-9.228-142.436l-50.87,3.296l-1.879-29.002l136.238-8.827l1.879,29.002l-50.754,3.288
			l9.229,142.438L305.382,417.931z"/>
	</g>
	<g opacity="0.22">
		<g>
			<path fill="#5D5D5D" d="M412.06,403.551l8.18-171.602l127.238,6.064l-1.384,29.03l-92.591-4.413l-1.812,38.043l86.151,4.106
				l-1.378,28.913l-86.152-4.106l-2.227,46.704l95.868,4.569l-1.378,28.914L412.06,403.551z"/>
		</g>
	</g>
	<g opacity="0.22">
		<path fill="#5D5D5D" d="M414.812,603.568l-37.697-1.657l-13.271-39.646l-68.605-3.018l-15.881,38.363l-36.761-1.617l74.397-168.69
			l36.645,1.612L414.812,603.568z M353.995,532.859l-20.849-64.729l-25.981,62.67L353.995,532.859z"/>
	</g>
	<g opacity="0.22">
		<path fill="#5D5D5D" d="M433.645,598.753l-24.362-170.06l51.39-7.362l47.475,111.582l13.892-120.373l51.506-7.379l24.362,170.061
			l-31.901,4.57l-19.177-133.867l-14.58,138.703l-33.061,4.736l-52.818-129.048l19.178,133.866L433.645,598.753z"/>
	</g>
	<g>
		<path fill="#FF5842" d="M301.382,415.931l-9.228-142.436l-50.87,3.296l-1.879-29.002l136.238-8.827l1.879,29.002l-50.754,3.288
			l9.229,142.438L301.382,415.931z"/>
	</g>
	<g>
		<g>
			<path fill="#1392A3" d="M408.06,401.551l8.18-171.602l127.238,6.064l-1.384,29.03l-92.591-4.413l-1.812,38.043l86.151,4.106
				l-1.378,28.913l-86.152-4.106l-2.227,46.704l95.868,4.569l-1.378,28.914L408.06,401.551z"/>
		</g>
	</g>
	<g>
		<path fill="#3F6B91" d="M410.812,601.568l-37.697-1.657l-13.271-39.646l-68.605-3.018l-15.881,38.363l-36.761-1.617l74.397-168.69
			l36.645,1.612L410.812,601.568z M349.995,530.859l-20.849-64.729l-25.981,62.67L349.995,530.859z"/>
	</g>
	<g>
		<path fill="#FFC700" d="M429.645,596.753l-24.362-170.06l51.39-7.362l47.475,111.582l13.892-120.373l51.506-7.379l24.362,170.061
			l-31.901,4.57l-19.177-133.867l-14.58,138.703l-33.061,4.736l-52.818-129.048l19.178,133.866L429.645,596.753z"/>
	</g>
	<g>
		<polygon fill="#BF5500" points="221.874,225.287 175.019,284.913 128.848,258.699 184.971,187.279 		"/>
		<g>
			<g>
				<g>
					<g>
						<path fill="#EEB87A" d="M235.389,354.616l13.156,3.793c0.872,0.251,1.831-0.401,2.154-1.521l0.175-0.609
							c0.323-1.121-0.038-2.542-0.909-2.794l-12.931-3.729l0.224-0.777l16.263,4.689c1.211,0.349,2.38-0.221,2.703-1.341
							l0.176-0.609c0.323-1.121-0.322-2.366-1.534-2.715l-16.263-4.689l0.299-1.037l18.457,5.322c1.211,0.35,2.513-0.16,2.836-1.28
							l0.176-0.609c0.323-1.121-0.455-2.427-1.667-2.776l-18.457-5.322l0.299-1.037l16.264,4.689c1.211,0.35,2.368-0.179,2.691-1.3
							l0.176-0.609c0.323-1.121-0.31-2.407-1.521-2.756l-17.682-5.098l-1.182-0.341l-6.411-1.848l8.525-2.461
							c0.938-0.277,1.349-1.386,0.926-2.512l-0.233-0.598c-0.423-1.125-1.529-1.807-2.468-1.53l-14.621,4.312
							c-0.273,0.081-6.494-1.515-6.494-1.515c-0.801-0.231-1.646,0.211-1.87,0.989l-5.216,18.091
							c-0.225,0.779,0.263,1.576,1.064,1.806C212.495,346.894,235.052,354.799,235.389,354.616z"/>
					</g>
					<g>
						<path fill="#EEB87A" d="M183.766,337.345c-1.432-0.413-2.227-2.014-1.776-3.576l3.752-13.013
							c0.45-1.562,1.976-2.494,3.407-2.082l31.879,9.192c1.431,0.413,2.227,2.014,1.776,3.576l-3.752,13.013
							c-0.451,1.562-1.976,2.494-3.408,2.082L183.766,337.345z"/>
					</g>
				</g>
			</g>
			
				<rect x="153.718" y="316.666" transform="matrix(-0.9623 -0.2719 0.2719 -0.9623 278.2078 696.6113)" fill="#FCFCFC" width="67.298" height="24.73"/>
			<path fill="#E2770D" d="M167.239,308.108l-30.253-59.338l-21.518,17.974l32.751,64.237c0.667,1.308,1.847,2.279,3.259,2.682
				l62.509,17.812l7.433-26.303l-50.926-14.391C169.084,310.382,167.904,309.414,167.239,308.108z"/>
		</g>
		<g>
			<g>
				<g>
					<path fill="#EEB87A" d="M292.311,277.189l3.581,13.216c0.237,0.875-0.43,1.824-1.556,2.129l-0.611,0.166
						c-1.126,0.305-2.542-0.079-2.779-0.954l-3.52-12.989l-0.781,0.212l4.426,16.336c0.33,1.217-0.259,2.376-1.384,2.681
						l-0.611,0.166c-1.125,0.305-2.361-0.36-2.69-1.577l-4.427-16.337l-1.042,0.282l5.024,18.54c0.33,1.217-0.2,2.51-1.326,2.815
						l-0.612,0.166c-1.125,0.305-2.419-0.494-2.749-1.711l-5.023-18.54l-1.042,0.282l4.427,16.336
						c0.33,1.217-0.218,2.365-1.343,2.67l-0.611,0.166c-1.126,0.305-2.402-0.349-2.732-1.566l-4.812-17.761l-0.322-1.188
						l-1.745-6.439l-2.599,8.484c-0.292,0.934-1.407,1.327-2.526,0.886l-0.594-0.243c-1.119-0.441-1.782-1.558-1.49-2.492
						l4.546-14.55c0.085-0.272-1.41-6.517-1.41-6.517c-0.218-0.804,0.237-1.642,1.019-1.854l18.173-4.924
						c0.782-0.212,1.571,0.289,1.789,1.093C284.959,254.173,292.5,276.855,292.311,277.189z"/>
				</g>
				<g>
					<path fill="#EEB87A" d="M276.311,227.291c-0.378-1.441-1.959-2.275-3.532-1.862l-13.1,3.437
						c-1.573,0.413-2.542,1.915-2.163,3.356l8.419,32.092c0.378,1.441,1.959,2.275,3.532,1.862l13.1-3.437
						c1.573-0.413,2.542-1.915,2.164-3.356L276.311,227.291z"/>
				</g>
			</g>
		</g>
		
			<rect x="229.745" y="213.475" transform="matrix(-0.3049 -0.9524 0.9524 -0.3049 128.6843 545.4561)" fill="#FCFCFC" width="67.301" height="24.585"/>
		<path fill="#E2770D" d="M285.362,253.016l-19.583-61.314c-0.549-1.719-1.958-3.024-3.714-3.44l-72.041-17.078l-10.088,25.7
			l60.754,14.401c1.754,0.416,3.163,1.72,3.713,3.438l14.927,46.627L285.362,253.016z"/>
		
			<ellipse transform="matrix(-0.7863 -0.6179 0.6179 -0.7863 141.6465 492.4703)" fill="#E2770D" cx="155.996" cy="221.737" rx="21.835" ry="62.085"/>
		<g>
			<path fill="#303030" d="M135.675,205.773c-14.526,18.486-23.551,37.409-24.733,49.882l3.255,1.572
				c1.51-12.469,10.438-30.93,24.624-48.982c14.186-18.053,30.012-31.093,41.771-35.509l-2.297-2.791
				C166.454,174.044,150.202,187.287,135.675,205.773z"/>
		</g>
		<g>
			
				<ellipse transform="matrix(-0.7863 -0.6179 0.6179 -0.7863 154.4986 512.3606)" fill="#EEB87A" cx="165.862" cy="229.46" rx="25.552" ry="24.487"/>
			<path fill="#EEB87A" d="M175.117,247.518l12.566,1.802c1.704,0.244,3.033-1.447,2.393-3.045l-4.722-11.784L175.117,247.518z"/>
			<path fill="#754C24" d="M178.787,203.298c-0.631-0.582-1.205-1.265-1.914-1.822c-0.012-0.01-0.025-0.02-0.038-0.03
				c-1.315-1.034-2.619-2.114-3.959-3.153c-1.327-1.057-2.686-2.068-4-3.102c-0.013-0.01-0.025-0.02-0.038-0.03
				c-0.708-0.557-1.507-0.953-2.223-1.428c-10.284-7.126-21.355-10.291-35.351,6.734c-0.336,0.396-0.688,0.827-1.013,1.24
				c-0.415,0.527-0.818,1.076-1.2,1.613c-0.087,0.124-0.18,0.254-0.265,0.377c-8.41,12.125-8.569,26.722,4.361,36.882
				c1.331,1.046,2.708,2.062,4.12,3.027c1.273,1.145,2.583,2.244,3.914,3.29c11.381,8.943,23.698,7.221,33.164-0.845l0.858,3.21
				c4.675-3.902,7.187-9.095,8.687-14.893C192.655,219.733,187.234,210.799,178.787,203.298z"/>
			<path fill="#6B4621" d="M178.787,203.298c-0.631-0.582-1.205-1.265-1.914-1.822c-0.012-0.01-0.025-0.02-0.038-0.03
				c-1.315-1.034-2.619-2.114-3.959-3.153c-1.327-1.057-2.686-2.068-4-3.102c-0.013-0.01-0.025-0.02-0.038-0.03
				c-0.708-0.557-1.507-0.953-2.223-1.428c-2.856-1.979-5.774-3.651-8.798-4.671c9.358,9.521,15.362,24.175,15.362,40.625
				c0,6.837-1.046,13.359-2.929,19.338c1.413-0.863,2.782-1.855,4.095-2.974l0.858,3.21c4.675-3.902,7.187-9.095,8.687-14.893
				C192.655,219.733,187.234,210.799,178.787,203.298z"/>
		</g>
	</g>
	<g>
		<g>
			<g>
				<g>
					<path fill="#EEB87A" d="M512.911,251.536l-9.078,10.25c-0.602,0.679-0.425,1.825,0.448,2.599l0.475,0.42
						c0.873,0.773,2.312,1.058,2.914,0.379l8.923-10.074l0.605,0.536l-11.224,12.671c-0.836,0.944-0.822,2.244,0.051,3.017
						l0.475,0.42c0.873,0.773,2.274,0.726,3.11-0.218l11.223-12.671l0.808,0.715l-12.735,14.38
						c-0.836,0.944-0.937,2.338-0.062,3.111l0.476,0.42c0.873,0.773,2.387,0.631,3.223-0.312l12.736-14.38l0.808,0.716
						l-11.223,12.67c-0.836,0.944-0.855,2.215,0.018,2.989l0.476,0.42c0.872,0.773,2.307,0.754,3.143-0.189l12.201-13.775
						l0.814-0.921l4.424-4.994l-1.439,8.756c-0.153,0.967,0.672,1.814,1.87,1.916l0.64,0.046c1.198,0.102,2.288-0.604,2.442-1.571
						l2.389-15.055c0.045-0.282,4.158-5.213,4.158-5.213c0.553-0.624,0.517-1.577-0.09-2.114l-14.095-12.483
						c-0.606-0.538-1.536-0.439-2.089,0.185C529.722,234.181,512.891,251.153,512.911,251.536z"/>
				</g>
				<g>
					<path fill="#EEB87A" d="M550.688,212.342c0.987-1.115,2.774-1.146,3.992-0.067l10.139,8.979
						c1.218,1.078,1.403,2.856,0.416,3.972l-21.998,24.837c-0.987,1.115-2.775,1.145-3.992,0.067l-10.139-8.979
						c-1.218-1.078-1.403-2.856-0.415-3.971L550.688,212.342z"/>
				</g>
			</g>
		</g>
		<g>
			<g>
				<g>
					<path fill="#EEB87A" d="M599.991,356.329l-13.2,3.639c-0.874,0.241-1.825-0.422-2.136-1.547l-0.168-0.611
						c-0.311-1.124,0.066-2.542,0.941-2.783l12.975-3.576l-0.216-0.78l-16.316,4.498c-1.216,0.335-2.378-0.248-2.688-1.373
						l-0.168-0.611c-0.311-1.125,0.351-2.362,1.564-2.697l16.317-4.498l-0.286-1.041l-18.52,5.104
						c-1.215,0.335-2.511-0.189-2.82-1.313l-0.169-0.611c-0.31-1.124,0.483-2.421,1.699-2.756l18.519-5.104l-0.286-1.04
						l-16.317,4.498c-1.216,0.335-2.365-0.207-2.676-1.332l-0.168-0.61c-0.312-1.125,0.338-2.404,1.554-2.739l17.74-4.89
						l1.186-0.327l6.434-1.773l-8.496-2.562c-0.937-0.288-1.333-1.402-0.897-2.522l0.241-0.595c0.437-1.121,1.55-1.789,2.485-1.501
						l14.569,4.483c0.271,0.083,6.511-1.438,6.511-1.438c0.804-0.222,1.644,0.23,1.857,1.011l5.003,18.151
						c0.217,0.781-0.28,1.572-1.085,1.793C622.975,348.877,600.325,356.517,599.991,356.329z"/>
				</g>
				<g>
					<path fill="#EEB87A" d="M651.814,339.667c1.436-0.396,2.25-1.988,1.816-3.555l-3.599-13.056
						c-0.433-1.568-1.946-2.518-3.383-2.122l-31.985,8.816c-1.436,0.396-2.25,1.988-1.817,3.555l3.6,13.056
						c0.432,1.567,1.945,2.518,3.383,2.122L651.814,339.667z"/>
				</g>
			</g>
		</g>
		<polygon fill="#006775" points="662.492,284.541 617.351,223.607 654.822,185.994 708.894,258.98 		"/>
		
			<rect x="619.664" y="317.571" transform="matrix(0.9697 -0.2445 0.2445 0.9697 -60.9521 169.047)" fill="#FEFEFE" width="61.617" height="24.955"/>
		<path fill="#006775" d="M723.215,267.774l-22.902-17.059L668.39,309.16c-0.696,1.277-1.896,2.205-3.306,2.561l-45.803,11.548
			l6.683,26.504l57.42-14.477c1.391-0.35,2.573-1.255,3.275-2.504L723.215,267.774z"/>
		
			<rect x="528.981" y="208.597" transform="matrix(0.7434 -0.6689 0.6689 0.7434 -4.0273 430.8728)" fill="#FEFEFE" width="61.043" height="24.175"/>
		<path fill="#006775" d="M658.854,197.63l-8.721-27.121l-74.646,16.465c-0.857,0.189-1.65,0.597-2.305,1.184l-44.731,40.247
			l18.282,20.32l39.21-35.279c0.669-0.603,1.485-1.015,2.366-1.198L658.854,197.63z"/>
		
			<ellipse transform="matrix(0.8035 -0.5953 0.5953 0.8035 2.1639 450.3979)" fill="#006775" cx="683.33" cy="221.921" rx="21.834" ry="62.083"/>
		<g>
			<path fill="#303030" d="M704.068,206.551c-13.995-18.891-29.864-32.591-41.583-37.024l-2.375,2.724
				c11.628,4.749,27.077,18.232,40.743,36.682c13.669,18.449,22.067,37.155,23.224,49.663l3.298-1.479
				C726.547,244.614,718.064,225.442,704.068,206.551z"/>
		</g>
		
			<ellipse transform="matrix(0.8035 -0.5953 0.5953 0.8035 -4.2637 445.8801)" fill="#EEB87A" cx="673.273" cy="229.398" rx="25.55" ry="24.487"/>
		<path fill="#EEB87A" d="M653.394,233.574l-5.056,11.645c-0.686,1.579,0.595,3.307,2.305,3.111l12.612-1.444L653.394,233.574z"/>
		<path fill="#292929" d="M704.454,198.528c0.632,0,1.257,0.031,1.885,0.047c-12.056-13.856-22.273-11.741-31.854-5.808
			c-0.538,0.304-1.075,0.631-1.612,0.979c-0.613,0.309-1.28,0.565-1.848,0.986c-0.015,0.009-0.026,0.019-0.039,0.029
			c-1.346,0.996-2.731,1.968-4.087,2.986c-1.37,1-2.704,2.044-4.049,3.04c-0.013,0.01-0.024,0.02-0.039,0.029
			c-0.555,0.411-0.986,0.961-1.449,1.45c-0.686,0.578-1.342,1.182-1.972,1.808c-5.737,5.48-12.233,15.291-9.521,21.147
			C662.532,208.983,682.267,198.528,704.454,198.528z"/>
		<path fill="#333333" d="M713.39,208.462c-1.86-4.245-4.729-8.07-8.229-11.196c-8.024-8.621-15.237-10.205-22.002-8.439
			c-7.452,0.312-14.793,3.871-20.31,11.962c-0.013,0.01-0.024,0.02-0.039,0.029c-0.555,0.411-0.986,0.961-1.449,1.45
			c-0.686,0.578-1.343,1.182-1.972,1.808c-6.96,6.647-15.049,19.671-6.444,24.273c0.387,0.207,0.701,0.507,0.979,0.884
			c1.32,2.639,1.86,5.824,3.615,8.515c0.081,0.125,0.163,0.249,0.247,0.373c0.131,0.196,0.272,0.389,0.408,0.584
			c0.006,0.009,0.01,0.018,0.016,0.027c0.238,0.401,0.529,0.772,0.812,1.15c0.278,0.382,0.55,0.768,0.863,1.113
			c0.007,0.008,0.016,0.015,0.021,0.023c0.146,0.185,0.29,0.378,0.438,0.561c0.096,0.116,0.189,0.23,0.285,0.344
			c2.062,2.463,4.952,3.907,7.092,5.939c0.279,0.375,0.476,0.765,0.562,1.196c1.662,8.387,13.191,6.323,21.656,2.499
			c2.577-1.02,5.104-2.396,7.414-4.106c0.368-0.273,0.73-0.56,1.097-0.84c1.032-0.704,1.994-1.419,2.924-2.14
			c0.028-0.021,0.058-0.041,0.086-0.062c1.062-0.775,2.102-1.572,3.143-2.357c0.319-0.229,0.646-0.455,0.96-0.688
			c1.777-1.317,3.312-2.723,4.634-4.197C717.281,230.315,721.014,221.871,713.39,208.462z"/>
		<path fill="#2B2B2B" d="M704.247,196.329c-7.66-7.78-14.583-9.2-21.089-7.502c-7.452,0.312-14.793,3.871-20.31,11.962
			c-0.013,0.01-0.024,0.02-0.039,0.029c-0.555,0.411-0.986,0.961-1.449,1.45c-0.686,0.578-1.343,1.182-1.972,1.808
			c-4.923,4.701-10.4,12.589-10.148,18.435C663.284,207.684,682.628,197.948,704.247,196.329z"/>
	</g>
	<g>
		<g>
			<g>
				<g>
					<path fill="#EEB87A" d="M261.493,546.865l13.556-1.925c0.898-0.128,1.506-1.115,1.342-2.271l-0.089-0.627
						c-0.164-1.154-1.076-2.305-1.974-2.177l-13.324,1.892l-0.114-0.801l16.758-2.38c1.248-0.177,2.081-1.176,1.917-2.33
						l-0.089-0.627c-0.164-1.155-1.262-2.027-2.51-1.851l-16.758,2.38l-0.152-1.068l19.018-2.7c1.248-0.177,2.228-1.175,2.063-2.329
						l-0.089-0.627c-0.164-1.155-1.409-2.027-2.657-1.851l-19.018,2.7l-0.152-1.068l16.758-2.38
						c1.249-0.177,2.087-1.133,1.923-2.287l-0.089-0.628c-0.164-1.154-1.268-2.069-2.517-1.893l-18.219,2.588l-1.218,0.173
						l-6.605,0.938l6.771-5.736c0.743-0.637,0.664-1.815-0.183-2.671l-0.458-0.448c-0.847-0.854-2.134-1.023-2.878-0.388
						l-11.574,9.92c-0.216,0.187-6.545,1.276-6.545,1.276c-0.825,0.117-1.415,0.866-1.301,1.668l2.647,18.641
						c0.114,0.804,0.885,1.33,1.71,1.214C237.444,549.192,261.261,547.17,261.493,546.865z"/>
				</g>
				<g>
					<path fill="#EEB87A" d="M207.324,552.241c-1.475,0.209-2.856-0.926-3.084-2.536l-1.904-13.408
						c-0.229-1.609,0.782-3.085,2.257-3.294l32.849-4.665c1.475-0.209,2.856,0.926,3.084,2.536l1.904,13.408
						c0.229,1.609-0.782,3.085-2.257,3.295L207.324,552.241z"/>
				</g>
			</g>
		</g>
		<polygon fill="#365C7D" points="155.079,513.401 139.94,439.095 86.917,441.818 105.05,530.823 		"/>
		
			<rect x="166.002" y="522.578" transform="matrix(-0.83 0.5577 -0.5577 -0.83 658.1932 868.1491)" fill="#FCFCFC" width="61.612" height="23.583"/>
		<g>
			<path fill="#303030" d="M69.283,492.186c-4.693-23.036-4.272-43.998,0.264-55.677l3.614,0.056
				c-4.242,11.821-4.542,32.324,0.042,54.822s12.881,41.25,21.41,50.472l-3.304,1.464C82.564,534.349,73.977,515.223,69.283,492.186
				z"/>
		</g>
		<g>
			<g>
				<g>
					<g>
						<path fill="#EEB87A" d="M237.181,428.904l12.943,4.467c0.857,0.296,1.267,1.381,0.886,2.482l-0.207,0.601
							c-0.38,1.103-1.494,2.058-2.352,1.762l-12.721-4.39l-0.264,0.765l16,5.521c1.192,0.411,1.82,1.549,1.439,2.65l-0.207,0.601
							c-0.38,1.103-1.625,1.75-2.816,1.339l-16-5.521l-0.352,1.021l18.158,6.266c1.191,0.411,1.963,1.576,1.583,2.679l-0.207,0.6
							c-0.38,1.103-1.769,1.724-2.96,1.312l-18.158-6.267l-0.352,1.021l16,5.521c1.192,0.412,1.833,1.51,1.453,2.612l-0.207,0.599
							c-0.38,1.103-1.639,1.79-2.831,1.379l-17.395-6.002l-1.163-0.401l-6.307-2.177l5.557,6.919
							c0.609,0.767,0.306,1.909-0.687,2.587l-0.535,0.354c-0.993,0.678-2.29,0.599-2.898-0.168l-9.479-11.938
							c-0.177-0.224-6.183-2.497-6.183-2.497c-0.788-0.271-1.225-1.118-0.96-1.885l6.141-17.798c0.265-0.767,1.122-1.138,1.91-0.865
							C214.012,422.05,237.011,428.561,237.181,428.904z"/>
					</g>
					<g>
						<path fill="#EEB87A" d="M185.02,413.332c-1.408-0.486-2.98,0.366-3.51,1.904l-4.417,12.802
							c-0.53,1.537,0.181,3.177,1.589,3.663l31.363,10.822c1.408,0.485,2.98-0.366,3.51-1.903l4.417-12.803
							c0.531-1.537-0.181-3.178-1.589-3.662L185.02,413.332z"/>
					</g>
				</g>
			</g>
			
				<rect x="149.838" y="412.456" transform="matrix(-0.9761 -0.2172 0.2172 -0.9761 264.6766 879.0076)" fill="#FCFCFC" width="61.612" height="25.005"/>
			<path fill="#3F6B91" d="M151.846,432.698c0.886-0.283,1.831-0.326,2.739-0.124l51.44,11.448l5.938-26.682l-60.017-13.356
				l-0.004-0.014c0.081-0.024,0.063-0.021-0.032,0.005l-0.089-0.02l-0.011,0.048c-3.044,0.864-44.454,13.028-69.545,20.759
				l14.183,25.641L151.846,432.698z"/>
		</g>
		<path fill="#3F6B91" d="M232.263,524.917c0,0-61.923,9.541-63.364,9.2l-49.906-11.808c0.903-11.129-0.011-24.964-3.002-39.641
			c-2.994-14.694-7.571-27.798-12.764-37.69l0.796-0.586l-21.626-19.77c-0.721,0.52-1.429,1.028-2.116,1.525
			c-9.776,7.059-13.923,31.64-7.078,65.236c5.261,25.821,15.413,46.716,25.195,53.92l-0.049,0.208l0.48,0.114
			c2.799,1.947,8.879,3.326,9.074,3.271l66.829,14.686c1.452,0.343,2.981,0.061,4.214-0.78l57.46-9.83L232.263,524.917z"/>
		<g>
			
				<ellipse transform="matrix(0.9799 -0.1996 0.1996 0.9799 -94.5628 31.0792)" fill="#EEB87A" cx="106.86" cy="484.538" rx="25.552" ry="24.486"/>
			<path fill="#333333" d="M104.187,514.534c-0.449,0.092-0.905,0.17-1.358,0.254c-1.21,0.259-2.425,0.524-3.65,0.766
				c-1.287,0.271-2.574,0.514-3.854,0.763c-0.385,0.084-0.77,0.175-1.155,0.253c-2.167,0.441-4.24,0.644-6.218,0.64
				c-10.814,0.76-20.356-2.787-24.827-21.581c-0.005-0.02-0.01-0.039-0.015-0.059c-0.112-0.44-0.22-0.898-0.322-1.356
				c-0.012-0.055-0.023-0.106-0.036-0.162c-0.033-0.151-0.069-0.306-0.1-0.456c-0.007-0.032-0.014-0.07-0.021-0.104
				c-0.007-0.034-0.015-0.069-0.022-0.104c-0.008-0.041-0.013-0.082-0.021-0.123c-0.083-0.426-0.165-0.869-0.232-1.276
				c-3.784-20.918,4.98-27.668,16.454-31.019c0.586-0.196,1.188-0.378,1.806-0.544c0.64-0.25,1.277-0.573,1.969-0.716
				c0.016-0.003,0.032-0.006,0.047-0.01c1.639-0.334,3.289-0.715,4.953-1.043c1.66-0.351,3.327-0.645,4.966-0.979
				c0.016-0.003,0.032-0.007,0.048-0.01c0.677-0.138,1.375-0.092,2.048-0.108c0.887-0.123,1.776-0.209,2.662-0.259
				c9.596-0.731,24.689,1.959,22.361,11.435c-0.104,0.426-0.092,0.86,0.002,1.319c1.08,2.746,3.087,5.276,3.915,8.382
				c0.039,0.144,0.076,0.286,0.113,0.433c0.058,0.229,0.105,0.464,0.161,0.694c0.003,0.01,0.007,0.02,0.01,0.028
				c0.139,0.446,0.221,0.91,0.312,1.374c0.097,0.463,0.203,0.922,0.25,1.388c0.001,0.011,0.001,0.021,0.002,0.03
				c0.039,0.233,0.087,0.47,0.124,0.702c0.022,0.147,0.044,0.295,0.065,0.441c0.453,3.182-0.405,6.295-0.324,9.245
				c0.093,0.459,0.252,0.863,0.515,1.216c5.126,6.843-4.117,14.039-12.619,17.775C109.715,513.002,107.002,513.961,104.187,514.534z
				"/>
			<path fill="#292929" d="M124.302,492.773c-0.052-1.913,0.286-3.896,0.409-5.921c-6.56,14.384-26.644,25.264-51.261,27.097
				c4.234,2.966,9.215,3.631,14.502,3.259c1.978,0.004,4.05-0.197,6.218-0.64c0.385-0.078,0.77-0.17,1.155-0.254
				c1.279-0.248,2.567-0.489,3.854-0.762c1.225-0.241,2.439-0.507,3.65-0.766c0.453-0.084,0.909-0.162,1.358-0.254
				c2.816-0.573,5.528-1.532,8.011-2.77c8.502-3.736,17.746-10.934,12.619-17.775C124.553,493.638,124.395,493.232,124.302,492.773z
				"/>
			<path fill="#EEB87A" d="M123.257,472.562l12.04,4.023c1.632,0.546,2.062,2.654,0.773,3.795l-9.506,8.414L123.257,472.562z"/>
		</g>
	</g>
	<g>
		<g>
			<path fill="#303030" d="M773.333,475.623c3.739-23.211,1.389-44.309-5.197-56.043l-4.428,0.072
				c6.238,11.88,8.4,32.518,4.749,55.186s-12.185,41.582-21.838,50.903l4.181,1.458
				C760.737,518.127,769.595,498.835,773.333,475.623z"/>
		</g>
		<polygon fill="#CE3D28" points="687.499,500.202 699.559,425.334 752.649,425.867 738.204,515.545 		"/>
		<g>
			<g>
				<g>
					<g>
						<path fill="#EEB87A" d="M579.31,502.5l-12.356-3.983c-0.818-0.264-1.229-1.284-0.888-2.337l0.184-0.571
							c0.34-1.054,1.377-1.979,2.195-1.717l12.146,3.915l0.235-0.729l-15.275-4.924c-1.138-0.367-1.755-1.436-1.416-2.486
							l0.186-0.572c0.339-1.053,1.506-1.689,2.644-1.322l15.275,4.924l0.313-0.975l-17.336-5.589
							c-1.138-0.366-1.893-1.456-1.553-2.509l0.185-0.572c0.34-1.052,1.644-1.667,2.781-1.301l17.335,5.589l0.314-0.974
							l-15.275-4.925c-1.139-0.366-1.768-1.396-1.429-2.447l0.185-0.572c0.339-1.053,1.52-1.729,2.656-1.361l16.607,5.354
							l1.109,0.358l6.021,1.939l-5.402-6.451c-0.592-0.715-0.327-1.804,0.603-2.466l0.5-0.346c0.929-0.662,2.158-0.612,2.752,0.103
							l9.217,11.136c0.172,0.208,5.909,2.246,5.909,2.246c0.753,0.242,1.184,1.037,0.946,1.77l-5.478,16.992
							c-0.235,0.73-1.041,1.1-1.793,0.856C601.407,508.551,579.477,502.823,579.31,502.5z"/>
					</g>
					<g>
						<path fill="#EEB87A" d="M629.062,516.254c1.345,0.435,2.816-0.404,3.291-1.872l3.939-12.223
							c0.473-1.468-0.232-3.009-1.578-3.442l-29.942-9.651c-1.346-0.435-2.817,0.404-3.291,1.872l-3.939,12.223
							c-0.474,1.468,0.232,3.009,1.577,3.441L629.062,516.254z"/>
					</g>
				</g>
			</g>
			
				<rect x="605.763" y="498.82" transform="matrix(0.9549 0.2969 -0.2969 0.9549 179.9036 -165.642)" fill="#FEFEFE" width="59.003" height="21.244"/>
			<path fill="#FF5842" d="M741.377,506.247l-75.54,0.674c-0.533,0.005-1.062-0.073-1.572-0.23l-51.815-16.108l-6.862,22.075
				l54.389,17.183c0.517,0.163,1.055,0.243,1.596,0.238l77.71-0.404L741.377,506.247z"/>
		</g>
		<g>
			<g>
				<g>
					<path fill="#EEB87A" d="M592.572,417.052l-12.778,2.305c-0.846,0.151-1.388,1.108-1.19,2.197l0.105,0.591
						c0.196,1.09,1.102,2.146,1.947,1.993l12.559-2.264l0.137,0.755l-15.796,2.848c-1.177,0.213-1.931,1.188-1.733,2.275
						l0.105,0.592c0.196,1.088,1.27,1.876,2.445,1.663l15.795-2.847l0.182,1.007l-17.926,3.231c-1.177,0.212-2.068,1.19-1.873,2.279
						l0.106,0.591c0.196,1.089,1.407,1.872,2.583,1.659l17.926-3.229l0.182,1.007l-15.795,2.847
						c-1.177,0.212-1.938,1.147-1.741,2.236l0.106,0.591c0.195,1.089,1.274,1.916,2.451,1.704l17.172-3.096l1.148-0.207l6.227-1.122
						l-6.213,5.675c-0.682,0.63-0.564,1.745,0.268,2.522l0.449,0.41c0.833,0.779,2.061,0.895,2.741,0.266l10.616-9.81
						c0.199-0.184,6.157-1.44,6.157-1.44c0.776-0.141,1.31-0.87,1.174-1.627l-3.167-17.569c-0.138-0.757-0.887-1.229-1.664-1.089
						C615.277,413.996,592.78,416.754,592.572,417.052z"/>
				</g>
				<g>
					<path fill="#EEB87A" d="M643.712,410.042c1.39-0.251,2.738,0.776,3.012,2.293l2.278,12.639c0.273,1.519-0.632,2.95-2.021,3.201
						l-30.962,5.581c-1.391,0.251-2.738-0.775-3.014-2.294l-2.276-12.639c-0.274-1.518,0.631-2.95,2.021-3.201L643.712,410.042z"/>
				</g>
			</g>
		</g>
		
			<rect x="619.632" y="406.86" transform="matrix(0.9859 -0.1671 0.1671 0.9859 -60.6697 114.3525)" fill="#FEFEFE" width="59.065" height="21.648"/>
		<path fill="#FF5842" d="M757.084,412.282l-78.074-11.551c-0.535-0.079-1.08-0.073-1.612,0.017l-57.432,9.734l3.863,22.792
			l52.986-8.98c0.526-0.09,1.064-0.097,1.595-0.02l75.369,10.887L757.084,412.282z"/>
		
			<ellipse transform="matrix(0.9873 0.159 -0.159 0.9873 84.379 -112.7585)" fill="#FC5B49" cx="746.916" cy="470.979" rx="21.833" ry="59.398"/>
		<g>
			<path fill="#FC5B49" d="M736.721,510.082l-7.477-13.511c1.648-2.118,2.848-4.805,3.335-7.827
				c1.29-8.01-2.896-15.346-9.347-16.385c-6.453-1.04-12.729,4.61-14.021,12.621c-1.291,8.01-0.578,12.693,12.014,23.354
				c2.412,2.043,0.847,5.179,0.847,5.179L736.721,510.082z"/>
			<path fill="#FC5B49" d="M749.663,429.737l-11.341,10.479c0.899,2.529,1.193,5.455,0.708,8.479
				c-1.29,8.011-7.567,13.661-14.021,12.622s-10.638-8.375-9.347-16.387c1.29-8.01,3.438-12.232,18.739-18.399
				c2.933-1.184,2.43-4.65,2.43-4.65L749.663,429.737z"/>
		</g>
		<g>
			
				<ellipse transform="matrix(0.9873 0.159 -0.159 0.9873 83.842 -110.8381)" fill="#EEB87A" cx="734.617" cy="468.562" rx="25.552" ry="24.486"/>
			<path fill="#EEB87A" d="M717.608,458.085l-11.863,4.519c-1.608,0.612-1.95,2.736-0.616,3.823l9.845,8.016L717.608,458.085z"/>
			<path fill="#333333" d="M715.449,465.578c0.513-3.982,1.476-8.846,5.61-10.718c-0.795-13.884,20.49-16.316,35.683-14.357
				c12.876,1.66,21.146,9.411,24.22,19.58c1.771-0.655,3.68-0.918,5.634-0.666c7.089,0.914,10.28,8.014,10.995,15.93
				c0.921,10.202-15.039,26.772-21.036,25.518c-1.675-0.353,8.132-12.668,6.359-12.896c-1.735-0.224-3.339-0.824-4.759-1.714
				c-5.38,9.812-15.662,15.79-29.123,14.055C730.652,497.938,712.51,488.377,715.449,465.578z"/>
			<g>
				<path fill="#2B2B2B" d="M720.061,461.86c-0.795-13.884,20.49-16.316,35.683-14.357c12.876,1.66,21.146,9.411,24.22,19.579
					c1.771-0.654,3.68-0.917,5.634-0.665c6.861,0.885,10.064,7.568,10.911,15.176c0.836-2.199,1.256-4.334,1.084-6.246
					c-0.715-7.916-3.906-15.016-10.995-15.93c-1.954-0.252-3.864,0.011-5.634,0.665c-3.072-10.168-11.344-17.919-24.22-19.579
					c-15.191-1.959-36.478,0.475-35.683,14.357c-4.136,1.872-5.099,6.734-5.61,10.718c-0.131,1.012-0.205,1.987-0.255,2.947
					C715.934,465.736,717.277,463.12,720.061,461.86z"/>
				<path fill="#2B2B2B" d="M781.914,494.967c-0.76-0.098-1.49-0.279-2.195-0.516c-2.003,3.124-3.994,6.238-3.164,6.412
					c0.775,0.162,1.721,0.021,2.771-0.36C781.137,497.667,782.719,495.071,781.914,494.967z"/>
			</g>
		</g>
	</g>
	<g>
		<g>
			<path fill="#303030" d="M230.211,725.325c19.803,12.672,40.092,18.915,53.479,17.547l1.697-4.09
				c-13.382,0.991-33.173-5.243-52.513-17.618c-19.34-12.374-33.293-27.733-38-40.299l-3.002,3.254
				C196.238,696.848,210.408,712.653,230.211,725.325z"/>
		</g>
		<polygon fill="#EBA400" points="241.841,636.801 305.717,677.674 284.089,726.162 207.578,677.205 		"/>
		<g>
			<g>
				<g>
					<g>
						<path fill="#EEB87A" d="M277.941,554.944l10.989-6.914c0.728-0.458,1.773-0.116,2.362,0.818l0.32,0.509
							c0.589,0.938,0.634,2.327-0.094,2.785l-10.801,6.796l0.409,0.649l13.584-8.548c1.012-0.637,2.226-0.425,2.815,0.512
							l0.32,0.508c0.589,0.938,0.329,2.24-0.684,2.877l-13.584,8.549l0.545,0.865l15.417-9.7c1.012-0.637,2.332-0.516,2.92,0.422
							l0.32,0.508c0.589,0.937,0.223,2.331-0.789,2.968l-15.417,9.7l0.545,0.866l13.584-8.548c1.012-0.638,2.205-0.459,2.793,0.477
							l0.32,0.509c0.589,0.938,0.351,2.274-0.662,2.911l-14.769,9.293l-0.988,0.621l-5.354,3.37l8.415,0.001
							c0.928,0.006,1.593,0.908,1.504,2.045l-0.056,0.605c-0.089,1.137-0.917,2.049-1.846,2.043l-14.454-0.086
							c-0.27,0-5.518,3.089-5.518,3.089c-0.669,0.421-1.555,0.239-1.964-0.41l-9.508-15.11c-0.409-0.649-0.174-1.505,0.495-1.926
							C259.113,567.998,277.586,554.865,277.941,554.944z"/>
					</g>
					<g>
						<path fill="#EEB87A" d="M235.449,584.25c-1.196,0.753-1.499,2.42-0.678,3.726l6.839,10.869
							c0.821,1.306,2.456,1.753,3.652,1.001l26.628-16.755c1.195-0.753,1.499-2.42,0.678-3.726l-6.839-10.869
							c-0.821-1.305-2.457-1.753-3.652-1.001L235.449,584.25z"/>
					</g>
				</g>
			</g>
			
				<rect x="206.716" y="583.484" transform="matrix(-0.8408 0.5414 -0.5414 -0.8408 756.8056 965.4817)" fill="#FFFEFF" width="59.422" height="21.093"/>
			<path fill="#FFC700" d="M265.797,588.002l-12.516-19.438l-46.986,29.453c-1.275,0.8-2.132,2.121-2.34,3.611l-10.093,72.05
				l22.372,8.82l9.07-66.305c0.202-1.477,1.039-2.789,2.291-3.596L265.797,588.002z"/>
		</g>
		<g>
			<g>
				<g>
					<g>
						<path fill="#EEB87A" d="M374.95,611.807l2.975-12.639c0.197-0.837-0.466-1.715-1.542-1.968l-0.584-0.138
							c-1.077-0.255-2.407,0.154-2.604,0.991l-2.924,12.422l-0.747-0.176l3.677-15.623c0.273-1.164-0.32-2.243-1.397-2.497
							l-0.585-0.138c-1.076-0.253-2.226,0.416-2.5,1.58l-3.677,15.623l-0.996-0.234l4.173-17.729
							c0.274-1.163-0.269-2.372-1.346-2.626l-0.585-0.139c-1.076-0.253-2.277,0.546-2.551,1.709l-4.173,17.729l-0.996-0.234
							l3.677-15.622c0.273-1.164-0.281-2.233-1.358-2.487l-0.584-0.139c-1.077-0.253-2.265,0.407-2.539,1.571l-3.998,16.984
							l-0.267,1.136l-1.45,6.158l-2.73-7.958c-0.307-0.877-1.376-1.213-2.422-0.761l-0.556,0.25
							c-1.046,0.452-1.64,1.532-1.333,2.408l4.771,13.646c0.089,0.255-1.129,6.221-1.129,6.221
							c-0.182,0.771,0.276,1.549,1.024,1.726l17.378,4.091c0.748,0.176,1.479-0.323,1.661-1.094
							C368.712,633.852,375.139,612.116,374.95,611.807z"/>
					</g>
					<g>
						<path fill="#EEB87A" d="M361.018,661.509c-0.323,1.375-1.803,2.203-3.304,1.851l-12.5-2.942
							c-1.5-0.354-2.455-1.754-2.131-3.129l7.208-30.624c0.324-1.375,1.803-2.203,3.304-1.851l12.5,2.942
							c1.501,0.354,2.455,1.754,2.132,3.129L361.018,661.509z"/>
					</g>
				</g>
			</g>
			
				<rect x="321.966" y="653.064" transform="matrix(-0.2393 0.9709 -0.9709 -0.2393 1079.7297 480.8476)" fill="#FFFEFF" width="59.069" height="20.654"/>
		</g>
		<path fill="#FFC700" d="M347.622,634.02l-11.147,45.236c-0.325,1.32-1.146,2.466-2.293,3.198l-59.07,37.72l16.954,17.614
			l62.088-39.746c1.144-0.73,1.963-1.876,2.288-3.194l13.626-55.297L347.622,634.02z"/>
		
			<ellipse transform="matrix(-0.539 0.8423 -0.8423 -0.539 969.2243 875.457)" fill="#FFC700" cx="245.044" cy="702.956" rx="21.833" ry="59.397"/>
		<g>
			<path fill="#FFC700" d="M213.18,678.02l15.371-1.479c1.287,2.355,3.272,4.524,5.852,6.175c6.834,4.373,15.229,3.455,18.752-2.05
				s0.838-13.513-5.996-17.886s-11.415-5.584-26.207,1.722c-2.834,1.399-5.087-1.285-5.087-1.285L213.18,678.02z"/>
			<path fill="#FFC700" d="M281.729,721.882l-5.099-14.575c-2.678-0.182-5.479-1.075-8.058-2.727
				c-6.834-4.373-9.519-12.381-5.996-17.886c3.523-5.505,11.918-6.423,18.752-2.05c6.834,4.372,9.854,8.023,9.418,24.517
				c-0.083,3.16,3.298,4.081,3.298,4.081L281.729,721.882z"/>
		</g>
		<g>
			
				<ellipse transform="matrix(-0.539 0.8423 -0.8423 -0.539 971.468 853.5775)" fill="#EEB87A" cx="252.151" cy="692.633" rx="25.551" ry="24.486"/>
			<path fill="#EEB87A" d="M268.487,681.19l0.579-12.682c0.079-1.72-1.733-2.879-3.262-2.088l-11.272,5.84L268.487,681.19z"/>
			<path fill="#754C24" d="M264.342,673.559c-3.382-2.164-7.728-4.55-11.819-2.583c-10.13-9.524-25.666,5.228-33.922,18.13
				c-6.997,10.936-6.369,22.253-0.548,31.139c-1.639,0.936-3.066,2.23-4.128,3.891c-3.853,6.021-0.461,13.026,5.148,18.659
				c7.228,7.258,30.179,5.667,33.068,0.264c0.807-1.509-14.932-1.901-13.969-3.406c0.943-1.476,1.512-3.091,1.743-4.749
				c10.974,2.178,22.162-1.863,29.477-13.297C279.38,705.995,283.705,685.948,264.342,673.559z"/>
			<g>
				<path fill="#66421F" d="M238.172,739.649c0.854-1.337,1.387-2.789,1.654-4.284c-2.612,0.214-5.267,0.06-7.911-0.465
					c-0.231,1.658-0.8,3.273-1.743,4.749c-0.963,1.505,14.775,1.897,13.969,3.406c-1.24,2.32-6.183,3.936-11.989,4.45
					c8.689,0.783,18.197-1.099,19.989-4.45C252.947,741.548,237.208,741.154,238.172,739.649z"/>
				<path fill="#66421F" d="M264.342,673.559c-3.382-2.164-7.728-4.55-11.819-2.583c-3.43-3.225-7.479-3.659-11.656-2.334
					c1.275,0.493,2.502,1.249,3.656,2.334c4.091-1.967,8.438,0.419,11.819,2.583c19.363,12.391,15.038,32.438,5.05,48.047
					c-5.167,8.073-12.268,12.444-19.858,13.56c10.445,1.486,20.902-2.689,27.858-13.56
					C279.38,705.995,283.705,685.948,264.342,673.559z"/>
			</g>
		</g>
	</g>
	<g>
		<g>
			<g>
				<g>
					<path fill="#EEB87A" d="M535.3,564.028l-13.54-5.646c-0.896-0.374-1.998,0.203-2.479,1.356l-0.262,0.627
						c-0.48,1.153-0.271,2.711,0.628,3.085l13.308,5.547l-0.334,0.801l-16.737-6.978c-1.247-0.521-2.561-0.057-3.041,1.098
						l-0.261,0.626c-0.481,1.153,0.054,2.559,1.3,3.077l16.738,6.978l-0.445,1.067l-18.995-7.919
						c-1.246-0.52-2.693-0.137-3.175,1.018l-0.261,0.627c-0.481,1.152,0.188,2.639,1.435,3.157l18.995,7.918l-0.445,1.067
						l-16.736-6.978c-1.247-0.521-2.542-0.099-3.023,1.056l-0.261,0.626c-0.479,1.153,0.036,2.601,1.283,3.12l18.196,7.585
						l1.217,0.508l6.598,2.75l-9.375,1.579c-1.032,0.18-1.604,1.311-1.292,2.56l0.176,0.665c0.312,1.25,1.406,2.11,2.439,1.931
						l16.088-2.805c0.302-0.052,6.727,2.405,6.727,2.405c0.824,0.344,1.778-0.023,2.112-0.824l7.761-18.619
						c0.334-0.801-0.088-1.709-0.911-2.052C558.725,575.043,535.681,563.873,535.3,564.028z"/>
				</g>
				<g>
					<path fill="#EEB87A" d="M588.138,588.715c1.474,0.614,2.124,2.415,1.453,4.023l-5.582,13.393
						c-0.671,1.607-2.408,2.413-3.881,1.799l-32.81-13.676c-1.475-0.614-2.124-2.416-1.454-4.022l5.583-13.394
						c0.67-1.607,2.408-2.414,3.881-1.8L588.138,588.715z"/>
				</g>
			</g>
		</g>
		<g>
			<g>
				<g>
					<path fill="#EEB87A" d="M454.388,591.026l-2.379-14.476c-0.158-0.959,0.657-1.896,1.891-2.101l0.67-0.109
						c1.231-0.203,2.7,0.36,2.857,1.319l2.339,14.227l0.855-0.141l-2.942-17.895c-0.219-1.333,0.534-2.504,1.769-2.707l0.67-0.109
						c1.231-0.202,2.477,0.641,2.696,1.974l2.94,17.895l1.142-0.188l-3.34-20.307c-0.219-1.333,0.486-2.654,1.721-2.856l0.67-0.109
						c1.231-0.203,2.523,0.79,2.743,2.123l3.339,20.307l1.141-0.188l-2.94-17.894c-0.221-1.333,0.487-2.497,1.722-2.7l0.67-0.108
						c1.231-0.203,2.521,0.633,2.741,1.966l3.197,19.453l0.214,1.301l1.159,7.054l3.692-8.761c0.412-0.964,1.644-1.261,2.788-0.669
						l0.605,0.323c1.146,0.592,1.73,1.854,1.317,2.817l-6.428,15.014c-0.12,0.279,0.794,7.1,0.794,7.1
						c0.145,0.881-0.432,1.725-1.288,1.865l-19.904,3.271c-0.855,0.142-1.643-0.479-1.788-1.359
						C459.721,616.356,454.15,591.361,454.388,591.026z"/>
				</g>
				<g>
					<path fill="#EEB87A" d="M466.264,648.125c0.26,1.575,1.862,2.623,3.581,2.34l14.317-2.354c1.719-0.282,2.902-1.788,2.644-3.363
						l-5.766-35.075c-0.259-1.574-1.862-2.622-3.581-2.34l-14.317,2.354c-1.719,0.282-2.901,1.788-2.644,3.362L466.264,648.125z"/>
				</g>
			</g>
		</g>
		<polygon fill="#3D5C61" points="522.111,680.664 592.145,639.481 627.967,683.667 544.08,732.995 		"/>
		<g>
			<g>
				
					<rect x="545.532" y="584.311" transform="matrix(0.9474 0.3201 -0.3201 0.9474 222.0446 -157.0792)" fill="#FEFEFE" width="86.604" height="25.151"/>
				<g>
					<path fill="#5F787D" d="M645.014,680.149l-8.332-78.318c-0.212-1.991-1.562-3.677-3.46-4.318l-78.933-26.671l-9.374,27.743
						l60.497,20.441c1.91,0.646,3.266,2.351,3.464,4.356l6.238,63.257L645.014,680.149z"/>
				</g>
				
					<rect x="432.844" y="639.218" transform="matrix(0.1405 0.9901 -0.9901 0.1405 1054.5159 88.7421)" fill="#FFFEFF" width="86.602" height="25.035"/>
				<g>
					<path fill="#5F787D" d="M494.331,681.448l-10.294-72.549l-28.993,4.113l10.656,84.189c0.188,1.488,0.989,2.83,2.212,3.7
						l63.053,44.94l22.129-25.392l-56.504-35.344C495.359,684.257,494.541,682.93,494.331,681.448z"/>
				</g>
			</g>
		</g>
		
			<ellipse transform="matrix(0.5069 0.862 -0.862 0.5069 901.1617 -155.4484)" fill="#5F787D" cx="586.454" cy="709.954" rx="23.391" ry="66.514"/>
		<g>
			<path fill="#303030" d="M600.483,733.801c21.712-12.769,38.105-28.122,44.157-40.103l-2.633-2.84
				c-6.377,11.85-22.494,26.778-43.698,39.247c-21.203,12.47-42.085,19.297-55.541,19.108l1.202,3.681
				C557.384,753.432,578.771,746.568,600.483,733.801z"/>
		</g>
		
			<ellipse transform="matrix(0.5069 0.862 -0.862 0.5069 887.8341 -155.2598)" fill="#EEB87A" cx="579.626" cy="698.405" rx="27.374" ry="26.235"/>
		<path fill="#333333" d="M554.938,723.615c0.248,0.424,0.515,0.843,0.771,1.263c0.661,1.149,1.318,2.31,2.007,3.456
			c0.707,1.219,1.441,2.415,2.165,3.61c0.209,0.365,0.411,0.738,0.626,1.102c1.208,2.04,2.504,3.729,3.981,5.271
			c7.247,8.963,17.988,13.61,38.708,0.877c0.021-0.014,0.044-0.026,0.063-0.039c0.485-0.298,1.037-0.526,1.527-0.852
			c0.058-0.038,0.144-0.03,0.202-0.068c0.161-0.107,0.342-0.192,0.5-0.302c0.035-0.023,0.081-0.041,0.116-0.064
			c0.034-0.023,0.076-0.043,0.111-0.067c0.043-0.028,0.085-0.058,0.128-0.088c0.446-0.312,0.906-0.638,1.321-0.946
			c21.529-15.845,18.996-28.289,11.854-38.71c-0.35-0.562-0.723-1.124-1.121-1.681c-0.354-0.647-0.649-1.356-1.131-1.941
			c-0.012-0.014-0.022-0.025-0.033-0.04c-1.142-1.384-2.253-2.815-3.417-4.213c-1.146-1.412-2.335-2.781-3.472-4.169
			c-0.011-0.014-0.021-0.025-0.031-0.04c-0.471-0.572-1.092-1-1.646-1.467c-0.657-0.701-1.341-1.372-2.048-2.01
			c-7.62-7.018-21.723-15.209-26.577-6.066c-0.225,0.415-0.549,0.753-0.956,1.05c-2.854,1.41-6.277,1.937-9.215,3.729
			c-0.136,0.083-0.271,0.167-0.407,0.252c-0.215,0.134-0.426,0.281-0.64,0.418c-0.01,0.006-0.021,0.011-0.03,0.017
			c-0.438,0.24-0.847,0.538-1.263,0.827c-0.42,0.283-0.846,0.559-1.229,0.88c-0.009,0.008-0.018,0.016-0.025,0.021
			c-0.205,0.15-0.418,0.294-0.62,0.446c-0.129,0.096-0.256,0.191-0.383,0.289c-2.734,2.093-4.466,5.101-6.817,7.257
			c-0.427,0.273-0.86,0.456-1.33,0.516c-9.069,1.116-8.114,13.546-5.158,23.086C552.229,718.097,553.376,720.96,554.938,723.615z"/>
		<path fill="#EEB87A" d="M577.44,676.749l-11.832-6.706c-1.604-0.909-3.592,0.259-3.576,2.104l0.107,13.6L577.44,676.749z"/>
		<path fill="#2B2B2B" d="M610.168,729.768c-0.415,0.309-0.875,0.636-1.321,0.946c-0.043,0.03-0.085,0.06-0.128,0.088
			c-0.035,0.024-0.077,0.044-0.111,0.067c-0.035,0.023-0.081,0.041-0.116,0.064c-0.158,0.108-0.339,0.193-0.5,0.302
			c-0.06,0.039-0.146,0.03-0.202,0.068c-0.49,0.324-1.042,0.554-1.527,0.852c-0.021,0.013-0.043,0.025-0.063,0.039
			c-20.72,12.733-31.461,8.086-38.708-0.877c-1.479-1.544-2.773-3.231-3.981-5.271c-0.215-0.362-0.417-0.735-0.626-1.102
			c-0.724-1.195-1.458-2.393-2.165-3.61c-0.688-1.146-1.346-2.307-2.007-3.456c-0.258-0.421-0.523-0.839-0.771-1.263
			c-1.562-2.655-2.707-5.52-3.466-8.397c-1.438-4.64-2.396-9.96-1.966-14.332c-4.511,3.964-3.431,13.598-1.034,21.332
			c0.759,2.88,1.904,5.742,3.466,8.397c0.249,0.424,0.515,0.842,0.771,1.263c0.661,1.149,1.318,2.311,2.007,3.456
			c0.707,1.219,1.441,2.415,2.165,3.61c0.209,0.366,0.411,0.739,0.626,1.102c1.208,2.04,2.504,3.729,3.981,5.271
			c7.247,8.963,17.988,13.61,38.708,0.877c0.021-0.014,0.044-0.026,0.063-0.039c0.485-0.298,1.037-0.526,1.527-0.852
			c0.058-0.038,0.144-0.029,0.202-0.068c0.161-0.107,0.342-0.192,0.5-0.302c0.035-0.023,0.081-0.041,0.116-0.064
			c0.034-0.023,0.076-0.043,0.111-0.067c0.043-0.028,0.085-0.058,0.128-0.088c0.446-0.312,0.906-0.639,1.321-0.946
			c10.289-7.571,15.074-14.366,16.494-20.536C621.018,720.456,616.709,724.954,610.168,729.768z"/>
	</g>
	<g>
		<g>
			<g>
				<path fill="#EEB87A" d="M386.94,223.42l8.224,10.948c0.545,0.725,1.704,0.781,2.636,0.081l0.506-0.381
					c0.934-0.7,1.5-2.053,0.955-2.778l-8.083-10.76l0.647-0.486l10.166,13.533c0.757,1.008,2.032,1.256,2.966,0.556l0.506-0.381
					c0.934-0.7,1.167-2.083,0.41-3.091l-10.166-13.533l0.863-0.648l11.537,15.358c0.757,1.008,2.103,1.385,3.035,0.685l0.507-0.381
					c0.933-0.7,1.097-2.212,0.34-3.22l-11.537-15.358l0.862-0.648l10.166,13.533c0.757,1.008,1.998,1.282,2.932,0.581l0.507-0.38
					c0.932-0.7,1.201-2.109,0.443-3.117L404.31,208.82l-0.738-0.984l-4.007-5.334l8.289,3.165c0.918,0.344,1.912-0.295,2.252-1.448
					l0.173-0.618c0.34-1.154-0.134-2.363-1.05-2.708l-14.271-5.356c-0.267-0.1-4.274-5.118-4.274-5.118
					c-0.501-0.667-1.44-0.822-2.089-0.335l-15.054,11.308c-0.648,0.487-0.738,1.417-0.237,2.083
					C373.305,203.475,386.562,223.364,386.94,223.42z"/>
			</g>
			<g>
				<path fill="#EEB87A" d="M356.108,178.558c-0.896-1.191-0.566-2.949,0.733-3.925l10.828-8.134c1.3-0.977,3.08-0.803,3.975,0.388
					l19.927,26.527c0.895,1.191,0.565,2.949-0.734,3.925l-10.829,8.134c-1.3,0.977-3.079,0.802-3.974-0.389L356.108,178.558z"/>
			</g>
		</g>
	</g>
	<polygon fill="#424242" points="457.736,143.816 381.903,143.816 373.986,91.316 464.819,91.316 	"/>
	<g>
		<g>
			<g>
				<g>
					<path fill="#EEB87A" d="M481.592,254.596l-1.252,13.635c-0.082,0.903-1.039,1.56-2.2,1.453l-0.631-0.058
						c-1.161-0.106-2.354-0.96-2.271-1.863l1.229-13.401l-0.806-0.074l-1.547,16.855c-0.116,1.255-1.071,2.137-2.232,2.03
						l-0.631-0.058c-1.162-0.107-2.087-1.161-1.972-2.416l1.547-16.855l-1.074-0.099l-1.756,19.128
						c-0.115,1.256-1.063,2.283-2.225,2.176l-0.632-0.058c-1.161-0.107-2.095-1.307-1.979-2.562l1.756-19.128l-1.075-0.099
						l-1.547,16.855c-0.115,1.255-1.028,2.141-2.189,2.034l-0.631-0.058c-1.162-0.107-2.13-1.165-2.015-2.42l1.682-18.325
						l0.113-1.225l0.609-6.644l-5.395,7.046c-0.6,0.774-1.782,0.752-2.677-0.051l-0.472-0.435c-0.896-0.803-1.127-2.081-0.528-2.855
						l9.335-12.051c0.174-0.226,0.95-6.6,0.95-6.6c0.076-0.83,0.795-1.457,1.603-1.382l18.749,1.721
						c0.808,0.074,1.371,0.818,1.295,1.648C482.726,230.461,481.886,254.35,481.592,254.596z"/>
				</g>
				<g>
					<path fill="#EEB87A" d="M484.28,200.227c0.136-1.483-1.066-2.807-2.687-2.955l-13.485-1.238
						c-1.619-0.149-3.042,0.933-3.18,2.417l-3.032,33.039c-0.137,1.483,1.065,2.807,2.687,2.955l13.486,1.238
						c1.618,0.148,3.042-0.934,3.178-2.417L484.28,200.227z"/>
				</g>
			</g>
		</g>
		
			<rect x="441.041" y="186.958" transform="matrix(0.1133 -0.9936 0.9936 0.1133 224.4778 649.8932)" fill="#FCFCFC" width="70.615" height="24.445"/>
		<path fill="#4D4D4D" d="M481.808,88.613l-28.286,0.98l13.679,73.813c0.094,0.504,0.11,1.019,0.054,1.528l-7.511,65.871
			l27.157,3.096l8.137-69.055c0.06-0.501,0.045-1.007-0.043-1.504L481.808,88.613z"/>
	</g>
	
		<rect x="326.582" y="162.632" transform="matrix(-0.6663 -0.7457 0.7457 -0.6663 473.3207 561.6914)" fill="#FCFCFC" width="71.521" height="24.611"/>
	<path fill="#4D4D4D" d="M394.601,190.949l-32.812-36.724c-1.379-1.543-1.709-3.759-0.84-5.638l24.787-53.583l-27.145-8.815
		l-29.388,68.076c-0.801,1.856-0.452,4.008,0.895,5.516l44.121,49.38L394.601,190.949z"/>
	<ellipse fill="#4D4D4D" cx="419.819" cy="89.816" rx="62.083" ry="21.833"/>
	<g>
		<path fill="#303030" d="M419.819,63.982c-23.512,0-43.966,4.597-54.503,11.373l0.774,3.531
			c10.737-6.517,30.77-10.904,53.729-10.904s42.99,4.387,53.729,10.904l0.774-3.531C463.785,68.579,443.33,63.982,419.819,63.982z"
			/>
	</g>
	<ellipse fill="#EEB87A" cx="419.842" cy="102.345" rx="24.486" ry="25.551"/>
	<path fill="#EEB87A" d="M411.367,120.788l6.347,10.994c0.86,1.49,3.012,1.49,3.872,0l6.348-10.994H411.367L411.367,120.788z"/>
	<path fill="#A28156" d="M448.688,93.721c0-0.458-0.016-0.92-0.022-1.381c0.012-1.238,0.03-2.481,0.021-3.729
		c0.01-1.315-0.012-2.625-0.022-3.928c0.006-0.394,0.018-0.79,0.018-1.182c0-2.212-0.216-4.283-0.613-6.221
		c-1.415-10.748-6.796-19.39-26.104-20.018c-0.02-0.001-0.041-0.002-0.06-0.003c-0.454-0.022-0.926-0.036-1.395-0.044
		c-0.056-0.001-0.11-0.001-0.167-0.002c-0.155-0.002-0.312-0.007-0.466-0.007c-0.035,0-0.072,0.001-0.107,0.001
		c-0.034,0-0.069-0.001-0.104-0.001c-0.041,0-0.083,0.003-0.124,0.003c-0.436,0.003-0.886,0.012-1.298,0.027
		c-21.252,0.468-26.117,10.403-27.109,22.314c-0.076,0.614-0.133,1.24-0.172,1.878c-0.117,0.677-0.308,1.366-0.308,2.072
		c0,0.016,0,0.032,0,0.048c0,1.673-0.044,3.366-0.033,5.062c-0.011,1.696,0.033,3.389,0.033,5.062c0,0.016,0,0.032,0,0.048
		c0,0.691,0.184,1.366,0.301,2.029c0.057,0.894,0.15,1.782,0.279,2.66c1.197,9.549,6.848,23.801,15.667,19.628
		c0.396-0.188,0.825-0.262,1.294-0.262c2.906,0.51,5.787,1.972,8.994,2.164c0.147,0.009,0.922,0.035,1.158,0.043
		c0.012,0.001,0.021,0.003,0.031,0.004c0.464,0.047,0.936,0.035,1.408,0.032c0.473,0.003,0.943,0.015,1.409-0.032
		c0.011-0.001,0.021-0.002,0.03-0.004c0.237-0.008,1.011-0.044,1.158-0.043c18.269,0.083,23.223-8.738,25.188-17.816
		C448.288,99.445,448.688,96.595,448.688,93.721z"/>
	<path fill="#A28156" d="M448.688,93.721c0-0.458-0.016-0.92-0.022-1.381c0.012-1.238,0.03-2.481,0.021-3.729
		c0.01-1.315-0.012-2.625-0.022-3.928c0.006-0.394,0.018-0.79,0.018-1.182c0-2.212-0.216-4.283-0.613-6.221
		c-1.415-10.748-6.796-19.39-26.104-20.018c-0.02-0.001-0.041-0.002-0.06-0.003c-0.454-0.022-0.926-0.036-1.395-0.044
		c-0.056-0.001-0.11-0.001-0.167-0.002c-0.155-0.002-0.312-0.007-0.466-0.007c-0.035,0-0.072,0.001-0.107,0.001
		c-0.034,0-0.069-0.001-0.104-0.001c-0.041,0-0.083,0.003-0.124,0.003c-0.436,0.003-0.886,0.012-1.298,0.027
		c-21.252,0.468-26.117,10.403-27.109,22.314c-0.076,0.614-0.133,1.24-0.172,1.878c-0.117,0.677-0.308,1.366-0.308,2.072
		c0,0.016,0,0.032,0,0.048c0,1.673-0.044,3.366-0.033,5.062c-0.011,1.696,0.033,3.389,0.033,5.062c0,0.016,0,0.032,0,0.048
		c0,0.691,0.184,1.366,0.301,2.029c0.057,0.894,0.15,1.782,0.279,2.66c1.197,9.549,6.848,23.801,15.667,19.628
		c0.396-0.188,0.825-0.262,1.294-0.262c2.906,0.51,5.787,1.972,8.994,2.164c0.147,0.009,0.922,0.035,1.158,0.043
		c0.012,0.001,0.021,0.003,0.031,0.004c0.464,0.047,0.936,0.035,1.408,0.032c0.473,0.003,0.943,0.015,1.409-0.032
		c0.011-0.001,0.021-0.002,0.03-0.004c0.237-0.008,1.011-0.044,1.158-0.043c18.269,0.083,23.223-8.738,25.188-17.816
		C448.288,99.445,448.688,96.595,448.688,93.721z"/>
	<path fill="#8F724C" d="M427.925,114.826c-16.719,0-30.271-16.045-30.271-35.838c0-6.715,1.562-12.996,4.277-18.368
		c-7.76,3.971-10.138,11.012-10.798,18.931c-0.076,0.614-0.365,1.24-0.404,1.878c-0.116,0.677-0.539,1.366-0.539,2.072
		c0,0.016,0,0.032,0,0.048c0,1.673-0.045,3.366-0.033,5.062c-0.012,1.696,0.033,3.389,0.033,5.062c0,0.016,0,0.032,0,0.048
		c0,0.691,0.416,1.366,0.533,2.029c0.058,0.894,0.267,1.782,0.396,2.66c1.198,9.549,6.905,23.801,15.726,19.628
		c0.396-0.188,0.854-0.262,1.322-0.262c2.907,0.51,5.802,1.972,9.009,2.164c0.148,0.009,0.929,0.035,1.166,0.043
		c0.011,0.001,0.024,0.003,0.035,0.004c0.464,0.047,0.938,0.035,1.41,0.032c0.473,0.003,0.944,0.015,1.409-0.032
		c0.011-0.001,0.021-0.002,0.031-0.004c0.237-0.008,1.011-0.044,1.159-0.043c14.273,0.064,20.42-5.307,23.362-11.989
		C440.747,112.271,434.589,114.826,427.925,114.826z"/>
</g>
</svg>
