<?xml version="1.0" encoding="utf-8"?>
<!-- Generator: Adobe Illustrator 16.0.0, SVG Export Plug-In . SVG Version: 6.00 Build 0)  -->
<!DOCTYPE svg PUBLIC "-//W3C//DTD SVG 1.1//EN" "http://www.w3.org/Graphics/SVG/1.1/DTD/svg11.dtd">
<svg version="1.1" xmlns="http://www.w3.org/2000/svg" xmlns:xlink="http://www.w3.org/1999/xlink" x="0px" y="0px"
	 width="1629.915px" height="1565px" viewBox="0 0 1629.915 1565" enable-background="new 0 0 1629.915 1565" xml:space="preserve">
<g id="Table_accessories">
	<g>
		<path fill="#E19425" d="M216.952,823.037h-7.796h-91.617l2.875,54.051c-1.35-0.084-2.707-0.14-4.077-0.14
			c-36.055,0-65.282,29.228-65.282,65.282c0,36.057,29.228,65.285,65.282,65.285c3.739,0,7.397-0.331,10.964-0.936l1.45,27.259
			c0,18.981,15.388,34.37,34.37,34.37h46.035h7.796h46.034c18.982,0,34.37-15.389,34.37-34.37l1.45-27.259l6.887-129.492
			l2.875-54.051H216.952z M116.337,978.261c-19.865,0-36.028-16.162-36.028-36.03c0-19.865,16.163-36.027,36.028-36.027
			c1.927,0,3.805,0.195,5.651,0.488l3.739,70.285C122.728,977.789,119.59,978.261,116.337,978.261z"/>
		<path fill="#F1B41C" d="M213.869,823.037h-4.712h-91.617l2.875,54.051c-1.35-0.084-2.707-0.14-4.077-0.14
			c-36.055,0-65.282,29.228-65.282,65.282c0,36.057,29.228,65.285,65.282,65.285c3.739,0,7.397-0.331,10.964-0.936l1.45,27.259
			c0,18.981,15.388,34.37,34.37,34.37h46.035h4.712V823.037z M116.337,978.261c-19.865,0-36.028-16.162-36.028-36.03
			c0-19.865,16.163-36.027,36.028-36.027c1.927,0,3.805,0.195,5.651,0.488l3.739,70.285
			C122.728,977.789,119.59,978.261,116.337,978.261z"/>
	</g>
	<g>
		<path fill="#C02426" d="M236.919,1200.663l-129.882,147.083c-5.292,5.992-4.724,15.141,1.269,20.432l7.033,6.211
			c5.992,5.292,15.141,4.724,20.433-1.269l129.882-147.083L236.919,1200.663z"/>
		<polygon fill="#F9C682" points="277.809,1192.35 268.97,1184.544 236.919,1200.663 265.687,1226.065 		"/>
		<polygon fill="#414042" points="283.186,1177.394 268.874,1184.591 277.773,1192.449 		"/>
		<path fill="#A91F23" d="M251.35,1213.405l-139.464,157.934l3.454,3.05c5.992,5.292,15.141,4.724,20.433-1.269l129.882-147.083
			L251.35,1213.405z"/>
		
			<rect x="111.687" y="1346.297" transform="matrix(0.7496 0.6619 -0.6619 0.7496 926.1995 251.3835)" fill="#F1F2F2" width="38.378" height="6.885"/>
	</g>
</g>
<g id="Keyboard">
	<g>
		<g>
			<path fill="#E6E7E8" d="M1005.476,996.785c-0.246-2.246-5.684-55.387,23.4-87.826c14.271-15.918,34.157-23.988,59.106-23.988
				c33.173,0,57.165-8.822,71.307-26.22c21.251-26.144,13.679-63.917,13.6-64.296l15.69-3.322c0.394,1.84,9.295,45.447-16.751,77.62
				c-17.328,21.403-45.537,32.257-83.846,32.257c-20.196,0-36.065,6.275-47.164,18.656c-24.356,27.166-19.451,74.895-19.398,75.373
				L1005.476,996.785z"/>
		</g>
		<g>
			<path fill="#D1D3D4" d="M1201.878,1232.158c0,2.256-1.831,4.084-4.086,4.084h-827.8c-2.258,0-4.088-1.828-4.088-4.084v-243.23
				c0-2.26,1.831-4.091,4.088-4.091l827.8,0.001c2.255,0,4.086,1.83,4.086,4.09V1232.158z"/>
			<path fill="#414042" d="M427.222,1042.324c0,2.258-1.83,4.09-4.087,4.09h-26.572c-2.256,0-4.086-1.832-4.086-4.09v-26.572
				c0-2.256,1.83-4.087,4.086-4.087h26.572c2.258,0,4.087,1.831,4.087,4.087V1042.324z"/>
			<path fill="#414042" d="M539.641,1042.324c0,2.258-1.832,4.09-4.089,4.09h-26.572c-2.258,0-4.088-1.832-4.088-4.09v-26.572
				c0-2.256,1.83-4.087,4.088-4.087h26.572c2.257,0,4.089,1.831,4.089,4.087V1042.324z"/>
			<path fill="#414042" d="M600.958,1042.324c0,2.258-1.83,4.09-4.089,4.09h-26.57c-2.259,0-4.088-1.832-4.088-4.09v-26.572
				c0-2.256,1.829-4.087,4.088-4.087h26.57c2.26,0,4.089,1.831,4.089,4.087V1042.324z"/>
			<path fill="#414042" d="M662.275,1042.324c0,2.258-1.83,4.09-4.086,4.09h-26.573c-2.256,0-4.087-1.832-4.087-4.09v-26.572
				c0-2.256,1.831-4.087,4.087-4.087h26.573c2.256,0,4.086,1.831,4.086,4.087V1042.324z"/>
			<path fill="#414042" d="M723.596,1042.324c0,2.258-1.833,4.09-4.09,4.09h-26.57c-2.26,0-4.088-1.832-4.088-4.09v-26.572
				c0-2.256,1.828-4.087,4.088-4.087h26.57c2.257,0,4.09,1.831,4.09,4.087V1042.324z"/>
			<path fill="#414042" d="M805.352,1042.324c0,2.258-1.83,4.09-4.088,4.09h-26.569c-2.26,0-4.091-1.832-4.091-4.09v-26.572
				c0-2.256,1.831-4.087,4.091-4.087h26.569c2.258,0,4.088,1.831,4.088,4.087V1042.324z"/>
			<path fill="#414042" d="M866.674,1042.324c0,2.258-1.835,4.09-4.091,4.09h-26.571c-2.256,0-4.086-1.832-4.086-4.09v-26.572
				c0-2.256,1.83-4.087,4.086-4.087h26.571c2.256,0,4.091,1.831,4.091,4.087V1042.324z"/>
			<path fill="#414042" d="M927.991,1042.324c0,2.258-1.831,4.09-4.088,4.09h-26.574c-2.258,0-4.088-1.832-4.088-4.09v-26.572
				c0-2.256,1.83-4.087,4.088-4.087h26.574c2.257,0,4.088,1.831,4.088,4.087V1042.324z"/>
			<path fill="#414042" d="M989.309,1042.324c0,2.258-1.83,4.09-4.088,4.09h-26.574c-2.256,0-4.084-1.832-4.084-4.09v-26.57
				c0-2.258,1.828-4.089,4.084-4.089h26.574c2.258,0,4.088,1.831,4.088,4.089V1042.324z"/>
			<path fill="#414042" d="M938.208,1156.785c0,2.258-1.83,4.088-4.084,4.088h-26.573c-2.261,0-4.091-1.83-4.091-4.088v-26.57
				c0-2.258,1.83-4.09,4.091-4.09h26.573c2.254,0,4.084,1.832,4.084,4.09V1156.785z"/>
			<path fill="#414042" d="M938.208,1207.885c0,2.256-1.83,4.086-4.084,4.086h-26.573c-2.261,0-4.091-1.83-4.091-4.086v-26.571
				c0-2.256,1.83-4.086,4.091-4.086h26.573c2.254,0,4.084,1.83,4.084,4.086V1207.885z"/>
			<path fill="#414042" d="M885.066,1207.885c0,2.256-1.83,4.086-4.088,4.086h-26.571c-2.256,0-4.089-1.83-4.089-4.086v-26.571
				c0-2.256,1.833-4.086,4.089-4.086h26.571c2.258,0,4.088,1.83,4.088,4.086V1207.885z"/>
			<path fill="#414042" d="M805.352,1207.885c0,2.256-1.83,4.086-4.088,4.086h-26.569c-2.26,0-4.091-1.83-4.091-4.086v-26.571
				c0-2.256,1.831-4.086,4.091-4.086h26.569c2.258,0,4.088,1.83,4.088,4.086V1207.885z"/>
			<path fill="#414042" d="M805.352,1156.785c0,2.258-1.83,4.088-4.088,4.088h-26.569c-2.26,0-4.091-1.83-4.091-4.088v-26.57
				c0-2.258,1.831-4.09,4.091-4.09h26.569c2.258,0,4.088,1.832,4.088,4.09V1156.785z"/>
			<path fill="#414042" d="M805.352,1105.687c0,2.257-1.83,4.088-4.088,4.088h-26.569c-2.26,0-4.091-1.831-4.091-4.088v-26.571
				c0-2.256,1.831-4.086,4.091-4.086h26.569c2.258,0,4.088,1.83,4.088,4.086V1105.687z"/>
			<path fill="#414042" d="M750.166,1207.885c0,2.256-1.831,4.086-4.086,4.086h-26.574c-2.256,0-4.086-1.83-4.086-4.086v-26.571
				c0-2.256,1.83-4.086,4.086-4.086h26.574c2.255,0,4.086,1.83,4.086,4.086V1207.885z"/>
			<path fill="#414042" d="M750.166,1156.785c0,2.258-1.831,4.088-4.086,4.088h-26.574c-2.256,0-4.086-1.83-4.086-4.088v-26.57
				c0-2.258,1.83-4.09,4.086-4.09h26.574c2.255,0,4.086,1.832,4.086,4.09V1156.785z"/>
			<path fill="#414042" d="M750.166,1105.687c0,2.257-1.831,4.088-4.086,4.088h-26.574c-2.256,0-4.086-1.831-4.086-4.088v-26.571
				c0-2.256,1.83-4.086,4.086-4.086h26.574c2.255,0,4.086,1.83,4.086,4.086V1105.687z"/>
			<path fill="#414042" d="M697.022,1156.785c0,2.258-1.831,4.088-4.086,4.088h-26.572c-2.256,0-4.089-1.83-4.089-4.088v-26.57
				c0-2.258,1.833-4.09,4.089-4.09h26.572c2.255,0,4.086,1.832,4.086,4.09V1156.785z"/>
			<path fill="#414042" d="M697.022,1105.687c0,2.257-1.831,4.088-4.086,4.088h-26.572c-2.256,0-4.089-1.831-4.089-4.088v-26.571
				c0-2.256,1.833-4.086,4.089-4.086h26.572c2.255,0,4.086,1.83,4.086,4.086V1105.687z"/>
			<path fill="#414042" d="M989.309,1105.687c0,2.257-1.83,4.088-4.088,4.088h-26.574c-2.256,0-4.084-1.831-4.084-4.088v-26.571
				c0-2.256,1.828-4.086,4.084-4.086h26.574c2.258,0,4.088,1.83,4.088,4.086V1105.687z"/>
			<path fill="#414042" d="M938.208,1105.687c0,2.257-1.83,4.088-4.084,4.088h-26.573c-2.261,0-4.091-1.831-4.091-4.088v-26.571
				c0-2.256,1.83-4.086,4.091-4.086h26.573c2.254,0,4.084,1.83,4.084,4.086V1105.687z"/>
			<path fill="#414042" d="M889.157,1105.687c0,2.257-1.833,4.088-4.091,4.088h-26.571c-2.258,0-4.088-1.831-4.088-4.088v-26.571
				c0-2.256,1.83-4.086,4.088-4.086h26.571c2.258,0,4.091,1.83,4.091,4.086V1105.687z"/>
			<path fill="#414042" d="M1179.394,1207.885c0,2.256-1.828,4.086-4.088,4.086h-26.569c-2.258,0-4.086-1.83-4.086-4.086v-76.318
				c0-2.256,1.828-4.086,4.086-4.086h26.569c2.26,0,4.088,1.83,4.088,4.086V1207.885z"/>
			<path fill="#414042" d="M1179.394,1105.687c0,2.257-1.828,4.088-4.088,4.088h-26.569c-2.258,0-4.086-1.831-4.086-4.088v-26.571
				c0-2.256,1.828-4.086,4.086-4.086h26.569c2.26,0,4.088,1.83,4.088,4.086V1105.687z"/>
			<path fill="#414042" d="M1124.21,1207.885c0,2.256-1.83,4.086-4.091,4.086h-26.569c-2.26,0-4.09-1.83-4.09-4.086v-26.571
				c0-2.256,1.83-4.086,4.09-4.086h26.569c2.261,0,4.091,1.83,4.091,4.086V1207.885z"/>
			<path fill="#414042" d="M1124.21,1156.785c0,2.258-1.83,4.088-4.091,4.088h-26.569c-2.26,0-4.09-1.83-4.09-4.088v-26.57
				c0-2.258,1.83-4.09,4.09-4.09h26.569c2.261,0,4.091,1.832,4.091,4.09V1156.785z"/>
			<path fill="#414042" d="M1124.21,1105.687c0,2.257-1.83,4.088-4.091,4.088h-26.569c-2.26,0-4.09-1.831-4.09-4.088v-26.571
				c0-2.256,1.83-4.086,4.09-4.086h26.569c2.261,0,4.091,1.83,4.091,4.086V1105.687z"/>
			<path fill="#414042" d="M1071.064,1207.885c0,2.256-1.83,4.086-4.086,4.086h-26.572c-2.255,0-4.086-1.83-4.086-4.086v-26.571
				c0-2.256,1.831-4.086,4.086-4.086h26.572c2.256,0,4.086,1.83,4.086,4.086V1207.885z"/>
			<path fill="#414042" d="M1071.064,1156.785c0,2.258-1.83,4.088-4.086,4.088h-26.572c-2.255,0-4.086-1.83-4.086-4.088v-26.57
				c0-2.258,1.831-4.09,4.086-4.09h26.572c2.256,0,4.086,1.832,4.086,4.09V1156.785z"/>
			<path fill="#414042" d="M1071.064,1105.687c0,2.257-1.83,4.088-4.086,4.088h-26.572c-2.255,0-4.086-1.831-4.086-4.088v-26.571
				c0-2.256,1.831-4.086,4.086-4.086h26.572c2.256,0,4.086,1.83,4.086,4.086V1105.687z"/>
			<path fill="#414042" d="M641.838,1156.785c0,2.258-1.832,4.088-4.088,4.088h-26.573c-2.256,0-4.088-1.83-4.088-4.088v-26.57
				c0-2.258,1.832-4.09,4.088-4.09h26.573c2.256,0,4.088,1.832,4.088,4.09V1156.785z"/>
			<path fill="#414042" d="M641.838,1105.687c0,2.257-1.832,4.088-4.088,4.088h-26.573c-2.256,0-4.088-1.831-4.088-4.088v-26.571
				c0-2.256,1.832-4.086,4.088-4.086h26.573c2.256,0,4.088,1.83,4.088,4.086V1105.687z"/>
			<path fill="#414042" d="M588.693,1156.785c0,2.258-1.83,4.088-4.087,4.088h-26.572c-2.256,0-4.087-1.83-4.087-4.088v-26.57
				c0-2.258,1.831-4.09,4.087-4.09h26.572c2.257,0,4.087,1.832,4.087,4.09V1156.785z"/>
			<path fill="#414042" d="M588.693,1105.687c0,2.257-1.83,4.088-4.087,4.088h-26.572c-2.256,0-4.087-1.831-4.087-4.088v-26.571
				c0-2.256,1.831-4.086,4.087-4.086h26.572c2.257,0,4.087,1.83,4.087,4.086V1105.687z"/>
			<path fill="#414042" d="M692.936,1177.228H529.42h-4.103h-22.469c-2.257,0-4.088,1.83-4.088,4.086v26.571
				c0,2.256,1.832,4.086,4.088,4.086h22.469h4.103h163.516c2.255,0,4.086-1.83,4.086-4.086v-26.571
				C697.022,1179.058,695.191,1177.228,692.936,1177.228z"/>
			<path fill="#414042" d="M533.508,1156.785c0,2.258-1.832,4.088-4.088,4.088h-26.571c-2.257,0-4.088-1.83-4.088-4.088v-26.57
				c0-2.258,1.832-4.09,4.088-4.09h26.571c2.257,0,4.088,1.832,4.088,4.09V1156.785z"/>
			<path fill="#414042" d="M533.508,1105.687c0,2.257-1.832,4.088-4.088,4.088h-26.571c-2.257,0-4.088-1.831-4.088-4.088v-26.571
				c0-2.256,1.832-4.086,4.088-4.086h26.571c2.257,0,4.088,1.83,4.088,4.086V1105.687z"/>
			<path fill="#414042" d="M480.365,1207.885c0,2.256-1.832,4.086-4.088,4.086h-26.571c-2.257,0-4.087-1.83-4.087-4.086v-26.571
				c0-2.256,1.83-4.091,4.087-4.091l26.571,0.005c2.257,0,4.088,1.83,4.088,4.086V1207.885z"/>
			<path fill="#414042" d="M480.365,1156.785c0,2.258-1.832,4.088-4.088,4.088h-26.571c-2.257,0-4.087-1.83-4.087-4.088v-26.57
				c0-2.258,1.83-4.09,4.087-4.09h26.571c2.257,0,4.088,1.832,4.088,4.09V1156.785z"/>
			<path fill="#414042" d="M480.365,1105.687c0,2.257-1.832,4.088-4.088,4.088h-26.571c-2.257,0-4.087-1.831-4.087-4.088v-26.571
				c0-2.256,1.83-4.086,4.087-4.086h26.571c2.257,0,4.088,1.83,4.088,4.086V1105.687z"/>
			<path fill="#414042" d="M425.179,1207.885c0,2.256-1.831,4.086-4.087,4.086h-26.573c-2.257,0-4.088-1.83-4.088-4.086v-26.571
				c0-2.256,1.831-4.091,4.088-4.091h26.573c2.257,0,4.087,1.835,4.087,4.091V1207.885z"/>
			<path fill="#414042" d="M425.179,1156.785c0,2.258-1.831,4.088-4.087,4.088h-26.573c-2.257,0-4.088-1.83-4.088-4.088v-26.57
				c0-2.258,1.831-4.09,4.088-4.09h26.573c2.257,0,4.087,1.832,4.087,4.09V1156.785z"/>
			<path fill="#414042" d="M425.179,1105.687c0,2.257-1.831,4.088-4.087,4.088h-26.573c-2.257,0-4.088-1.831-4.088-4.088v-26.571
				c0-2.256,1.831-4.086,4.088-4.086h26.573c2.257,0,4.087,1.83,4.087,4.086V1105.687z"/>
			<path fill="#414042" d="M989.309,1207.885c0,2.256-1.83,4.086-4.088,4.086h-26.574c-2.256,0-4.084-1.83-4.084-4.086v-26.571
				c0-2.256,1.828-4.086,4.084-4.086h26.574c2.258,0,4.088,1.83,4.088,4.086V1207.885z"/>
			<path fill="#00A14B" d="M1074.135,1031.596c0,4.795-3.89,8.686-8.689,8.686s-8.687-3.891-8.687-8.686
				c0-4.8,3.887-8.689,8.687-8.689S1074.135,1026.796,1074.135,1031.596z"/>
			<path fill="#808285" d="M1115.011,1031.596c0,4.795-3.889,8.686-8.688,8.686c-4.797,0-8.684-3.891-8.684-8.686
				c0-4.8,3.887-8.689,8.684-8.689C1111.122,1022.906,1115.011,1026.796,1115.011,1031.596z"/>
			<path fill="#808285" d="M1155.89,1031.596c0,4.795-3.889,8.686-8.688,8.686s-8.684-3.891-8.684-8.686
				c0-4.8,3.884-8.689,8.684-8.689S1155.89,1026.796,1155.89,1031.596z"/>
		</g>
	</g>
</g>
<g id="Hands_and_mouse">
	<g>
		<g>
			<g>
				<path fill="#FFFFFF" d="M1449.846,1155.133c0,67.486-39.973,122.191-89.294,122.191c-49.317,0-89.295-54.705-89.295-122.191
					c0-67.492,39.978-122.195,89.295-122.195C1409.873,1032.938,1449.846,1087.641,1449.846,1155.133z"/>
			</g>
			<circle fill="#BCBEC0" cx="1359.132" cy="1098.413" r="21.207"/>
		</g>
		<path fill="#FAB281" d="M1291.432,1318.544c0.477,2.14,1.244,4.131,2.217,5.983c5.015,34.524,27.971,63.746,59.888,79.312V1565
			h107.94v-162.312c34.959-18.023,59.011-52.889,59.011-92.65c0-1.14,0.146-6.484,0.146-8.248v-124.475
			c0-11.459-8.742-20.744-19.525-20.744c-10.785,0-19.527,9.285-19.527,20.744v53.768v2.775c0,3.057-2.31,5.535-5.151,5.535
			c-2.847,0-5.151-2.479-5.151-5.535c0,0,0.125-85.855,0.32-86.438v-8.654c0-11.457-8.744-20.746-19.525-20.746
			c-10.785,0-19.53,9.289-19.53,20.746v68.734c0,0-0.004,0-0.007-0.002v10.613c0,3.057-2.222,5.535-4.961,5.535
			c-2.74,0-4.965-2.479-4.965-5.535v-12.365v-89.713v-15.695c0-11.459-8.747-20.746-19.527-20.746
			c-10.783,0-19.527,9.287-19.527,20.746v106.439c-0.003,0.002-0.008,0.002-0.012,0.002v4.33c0,3.057-2.479,5.538-5.536,5.538
			s-5.536-2.481-5.536-5.538v-1.691v-65.391v-22.87c0-11.456-8.742-20.745-19.527-20.745c-10.783,0-19.527,9.289-19.527,20.745
			v106.98c0,0.356,0.033,44.446,0.049,44.8c-3.729,2.895-13.407-47.291-13.407-47.291c-2.869-12.955-15.692-21.125-28.646-18.256
			c-12.951,2.866-21.125,15.694-18.254,28.646L1291.432,1318.544z"/>
	</g>
	<path fill="#FAB281" d="M659.125,1407.266c-0.477,2.14-1.244,4.131-2.217,5.983c-5.015,34.524-27.97,63.745-59.888,79.312V1566
		h-107.94v-74.591c-34.958-18.024-59.01-52.888-59.01-92.65c0-1.14-0.146-6.485-0.146-8.248v-76.356
		c0-11.459,8.742-20.745,19.525-20.745c10.785,0,19.528,9.286,19.528,20.745v5.65v2.774c0,3.057,2.309,5.536,5.151,5.536
		c2.846,0,5.151-2.479,5.151-5.536c0,0-0.125-33.155-0.32-33.737v-8.654c0-11.457,8.745-20.745,19.525-20.745
		c10.785,0,19.53,9.288,19.53,20.745v16.035c0.002,0,0.005,0,0.007-0.003v10.613c0,3.056,2.222,5.536,4.961,5.536
		c2.741,0,4.965-2.48,4.965-5.536v-12.365v-14.099v-15.695c0-11.459,8.747-20.747,19.528-20.747
		c10.783,0,19.528,9.288,19.528,20.747v30.826c0.002,0.002,0.007,0.002,0.011,0.002v4.33c0,3.056,2.479,5.537,5.536,5.537
		s5.536-2.481,5.536-5.537v-1.692v-65.39v-22.871c0-11.457,8.742-20.744,19.527-20.744c10.783,0,19.528,9.287,19.528,20.744v106.98
		c0,0.355-0.034,44.446-0.049,44.8c3.73,2.896,13.408-47.29,13.408-47.29c2.868-12.956,15.692-21.125,28.646-18.257
		c12.952,2.866,21.125,15.694,18.255,28.646L659.125,1407.266z"/>
</g>
<g id="Monitor">
	<g>
		<polygon fill="#BCBEC0" points="892.845,803.092 725.028,940.208 913.308,940.208 		"/>
		<polygon fill="#808285" points="725.028,940.208 656.976,940.208 679.659,788.224 911.041,788.224 		"/>
		<path fill="#E6E7E8" d="M1253.575,795.027c0,6.265-5.077,11.344-11.343,11.344H328.051c-6.264,0-11.342-5.079-11.342-11.344
			V180.281c0-6.264,5.078-11.342,11.342-11.342h914.181c6.266,0,11.343,5.078,11.343,11.342V795.027z"/>
		<path fill="#DCDDDE" d="M1242.232,168.938H786.276v637.433h455.957c6.266,0,11.343-5.079,11.343-11.344V180.281
			C1253.575,174.017,1248.498,168.938,1242.232,168.938z"/>
		<g>
			<path fill="#E0E0E0" d="M1212.743,688.411c0,2.506-2.029,4.537-4.535,4.537H357.541c-2.506,0-4.538-2.03-4.538-4.537V209.77
				c0-2.505,2.032-4.537,4.538-4.537h850.667c2.506,0,4.535,2.032,4.535,4.537V688.411z"/>
			<rect x="357.541" y="207.524" fill="#A3A6A7" width="856.316" height="76.202"/>
			<path fill="#414042" d="M1208.208,704.404H357.541c-8.82,0-15.995-7.175-15.995-15.993V209.77
				c0-8.818,7.175-15.993,15.995-15.993h850.667c8.818,0,15.992,7.175,15.992,15.993v478.642
				C1224.2,697.229,1217.026,704.404,1208.208,704.404z M364.459,681.491h836.828V216.689H364.459V681.491z"/>
			<circle fill="#C8452E" cx="1077.348" cy="249.746" r="11.241"/>
			<circle fill="#E7C532" cx="1116.301" cy="249.746" r="11.241"/>
			<circle fill="#59AE66" cx="1155.253" cy="249.746" r="11.241"/>
			<path fill="#FFFFFF" d="M1017.635,249.744c0,6.209-5.033,11.242-11.242,11.242H416.754c-6.208,0-11.241-5.033-11.241-11.242l0,0
				c0-6.208,5.032-11.24,11.241-11.24h589.639C1012.602,238.504,1017.635,243.536,1017.635,249.744L1017.635,249.744z"/>
		</g>
		<path fill="#808285" d="M1099.32,750.793c0,6.891-5.585,12.476-12.477,12.476c-6.887,0-12.475-5.585-12.475-12.476
			c0-6.891,5.588-12.476,12.475-12.476C1093.735,738.318,1099.32,743.903,1099.32,750.793z"/>
		<circle fill="#808285" cx="1132.213" cy="750.793" r="12.477"/>
		<circle fill="#00A14B" cx="1177.583" cy="750.793" r="12.477"/>
		<path fill="#A7A9AC" d="M960.946,956.064c0,2.506-2.031,4.537-4.537,4.537H613.875c-2.506,0-4.538-2.031-4.538-4.537v-13.609
			c0-2.507,2.031-4.539,4.538-4.539h342.534c2.506,0,4.537,2.032,4.537,4.539V956.064z"/>
	</g>
	<rect x="676.499" y="385.722" fill="#414042" width="290.706" height="177.592"/>
	<rect x="364.459" y="283.726" fill="#7DB7BD" width="836.828" height="43.94"/>
	<g>
		<polygon fill="#FFFFFF" points="778.835,513.786 778.835,441.753 850.868,477.77 		"/>
	</g>
	<rect x="364.459" y="637.389" fill="#7DB7BD" width="836.828" height="43.94"/>
	<rect x="643.499" y="385.722" fill="#6D6E71" width="33" height="177.592"/>
	<rect x="643.499" y="563.314" fill="#7DB7BD" width="323.707" height="26.273"/>
	<polyline fill="#FFFFFF" points="656.832,568.451 656.832,584.451 669.266,576.451 	"/>
	<polygon fill="#383637" points="682.074,576.451 685.999,647.764 704.162,629.875 719.073,655.598 731.438,648.429 
		716.527,622.707 741.074,615.832 	"/>
</g>
<g id="Table_lamp">
	<g>
		<g>
			<g>
				<g>
					<path fill="#BCBEC0" d="M1550.38,535.361c2.49,6.908,10.111,10.49,17.019,7.999l0,0c6.912-2.49,10.492-10.112,8-17.021
						l-126.05-349.537c-2.495-6.909-10.114-10.49-17.023-7.997l0,0c-6.909,2.49-10.49,10.112-7.997,17.021L1550.38,535.361z"/>
					<path fill="#BCBEC0" d="M1511.219,558.91c2.755,7.634,10.584,11.804,17.494,9.313l0,0c6.912-2.492,10.279-10.701,7.525-18.337
						l-139.299-386.264c-2.754-7.636-10.588-11.807-17.496-9.312l0,0c-6.907,2.489-10.277,10.699-7.522,18.336L1511.219,558.91z"/>
					<path fill="#BCBEC0" d="M1529.57,556.396c-6.648-3.125-14.569-0.268-17.693,6.379l-155.812,331.582h29.39l150.497-320.269
						C1539.073,567.441,1536.22,559.52,1529.57,556.396z"/>
					<path fill="#BCBEC0" d="M1574.506,566.171c-6.644-3.124-14.834,0.3-18.284,7.646l-171.929,363.525h29.424l166.577-352.214
						C1583.742,577.785,1581.156,569.296,1574.506,566.171z"/>
					<circle fill="#BCBEC0" cx="1550.909" cy="573.325" r="62.062"/>
					<circle fill="#6D6E71" cx="1550.905" cy="573.325" r="37.03"/>
					<path fill="#E6E7E8" d="M1248.228,951.493v-21.692c0-22.258,18.044-40.299,40.3-40.299h203.923
						c22.255,0,40.3,18.041,40.3,40.299v21.692H1248.228z"/>
					<path fill="#DCDDDE" d="M1492.45,889.502h-100.999v61.991h141.299v-21.692C1532.75,907.543,1514.705,889.502,1492.45,889.502z"
						/>
				</g>
				<g>
					<path fill="#E5D541" d="M1187.34,257.321c7.554,27.637,36.084,43.912,63.716,36.358c27.637-7.555,43.913-36.08,36.357-63.715
						c-7.555-27.635-36.08-43.913-63.714-36.358C1196.064,201.16,1179.783,229.688,1187.34,257.321z"/>
					<g>
						<path fill="#DCDDDE" d="M1280.704,231.832c11.896,18.81,36.793,24.414,55.601,12.514l134.875-85.308
							c18.807-11.898,24.416-36.793,12.515-55.604l-14.225-22.491c-11.899-18.81-36.796-24.413-55.604-12.517l-134.877,85.312
							c-18.805,11.896-24.41,36.79-12.513,55.602L1280.704,231.832z"/>
						<path fill="#E6E7E8" d="M1271.137,222.621l207.375-127.383l-9.042-14.296c-11.899-18.81-36.796-24.413-55.604-12.517
							l-134.877,85.312c-18.805,11.896-24.41,36.79-12.513,55.602L1271.137,222.621z"/>
						<path fill="#6D6E71" d="M1432.303,120.195c3.927,6.207,12.144,8.057,18.351,4.13c6.207-3.927,8.058-12.142,4.129-18.347
							c-3.927-6.21-12.14-8.058-18.349-4.132C1430.229,105.773,1428.378,113.988,1432.303,120.195z"/>
						<path fill="#6D6E71" d="M1399.609,140.876c3.922,6.208,12.141,8.057,18.346,4.131c6.209-3.927,8.058-12.143,4.133-18.35
							c-3.925-6.208-12.146-8.054-18.351-4.131C1397.528,126.453,1395.68,134.67,1399.609,140.876z"/>
						<path fill="#6D6E71" d="M1366.91,161.558c3.928,6.206,12.145,8.057,18.35,4.131c6.209-3.925,8.057-12.143,4.128-18.35
							c-3.923-6.207-12.14-8.057-18.347-4.131C1364.836,147.135,1362.983,155.352,1366.91,161.558z"/>
						<path fill="#DCDDDE" d="M1152.604,130.261c65.821-41.632,152.923-22.025,194.554,43.793
							c41.631,65.816,22.024,152.92-43.79,194.552L1152.604,130.261z"/>
					</g>
				</g>
			</g>
			<path fill="#BCBEC0" d="M1243.433,956.302c0,3.648,2.958,6.608,6.609,6.608h280.655c3.647,0,6.605-2.96,6.605-6.608l0,0
				c0-3.649-2.958-6.606-6.605-6.606h-280.655C1246.391,949.695,1243.433,952.652,1243.433,956.302L1243.433,956.302z"/>
		</g>
		<path fill="#E6E7E8" d="M1347.963,175.401c-0.267-0.45-0.523-0.903-0.806-1.347c-41.631-65.818-128.732-85.425-194.554-43.793
			l75.069,118.68L1347.963,175.401z"/>
	</g>
</g>
<g id="Sticky_note">
	<g>
		<rect x="385.041" y="769.124" fill="#FCEA3E" width="120.856" height="120.856"/>
		<g>
			<path fill="#F0C737" d="M485.326,808.824h-79.714c-1.898,0-3.437-1.539-3.437-3.438s1.538-3.437,3.437-3.437h79.714
				c1.898,0,3.437,1.538,3.437,3.437S487.224,808.824,485.326,808.824z"/>
		</g>
		<g>
			<path fill="#F0C737" d="M485.326,824.863h-79.714c-1.898,0-3.437-1.539-3.437-3.438s1.538-3.437,3.437-3.437h79.714
				c1.898,0,3.437,1.538,3.437,3.437S487.224,824.863,485.326,824.863z"/>
		</g>
		<g>
			<path fill="#F0C737" d="M485.326,840.902h-79.714c-1.898,0-3.437-1.538-3.437-3.438c0-1.898,1.538-3.437,3.437-3.437h79.714
				c1.898,0,3.437,1.538,3.437,3.437C488.763,839.364,487.224,840.902,485.326,840.902z"/>
		</g>
		<g>
			<path fill="#F0C737" d="M485.326,856.941h-79.714c-1.898,0-3.437-1.538-3.437-3.437c0-1.899,1.538-3.437,3.437-3.437h79.714
				c1.898,0,3.437,1.537,3.437,3.437C488.763,855.403,487.224,856.941,485.326,856.941z"/>
		</g>
	</g>
</g>
</svg>
