<?xml version="1.0" encoding="utf-8"?>
<!-- Generator: Adobe Illustrator 16.0.0, SVG Export Plug-In . SVG Version: 6.00 Build 0)  -->
<!DOCTYPE svg PUBLIC "-//W3C//DTD SVG 1.1//EN" "http://www.w3.org/Graphics/SVG/1.1/DTD/svg11.dtd">
<svg version="1.1" id="Layer_1" xmlns="http://www.w3.org/2000/svg" xmlns:xlink="http://www.w3.org/1999/xlink" x="0px" y="0px"
	 width="286.299px" height="286.299px" viewBox="0 0 286.299 286.299" enable-background="new 0 0 286.299 286.299"
	 xml:space="preserve">
<g id="Layer_1_1_">
	<g>
		<g>
			<ellipse fill="#63B8B0" cx="206.312" cy="152.22" rx="8.707" ry="8.698"/>
			<g>
				<path fill="#FFFFFF" d="M212.707,154.565c0.043,0,0.084-0.018,0.112-0.047c0.031-0.035,0.052-0.084,0.048-0.133
					c-0.007-0.146-0.021-0.294-0.041-0.438c-0.017-0.096-0.103-0.162-0.195-0.146l-0.237,0.048c-0.025-0.104-0.054-0.213-0.091-0.32
					l0.234-0.081c0.037-0.013,0.071-0.043,0.088-0.084c0.021-0.043,0.021-0.093,0.006-0.138c-0.049-0.133-0.11-0.27-0.182-0.4
					c-0.048-0.085-0.158-0.12-0.234-0.073l-0.211,0.123c-0.055-0.093-0.117-0.185-0.188-0.276l0.194-0.149
					c0.035-0.026,0.058-0.065,0.062-0.11c0.006-0.047-0.012-0.096-0.043-0.133c-0.094-0.113-0.193-0.221-0.299-0.314
					c-0.072-0.067-0.189-0.063-0.246,0.004l-0.162,0.186c-0.086-0.07-0.172-0.139-0.266-0.201l0.137-0.207
					c0.021-0.035,0.029-0.078,0.021-0.119c-0.01-0.045-0.041-0.088-0.082-0.115c-0.141-0.082-0.266-0.146-0.389-0.202
					c-0.095-0.041-0.199,0.002-0.229,0.085l-0.096,0.229c-0.105-0.039-0.213-0.076-0.314-0.102l0.058-0.24
					c0.012-0.039,0.008-0.084-0.017-0.121c-0.024-0.042-0.065-0.07-0.115-0.081c-0.141-0.032-0.286-0.055-0.436-0.065
					c-0.104-0.01-0.184,0.062-0.186,0.154l-0.014,0.245h-0.009c-0.112-0.005-0.229-0.001-0.325,0.005l-0.023-0.242
					c-0.002-0.086-0.078-0.151-0.166-0.151c-0.008,0-0.016,0.001-0.025,0.001c-0.152,0.02-0.295,0.046-0.428,0.079
					c-0.047,0.011-0.092,0.041-0.113,0.082c-0.021,0.039-0.027,0.083-0.016,0.126l0.066,0.234c-0.105,0.032-0.211,0.071-0.312,0.113
					l-0.1-0.226c-0.037-0.084-0.146-0.118-0.232-0.077c-0.139,0.066-0.268,0.14-0.383,0.217c-0.041,0.025-0.07,0.067-0.08,0.114
					c-0.008,0.045,0.002,0.087,0.027,0.12l0.143,0.203c-0.09,0.062-0.178,0.134-0.264,0.207l-0.164-0.181
					c-0.062-0.065-0.174-0.065-0.244,0.003c-0.096,0.094-0.186,0.198-0.293,0.328c-0.029,0.038-0.041,0.088-0.035,0.135
					c0.006,0.043,0.027,0.08,0.062,0.104l0.196,0.144c-0.063,0.092-0.127,0.188-0.18,0.284l-0.216-0.118
					c-0.077-0.041-0.186-0.002-0.225,0.084c-0.066,0.121-0.121,0.258-0.172,0.403c-0.016,0.046-0.014,0.101,0.008,0.144
					c0.021,0.039,0.055,0.065,0.094,0.078l0.229,0.069c-0.03,0.106-0.055,0.215-0.075,0.327l-0.236-0.039
					c-0.092-0.014-0.178,0.054-0.189,0.148c-0.021,0.152-0.029,0.295-0.029,0.438c0,0.099,0.07,0.174,0.168,0.174l0,0l0.238-0.007
					c0.006,0.107,0.016,0.223,0.031,0.333l-0.234,0.042c-0.043,0.004-0.078,0.028-0.104,0.062c-0.027,0.037-0.037,0.092-0.027,0.141
					c0.027,0.137,0.064,0.279,0.115,0.423c0.031,0.093,0.129,0.144,0.215,0.111l0.221-0.087c0.043,0.111,0.088,0.212,0.139,0.308
					l-0.206,0.114c-0.035,0.019-0.066,0.056-0.078,0.098c-0.011,0.047-0.004,0.096,0.021,0.139c0.078,0.129,0.16,0.25,0.244,0.36
					c0.062,0.077,0.172,0.093,0.242,0.035l0.182-0.149c0.07,0.082,0.146,0.162,0.229,0.243l-0.158,0.173
					c-0.026,0.032-0.041,0.072-0.041,0.116c0.004,0.048,0.024,0.093,0.065,0.126c0.115,0.1,0.232,0.189,0.349,0.266
					c0.08,0.052,0.192,0.026,0.233-0.049l0.125-0.197c0.101,0.059,0.199,0.111,0.302,0.156l-0.097,0.213
					c-0.018,0.037-0.02,0.08-0.004,0.121c0.019,0.043,0.058,0.084,0.104,0.102c0.129,0.053,0.271,0.098,0.418,0.136
					c0.095,0.022,0.192-0.034,0.209-0.12l0.051-0.229c0.105,0.021,0.216,0.037,0.33,0.049l-0.021,0.234
					c0,0.045,0.013,0.086,0.041,0.117c0.033,0.036,0.078,0.057,0.128,0.057c0.055,0.003,0.11,0.006,0.168,0.006
					c0.086,0,0.174-0.004,0.27-0.01c0.054-0.006,0.099-0.03,0.128-0.068c0.024-0.033,0.038-0.074,0.03-0.114l-0.024-0.233
					c0.112-0.014,0.225-0.033,0.33-0.059l0.059,0.227c0.023,0.089,0.121,0.14,0.217,0.113c0.146-0.043,0.283-0.094,0.41-0.146
					c0.047-0.021,0.082-0.061,0.1-0.104c0.014-0.043,0.012-0.084-0.008-0.125l-0.102-0.209c0.102-0.054,0.199-0.105,0.293-0.166
					l0.131,0.196c0.047,0.076,0.162,0.093,0.236,0.038c0.112-0.079,0.227-0.169,0.346-0.275c0.033-0.031,0.057-0.08,0.057-0.127
					c0-0.043-0.014-0.084-0.045-0.117l-0.164-0.168c0.076-0.076,0.152-0.162,0.221-0.252l0.189,0.148
					c0.068,0.057,0.18,0.035,0.238-0.043c0.084-0.117,0.162-0.241,0.233-0.37c0.023-0.043,0.029-0.094,0.017-0.139
					c-0.017-0.044-0.041-0.078-0.082-0.097l-0.211-0.107c0.047-0.102,0.09-0.203,0.127-0.309l0.229,0.078
					c0.086,0.028,0.182-0.023,0.211-0.119c0.043-0.14,0.076-0.283,0.104-0.427c0.009-0.05-0.004-0.099-0.032-0.135
					c-0.026-0.038-0.065-0.062-0.106-0.065l-0.24-0.03c0.016-0.109,0.022-0.22,0.022-0.335h0.242V154.565z M212.146,154.528
					c0,1.58-1.287,2.863-2.867,2.863s-2.865-1.283-2.865-2.863c0-1.582,1.285-2.867,2.865-2.867S212.146,152.946,212.146,154.528z"
					/>
				<path fill="#FFFFFF" d="M209.976,151.567c0.055,0,0.104-0.021,0.146-0.063c0.043-0.045,0.065-0.108,0.063-0.177
					c-0.008-0.211-0.028-0.424-0.061-0.635c-0.025-0.129-0.137-0.219-0.262-0.193l-0.367,0.072
					c-0.035-0.164-0.082-0.329-0.139-0.508l0.354-0.123c0.056-0.019,0.099-0.058,0.121-0.11c0.024-0.058,0.028-0.124,0.008-0.185
					c-0.073-0.191-0.162-0.389-0.269-0.582c-0.041-0.078-0.118-0.127-0.202-0.127c-0.037,0-0.072,0.01-0.104,0.029l-0.326,0.19
					c-0.088-0.146-0.185-0.291-0.295-0.435l0.301-0.234c0.043-0.035,0.072-0.088,0.078-0.146c0.006-0.062-0.017-0.127-0.058-0.176
					c-0.137-0.166-0.282-0.32-0.438-0.463c-0.092-0.087-0.248-0.082-0.32,0.008l-0.252,0.285c-0.133-0.113-0.273-0.217-0.422-0.314
					l0.211-0.319c0.031-0.046,0.041-0.104,0.029-0.158c-0.015-0.063-0.056-0.119-0.113-0.154c-0.197-0.12-0.385-0.216-0.561-0.295
					c-0.121-0.054-0.265,0-0.306,0.112l-0.146,0.354c-0.172-0.066-0.338-0.121-0.502-0.162l0.094-0.369
					c0.017-0.054,0.007-0.11-0.022-0.162c-0.032-0.053-0.09-0.096-0.155-0.108c-0.201-0.043-0.412-0.073-0.627-0.094
					c-0.134-0.011-0.246,0.08-0.252,0.202l-0.021,0.382l-0.031-0.002c-0.17-0.007-0.348,0-0.494,0.013l-0.032-0.38
					c-0.009-0.121-0.119-0.218-0.256-0.197c-0.226,0.027-0.435,0.065-0.628,0.112c-0.062,0.016-0.116,0.056-0.149,0.111
					c-0.029,0.051-0.039,0.109-0.021,0.164l0.103,0.365c-0.168,0.051-0.332,0.11-0.492,0.178l-0.154-0.348
					c-0.051-0.111-0.189-0.158-0.309-0.1c-0.199,0.094-0.385,0.201-0.553,0.31c-0.06,0.036-0.099,0.093-0.109,0.154
					c-0.01,0.06,0.004,0.116,0.035,0.16l0.217,0.313c-0.141,0.098-0.277,0.209-0.41,0.326l-0.254-0.275
					c-0.08-0.088-0.234-0.088-0.326,0c-0.137,0.138-0.271,0.291-0.426,0.479c-0.039,0.05-0.057,0.116-0.049,0.179
					c0.01,0.058,0.037,0.106,0.086,0.142l0.303,0.223c-0.104,0.144-0.199,0.292-0.283,0.445l-0.328-0.181
					c-0.106-0.056-0.25,0-0.303,0.108c-0.092,0.179-0.176,0.375-0.248,0.588c-0.025,0.063-0.02,0.134,0.01,0.19
					c0.025,0.052,0.072,0.089,0.125,0.104l0.354,0.109c-0.05,0.166-0.091,0.339-0.119,0.515l-0.367-0.062
					c-0.12-0.02-0.237,0.072-0.252,0.201c-0.03,0.218-0.043,0.427-0.043,0.637c0,0.129,0.095,0.23,0.226,0.23l0,0l0.369-0.011
					c0.008,0.173,0.021,0.351,0.049,0.524l-0.365,0.062c-0.053,0.008-0.102,0.038-0.135,0.088c-0.037,0.049-0.051,0.118-0.039,0.185
					c0.043,0.196,0.098,0.403,0.168,0.614c0.043,0.123,0.176,0.191,0.289,0.149l0.342-0.132c0.064,0.172,0.137,0.328,0.219,0.48
					l-0.32,0.174c-0.055,0.026-0.09,0.074-0.104,0.133c-0.018,0.061-0.01,0.127,0.025,0.183c0.112,0.188,0.233,0.365,0.356,0.527
					c0.08,0.104,0.229,0.126,0.319,0.047l0.283-0.229c0.105,0.127,0.228,0.256,0.361,0.383l-0.246,0.265
					c-0.039,0.042-0.059,0.099-0.055,0.156c0.004,0.062,0.033,0.125,0.084,0.169c0.174,0.145,0.344,0.273,0.51,0.383
					c0.107,0.072,0.258,0.038,0.314-0.061l0.188-0.308c0.158,0.093,0.316,0.175,0.472,0.244l-0.146,0.328
					c-0.023,0.05-0.023,0.106-0.002,0.163c0.025,0.061,0.072,0.109,0.135,0.137c0.191,0.073,0.398,0.141,0.607,0.197
					c0.129,0.027,0.256-0.047,0.279-0.161l0.076-0.354c0.168,0.034,0.346,0.062,0.522,0.076l-0.031,0.364
					c0,0.058,0.021,0.112,0.06,0.153c0.039,0.049,0.102,0.076,0.166,0.08c0.082,0.002,0.162,0.005,0.246,0.005
					c0.125,0,0.258-0.005,0.391-0.015c0.068-0.007,0.131-0.041,0.17-0.091c0.039-0.045,0.051-0.1,0.043-0.153l-0.041-0.356
					c0.18-0.024,0.355-0.058,0.52-0.099l0.088,0.354c0.031,0.117,0.164,0.188,0.291,0.15c0.211-0.063,0.412-0.135,0.597-0.215
					c0.062-0.028,0.108-0.08,0.135-0.138c0.019-0.057,0.017-0.114-0.01-0.164l-0.156-0.329c0.158-0.076,0.313-0.164,0.459-0.261
					l0.201,0.308c0.063,0.101,0.215,0.123,0.317,0.049c0.162-0.112,0.324-0.242,0.498-0.398c0.047-0.044,0.076-0.105,0.078-0.169
					c0-0.062-0.018-0.112-0.061-0.153l-0.254-0.263c0.123-0.121,0.24-0.253,0.35-0.396l0.287,0.229
					c0.096,0.073,0.246,0.045,0.32-0.057c0.123-0.172,0.236-0.353,0.34-0.538c0.033-0.06,0.039-0.128,0.021-0.19
					c-0.021-0.054-0.058-0.099-0.109-0.123l-0.322-0.166c0.074-0.16,0.141-0.322,0.199-0.486l0.352,0.121
					c0.115,0.039,0.242-0.035,0.281-0.157c0.062-0.205,0.111-0.415,0.148-0.621c0.01-0.066-0.008-0.132-0.043-0.183
					c-0.035-0.047-0.086-0.076-0.146-0.088l-0.369-0.047c0.025-0.172,0.035-0.343,0.039-0.525h0.38V151.567z M209.17,151.53
					c0,2.314-1.883,4.199-4.196,4.199c-2.316,0-4.199-1.885-4.199-4.199c0-2.313,1.883-4.197,4.199-4.197
					C207.287,147.333,209.17,149.217,209.17,151.53z"/>
			</g>
		</g>
		<circle fill="#F2B02B" cx="48.866" cy="128.296" r="8.735"/>
		<g>
			<circle fill="#63B8B0" cx="80.932" cy="120.728" r="7.1"/>
			<path fill="#FFFFFF" d="M85.321,120.612c0.052,0,0.102-0.022,0.138-0.059c0.041-0.043,0.063-0.102,0.059-0.161
				c-0.006-0.178-0.023-0.359-0.051-0.537c-0.02-0.117-0.124-0.199-0.238-0.177l-0.294,0.059c-0.028-0.129-0.064-0.26-0.108-0.395
				l0.282-0.099c0.051-0.016,0.091-0.053,0.115-0.104c0.023-0.052,0.025-0.113,0.005-0.168c-0.062-0.16-0.136-0.328-0.226-0.489
				c-0.055-0.104-0.189-0.148-0.283-0.092l-0.261,0.151c-0.068-0.112-0.145-0.224-0.23-0.338l0.238-0.183
				c0.041-0.033,0.067-0.082,0.072-0.136c0.006-0.057-0.012-0.116-0.049-0.163c-0.117-0.138-0.241-0.271-0.37-0.388
				c-0.087-0.081-0.231-0.078-0.3,0.005l-0.2,0.229c-0.102-0.088-0.209-0.168-0.323-0.248l0.166-0.25
				c0.027-0.046,0.036-0.098,0.025-0.15c-0.01-0.056-0.047-0.107-0.1-0.142c-0.172-0.1-0.328-0.18-0.478-0.248
				c-0.113-0.05-0.242,0-0.279,0.104l-0.114,0.28c-0.137-0.051-0.264-0.093-0.391-0.126l0.073-0.293
				c0.014-0.049,0.008-0.102-0.02-0.148c-0.029-0.051-0.083-0.088-0.141-0.101c-0.172-0.04-0.352-0.065-0.534-0.081
				c-0.128-0.012-0.227,0.077-0.229,0.188l-0.014,0.303h-0.01c-0.139-0.005-0.282-0.003-0.403,0.009l-0.025-0.301
				c-0.005-0.105-0.097-0.187-0.209-0.187c-0.008,0-0.016,0.001-0.025,0.002c-0.188,0.024-0.365,0.057-0.527,0.098
				c-0.06,0.012-0.11,0.048-0.141,0.1c-0.027,0.047-0.036,0.102-0.019,0.152l0.083,0.291c-0.131,0.039-0.26,0.085-0.384,0.139
				l-0.121-0.277c-0.047-0.102-0.176-0.145-0.285-0.094c-0.17,0.083-0.328,0.171-0.469,0.263c-0.052,0.034-0.086,0.085-0.096,0.143
				c-0.012,0.053,0,0.106,0.031,0.149l0.173,0.245c-0.111,0.08-0.217,0.166-0.321,0.257l-0.205-0.221
				c-0.073-0.082-0.212-0.081-0.299,0.002c-0.114,0.114-0.228,0.242-0.356,0.403c-0.037,0.045-0.054,0.106-0.045,0.165
				c0.008,0.052,0.035,0.099,0.077,0.129l0.242,0.176c-0.082,0.111-0.153,0.228-0.219,0.346l-0.264-0.144
				c-0.099-0.049-0.229-0.002-0.278,0.101c-0.076,0.15-0.146,0.319-0.209,0.497c-0.021,0.058-0.017,0.123,0.009,0.174
				c0.026,0.047,0.066,0.082,0.115,0.097l0.282,0.085c-0.038,0.13-0.069,0.265-0.092,0.402l-0.294-0.05
				c-0.11-0.016-0.215,0.068-0.232,0.186c-0.023,0.184-0.036,0.359-0.036,0.538c0,0.118,0.086,0.211,0.205,0.211l0,0l0.296-0.008
				c0.006,0.134,0.019,0.271,0.04,0.409l-0.291,0.048c-0.05,0.007-0.095,0.038-0.126,0.081c-0.034,0.048-0.048,0.109-0.035,0.17
				c0.035,0.166,0.083,0.343,0.143,0.519c0.037,0.111,0.159,0.175,0.264,0.137l0.272-0.106c0.052,0.134,0.108,0.258,0.169,0.375
				l-0.255,0.138c-0.047,0.025-0.078,0.07-0.095,0.121c-0.014,0.057-0.005,0.118,0.025,0.168c0.095,0.16,0.196,0.31,0.299,0.446
				c0.075,0.094,0.212,0.112,0.298,0.042l0.221-0.184c0.086,0.101,0.179,0.2,0.283,0.298l-0.193,0.211
				c-0.036,0.038-0.056,0.088-0.049,0.144c0,0.059,0.03,0.113,0.077,0.154c0.142,0.122,0.287,0.233,0.426,0.324
				c0.1,0.064,0.238,0.035,0.294-0.057l0.149-0.244c0.12,0.072,0.244,0.135,0.365,0.189l-0.116,0.261
				c-0.02,0.046-0.022,0.101,0,0.151c0.02,0.054,0.066,0.099,0.124,0.122c0.161,0.063,0.333,0.121,0.513,0.168
				c0.115,0.025,0.237-0.043,0.256-0.149l0.062-0.279c0.13,0.025,0.266,0.046,0.409,0.06l-0.025,0.288
				c-0.003,0.054,0.016,0.104,0.053,0.144c0.036,0.043,0.091,0.07,0.15,0.072c0.069,0.001,0.139,0.004,0.207,0.004
				c0.105,0,0.219-0.004,0.331-0.011c0.064-0.007,0.12-0.039,0.157-0.084c0.033-0.043,0.046-0.092,0.039-0.143l-0.033-0.284
				c0.139-0.018,0.275-0.043,0.407-0.075l0.07,0.279c0.028,0.108,0.15,0.173,0.265,0.141c0.178-0.054,0.348-0.114,0.505-0.182
				c0.056-0.025,0.101-0.071,0.119-0.127c0.021-0.049,0.019-0.104-0.005-0.15l-0.125-0.261c0.124-0.059,0.244-0.128,0.359-0.203
				l0.16,0.242c0.059,0.093,0.198,0.114,0.292,0.046c0.136-0.096,0.274-0.207,0.422-0.336c0.042-0.042,0.069-0.097,0.07-0.154
				c0.003-0.055-0.021-0.104-0.054-0.143l-0.204-0.207c0.094-0.097,0.188-0.201,0.272-0.309l0.23,0.182
				c0.086,0.066,0.223,0.042,0.292-0.053c0.105-0.142,0.202-0.296,0.288-0.453c0.03-0.054,0.034-0.118,0.018-0.172
				c-0.015-0.052-0.051-0.094-0.097-0.117l-0.261-0.133c0.06-0.123,0.111-0.25,0.157-0.378l0.278,0.097
				c0.105,0.034,0.225-0.03,0.261-0.145c0.053-0.174,0.094-0.35,0.125-0.524c0.011-0.061-0.004-0.119-0.041-0.166
				c-0.03-0.045-0.079-0.072-0.128-0.081l-0.294-0.037c0.016-0.134,0.026-0.267,0.028-0.411h0.294V120.612z M84.627,120.564
				c0,1.937-1.576,3.513-3.513,3.513c-1.939,0-3.513-1.577-3.513-3.513c0-1.938,1.574-3.513,3.513-3.513
				C83.052,117.052,84.627,118.626,84.627,120.564z"/>
		</g>
		<g>
			<g>
				<path fill="#63B8B0" d="M54.388,83.239c14.932-15.895,34.906-25.02,56.243-25.693l0.008,0.294
					C66.57,59.23,31.66,96.377,31.166,142.408l-0.296-0.006C31.11,120.138,39.463,99.127,54.388,83.239z"/>
				<path fill="#63B8B0" d="M31.249,142.492l-0.461-0.006v-0.084c0.24-22.285,8.599-43.317,23.539-59.22
					c14.949-15.911,34.944-25.044,56.303-25.719l0.083-0.003l0.014,0.462l-0.083,0.002c-44.024,1.39-78.898,38.499-79.392,84.485
					L31.249,142.492z M30.955,142.321l0.128,0.002c0.537-46.008,35.422-83.129,79.47-84.563l-0.003-0.128
					c-21.283,0.694-41.204,9.806-56.102,25.665C39.555,99.15,31.214,120.108,30.955,142.321z"/>
			</g>
			<g>
				<polygon fill="#63B8B0" points="32.527,141.994 31.028,144.521 29.591,141.959 				"/>
				<path fill="#63B8B0" d="M31.027,144.688l-1.58-2.813l3.226,0.038L31.027,144.688z M29.733,142.044l1.298,2.309l1.351-2.276
					L29.733,142.044z"/>
			</g>
			<g>
				<polygon fill="#63B8B0" points="112.185,57.664 110.467,59.521 110.329,55.946 				"/>
				<path fill="#63B8B0" d="M110.392,59.726l-0.154-3.979l2.064,1.913L110.392,59.726z M110.42,56.144l0.122,3.173l1.524-1.647
					L110.42,56.144z"/>
			</g>
		</g>
		<g>
			<g>
				<path fill="#63B8B0" d="M82.219,101.563c7.931-8.442,18.54-13.288,29.871-13.645l0.005,0.156
					c-23.406,0.738-41.944,20.467-42.208,44.912l-0.158-0.001C69.857,121.16,74.294,110,82.219,101.563z"/>
				<path fill="#63B8B0" d="M70.052,133.155l-0.491-0.006l0.002-0.166c0.128-11.867,4.58-23.066,12.534-31.534
					c7.961-8.475,18.612-13.339,29.987-13.698l0.167-0.005l0.017,0.49l-0.168,0.005c-23.314,0.735-41.783,20.391-42.045,44.748
					L70.052,133.155z"/>
			</g>
			<g>
				<polygon fill="#63B8B0" points="70.61,132.768 69.814,134.109 69.051,132.748 				"/>
				<path fill="#63B8B0" d="M69.811,134.442l-1.047-1.864l2.138,0.025L69.811,134.442z M69.338,132.919l0.48,0.856l0.5-0.846
					L69.338,132.919z"/>
			</g>
			<g>
				<polygon fill="#63B8B0" points="112.915,87.98 112.002,88.967 111.928,87.067 				"/>
				<path fill="#63B8B0" d="M111.852,89.376l-0.106-2.706l1.404,1.301L111.852,89.376z M112.11,87.463l0.043,1.094l0.525-0.567
					L112.11,87.463z"/>
			</g>
		</g>
		<g>
			<g>
				<path fill="#63B8B0" d="M101.747,119.177c3.291-3.502,7.692-5.513,12.395-5.661l0.001,0.065
					c-9.711,0.307-17.405,8.492-17.513,18.636l-0.065-0.001C96.618,127.31,98.458,122.679,101.747,119.177z"/>
				<path fill="#63B8B0" d="M96.795,132.386l-0.398-0.004l0.001-0.168c0.053-4.948,1.91-9.618,5.227-13.15
					c3.322-3.535,7.766-5.565,12.511-5.715l0.168-0.005l0.011,0.399l-0.166,0.005c-9.622,0.304-17.243,8.416-17.351,18.47
					L96.795,132.386z"/>
			</g>
			<g>
				<polygon fill="#63B8B0" points="96.93,132.126 96.6,132.682 96.282,132.118 				"/>
				<polygon fill="#63B8B0" points="96.596,133.016 95.995,131.948 97.221,131.962 				"/>
			</g>
			<g>
				<polygon fill="#63B8B0" points="114.483,113.542 114.105,113.952 114.075,113.162 				"/>
				<polygon fill="#63B8B0" points="113.954,114.36 113.892,112.767 114.72,113.533 				"/>
			</g>
		</g>
		<path fill="#9BBD2F" d="M100.417,65.147c0,7.047-5.721,12.763-12.779,12.763c-7.057,0-12.772-5.715-12.772-12.763
			c0-7.046,5.715-12.754,12.772-12.754C94.695,52.393,100.417,58.101,100.417,65.147z"/>
		<ellipse fill="#FD7161" cx="65.713" cy="96.11" rx="8.675" ry="8.663"/>
		<path fill="#FD7161" d="M101.821,147.082c0,4.784-3.883,8.666-8.672,8.666c-4.794,0-8.677-3.882-8.677-8.666
			c0-4.785,3.883-8.663,8.677-8.663C97.938,138.419,101.821,142.297,101.821,147.082z"/>
		<ellipse fill="#9BBD2F" cx="110.908" cy="127.383" rx="7.73" ry="7.719"/>
		<g>
			<path fill="#F3F0E9" d="M113.76,122.08c-1.006-0.585-2.181-0.745-3.299-0.446c-1.121,0.292-2.062,1.014-2.649,2.02
				c-1.089,1.873-0.606,4.233,1.037,5.556l-1.792,3.082c-0.184,0.31-0.073,0.716,0.242,0.896c0.154,0.094,0.338,0.111,0.497,0.068
				c0.162-0.042,0.311-0.147,0.4-0.307l1.791-3.073c0.861,0.333,1.797,0.394,2.704,0.151c1.122-0.294,2.063-1.006,2.647-2.011
				C116.544,125.941,115.836,123.28,113.76,122.08z M114.197,127.352c-0.409,0.697-1.065,1.203-1.843,1.409
				c-0.783,0.205-1.601,0.093-2.295-0.312c-1.451-0.838-1.941-2.688-1.103-4.135c0.403-0.697,1.062-1.195,1.841-1.4
				c0.781-0.208,1.601-0.102,2.301,0.302C114.543,124.056,115.032,125.91,114.197,127.352z"/>
			<path fill="#F3F0E9" d="M110.797,123.48c-0.73,0.225-1.339,0.701-1.622,1.27c-0.048,0.085-0.014,0.181,0.069,0.22
				c0.039,0.021,0.079,0.026,0.115,0.014c0.04-0.013,0.082-0.041,0.105-0.082c0.248-0.491,0.785-0.907,1.432-1.11
				c0.694-0.217,1.42-0.166,2.04,0.144c0.079,0.041,0.175,0.011,0.216-0.072c0.042-0.083,0.013-0.182-0.073-0.22
				C112.39,123.293,111.579,123.238,110.797,123.48z"/>
		</g>
		<g>
			<path fill="#63B8B0" d="M231.028,112.025c-1.008-0.585-2.182-0.745-3.299-0.445c-1.123,0.292-2.062,1.014-2.649,2.02
				c-1.088,1.872-0.604,4.232,1.037,5.555l-1.793,3.083c-0.185,0.31-0.072,0.716,0.243,0.896c0.152,0.093,0.336,0.111,0.496,0.068
				c0.162-0.042,0.312-0.147,0.398-0.307l1.793-3.072c0.861,0.334,1.797,0.394,2.701,0.15c1.123-0.293,2.064-1.006,2.648-2.011
				C233.812,115.887,233.104,113.226,231.028,112.025z M231.467,117.297c-0.409,0.697-1.065,1.203-1.844,1.409
				c-0.783,0.204-1.603,0.093-2.297-0.313c-1.449-0.838-1.938-2.688-1.103-4.136c0.402-0.697,1.062-1.195,1.842-1.399
				c0.781-0.208,1.603-0.102,2.302,0.302C231.812,114.002,232.301,115.855,231.467,117.297z"/>
			<path fill="#63B8B0" d="M228.065,113.426c-0.729,0.225-1.338,0.701-1.623,1.271c-0.047,0.085-0.014,0.181,0.07,0.219
				c0.037,0.022,0.078,0.027,0.113,0.015c0.041-0.013,0.084-0.041,0.107-0.082c0.246-0.492,0.785-0.907,1.43-1.11
				c0.695-0.217,1.42-0.166,2.039,0.143c0.08,0.041,0.178,0.011,0.217-0.071c0.043-0.083,0.012-0.183-0.074-0.22
				C229.658,113.239,228.849,113.184,228.065,113.426z"/>
		</g>
		<circle fill="#FD7161" cx="241.789" cy="136.588" r="9.236"/>
		<g>
			<path fill="#FFFFFF" d="M244.666,130.761L244.666,130.761L244.666,130.761h-7.449v11.994h9.117v-10.718L244.666,130.761z
				 M245.926,142.375h-8.297v-11.234h7.031l-0.201,1.286l1.467-0.205V142.375z"/>
			<g>
				<rect x="238.604" y="133.765" fill="#FFFFFF" width="6.334" height="0.42"/>
				<rect x="238.604" y="135.442" fill="#FFFFFF" width="6.334" height="0.423"/>
				<rect x="238.604" y="137.121" fill="#FFFFFF" width="6.334" height="0.423"/>
				<rect x="238.604" y="138.803" fill="#FFFFFF" width="6.334" height="0.421"/>
			</g>
		</g>
		<g>
			<path fill="#63B8B0" d="M58.219,57.256L58.219,57.256L58.219,57.256H50.77V69.25h9.115V58.531L58.219,57.256z M59.479,68.87
				h-8.298V57.635h7.032l-0.201,1.286l1.467-0.205V68.87z"/>
			<g>
				<rect x="52.155" y="60.259" fill="#63B8B0" width="6.335" height="0.421"/>
				<rect x="52.155" y="61.938" fill="#63B8B0" width="6.335" height="0.422"/>
				<rect x="52.155" y="63.616" fill="#63B8B0" width="6.335" height="0.421"/>
				<rect x="52.155" y="65.297" fill="#63B8B0" width="6.335" height="0.42"/>
			</g>
		</g>
		<circle fill="#63B8B0" cx="39.24" cy="102.032" r="13.223"/>
		<path fill="#F2B02B" d="M82.524,94.576c0,5.849,4.743,10.595,10.592,10.595c5.849,0,10.593-4.746,10.593-10.595
			c0-5.847-4.744-10.59-10.593-10.59C87.267,83.986,82.524,88.729,82.524,94.576z"/>
		<g>
			<g>
				<path fill="#63B8B0" d="M237.172,83.239c-14.935-15.895-34.907-25.02-56.244-25.692l-0.008,0.294
					c44.07,1.39,78.979,38.537,79.474,84.568l0.297-0.006C260.449,120.138,252.099,99.127,237.172,83.239z"/>
				<path fill="#63B8B0" d="M260.31,142.409c-0.494-45.986-35.367-83.095-79.392-84.485l-0.084-0.002l0.015-0.462l0.084,0.003
					c21.356,0.675,41.354,9.808,56.301,25.719c14.938,15.903,23.299,36.935,23.539,59.22v0.084l-0.461,0.006L260.31,142.409z
					 M237.108,83.297c-14.896-15.858-34.815-24.971-56.1-25.665l-0.004,0.128c44.049,1.434,78.934,38.555,79.471,84.563l0.127-0.002
					C260.347,120.108,252.004,99.15,237.108,83.297z"/>
			</g>
			<g>
				<polygon fill="#63B8B0" points="259.033,141.994 260.531,144.521 261.969,141.959 				"/>
				<path fill="#63B8B0" d="M258.89,141.912l3.225-0.038l-1.582,2.812L258.89,141.912z M259.179,142.075l1.352,2.277l1.297-2.31
					L259.179,142.075z"/>
			</g>
			<g>
				<polygon fill="#63B8B0" points="179.375,57.664 181.094,59.521 181.229,55.946 				"/>
				<path fill="#63B8B0" d="M179.258,57.66l2.063-1.913l-0.153,3.979L179.258,57.66z M179.494,57.669l1.521,1.647l0.123-3.173
					L179.494,57.669z"/>
			</g>
		</g>
		<g>
			<g>
				<path fill="#63B8B0" d="M209.34,101.563c-7.932-8.442-18.537-13.288-29.868-13.645l-0.007,0.156
					c23.406,0.738,41.943,20.467,42.207,44.912l0.158-0.001C221.701,121.16,217.269,110,209.34,101.563z"/>
				<path fill="#63B8B0" d="M221.508,133.155l0.49-0.006l-0.002-0.166c-0.127-11.867-4.58-23.066-12.533-31.534
					c-7.961-8.475-18.61-13.339-29.987-13.698l-0.166-0.005l-0.019,0.49l0.168,0.005c23.313,0.735,41.783,20.391,42.047,44.748
					L221.508,133.155z"/>
			</g>
			<g>
				<polygon fill="#63B8B0" points="220.949,132.768 221.744,134.109 222.508,132.748 				"/>
				<path fill="#63B8B0" d="M220.658,132.604l2.139-0.025l-1.049,1.864L220.658,132.604z M221.24,132.93l0.5,0.846l0.481-0.856
					L221.24,132.93z"/>
			</g>
			<g>
				<polygon fill="#63B8B0" points="178.646,87.98 179.558,88.967 179.631,87.067 				"/>
				<path fill="#63B8B0" d="M178.408,87.972l1.405-1.301l-0.104,2.706L178.408,87.972z M178.881,87.99l0.525,0.567l0.043-1.094
					L178.881,87.99z"/>
			</g>
		</g>
		<g>
			<g>
				<path fill="#63B8B0" d="M189.812,119.177c-3.291-3.502-7.69-5.513-12.393-5.661l-0.004,0.065
					c9.713,0.307,17.404,8.492,17.514,18.636l0.064-0.001C194.94,127.31,193.103,122.679,189.812,119.177z"/>
				<path fill="#63B8B0" d="M194.767,132.386l0.396-0.004v-0.168c-0.054-4.948-1.91-9.618-5.228-13.15
					c-3.322-3.535-7.766-5.565-12.512-5.715l-0.168-0.005l-0.01,0.399l0.166,0.005c9.621,0.304,17.242,8.416,17.35,18.47
					L194.767,132.386z"/>
			</g>
			<g>
				<polygon fill="#63B8B0" points="194.629,132.126 194.961,132.682 195.276,132.118 				"/>
				<polygon fill="#63B8B0" points="194.965,133.016 195.563,131.948 194.338,131.962 				"/>
			</g>
			<g>
				<polygon fill="#63B8B0" points="177.076,113.542 177.455,113.952 177.483,113.162 				"/>
				<polygon fill="#63B8B0" points="177.604,114.36 177.668,112.767 176.84,113.533 				"/>
			</g>
		</g>
		<ellipse fill="#9BBD2F" cx="180.401" cy="127.878" rx="9.716" ry="9.702"/>
		<circle fill="#9BBD2F" cx="200.646" cy="61.785" r="13.091"/>
		<path fill="#F2B02B" d="M228.207,95.086c0,9.321,7.56,16.877,16.879,16.877c9.315,0,16.875-7.556,16.875-16.877
			c0-9.321-7.56-16.877-16.875-16.877C235.767,78.209,228.207,85.766,228.207,95.086z"/>
		<circle fill="#FD7161" cx="207.478" cy="104.027" r="8.757"/>
		<circle fill="#9BBD2F" cx="66.228" cy="153.283" r="8.242"/>
		<g>
			<path fill="#FFFFFF" d="M201.924,104.507l3.933-1.925v0.836l-2.883,1.344v0.016l2.883,1.335v0.828l-3.933-1.925V104.507z"/>
			<path fill="#FFFFFF" d="M206.147,107.269l1.929-5.915h0.694l-1.926,5.915H206.147z"/>
			<path fill="#FFFFFF" d="M213.031,105.122l-3.941,1.819v-0.812l3.146-1.36v-0.016l-3.146-1.36v-0.811l3.941,1.819V105.122z"/>
		</g>
		<g>
			<path fill="#63B8B0" d="M201.922,132.145l3.933-1.925v0.836l-2.883,1.343v0.017l2.883,1.336v0.827l-3.933-1.925V132.145z"/>
			<path fill="#63B8B0" d="M206.147,134.905l1.927-5.914h0.696l-1.926,5.914H206.147z"/>
			<path fill="#63B8B0" d="M213.031,132.76l-3.941,1.818v-0.812l3.146-1.359v-0.017l-3.146-1.359v-0.812l3.941,1.819V132.76z"/>
		</g>
		<g>
			<path fill="#FFFFFF" d="M96.606,147.335c-0.49,0-0.599,0.29-0.599,0.509c0,0.236,0.027,0.481,0.055,0.718
				c0.027,0.244,0.055,0.481,0.055,0.736c0,0.971-0.618,1.307-1.362,1.307h-0.191v-0.734h0.119c0.417-0.036,0.508-0.301,0.508-0.637
				c0-0.189-0.019-0.381-0.027-0.562c-0.027-0.199-0.046-0.39-0.046-0.57c0-0.619,0.237-0.982,0.69-1.119v-0.019
				c-0.454-0.146-0.69-0.526-0.69-1.116c0-0.174,0.019-0.346,0.046-0.535c0.009-0.19,0.027-0.392,0.027-0.601
				c0-0.345-0.145-0.59-0.49-0.617h-0.137v-0.735h0.164c0.863,0,1.39,0.444,1.39,1.317c0,0.255-0.027,0.489-0.055,0.734
				c-0.027,0.228-0.055,0.453-0.055,0.698c0,0.246,0.109,0.51,0.599,0.51L96.606,147.335L96.606,147.335z"/>
		</g>
		<g>
			<path fill="#FFFFFF" d="M89.047,146.617c0.49,0,0.599-0.263,0.599-0.511c0-0.244-0.027-0.472-0.055-0.697
				c-0.027-0.245-0.055-0.48-0.055-0.734c0-0.873,0.527-1.317,1.389-1.317h0.164v0.735h-0.136c-0.345,0.027-0.49,0.272-0.49,0.617
				c0,0.209,0.018,0.409,0.036,0.6s0.036,0.362,0.036,0.535c0,0.592-0.236,0.973-0.69,1.117v0.02c0.454,0.136,0.69,0.5,0.69,1.117
				c0,0.183-0.018,0.371-0.036,0.571c-0.019,0.183-0.036,0.373-0.036,0.562c0,0.338,0.091,0.602,0.508,0.638h0.118v0.735h-0.19
				c-0.745,0-1.362-0.336-1.362-1.308c0-0.255,0.028-0.491,0.055-0.737c0.027-0.234,0.055-0.479,0.055-0.717
				c0-0.219-0.109-0.509-0.599-0.509L89.047,146.617L89.047,146.617z"/>
		</g>
		<g>
			<g>
				<path fill="#63B8B0" d="M214.84,86.267c-0.489,0-0.6,0.29-0.6,0.508c0,0.236,0.026,0.481,0.055,0.717
					c0.026,0.245,0.056,0.482,0.056,0.736c0,0.971-0.617,1.307-1.361,1.307h-0.191V88.8h0.119c0.416-0.036,0.508-0.3,0.508-0.636
					c0-0.19-0.018-0.381-0.027-0.563c-0.024-0.2-0.045-0.39-0.045-0.571c0-0.618,0.236-0.981,0.689-1.117v-0.018
					c-0.453-0.146-0.689-0.526-0.689-1.117c0-0.172,0.021-0.345,0.045-0.536c0.011-0.19,0.027-0.391,0.027-0.599
					c0-0.346-0.145-0.59-0.488-0.617h-0.139V82.29h0.164c0.861,0,1.389,0.445,1.389,1.316c0,0.255-0.026,0.491-0.055,0.735
					c-0.027,0.227-0.055,0.454-0.055,0.699s0.109,0.509,0.6,0.509L214.84,86.267L214.84,86.267z"/>
			</g>
			<g>
				<path fill="#63B8B0" d="M207.281,85.549c0.489,0,0.6-0.263,0.6-0.509s-0.026-0.472-0.057-0.699
					c-0.025-0.245-0.054-0.48-0.054-0.735c0-0.871,0.525-1.316,1.39-1.316h0.164v0.736h-0.14c-0.344,0.027-0.487,0.271-0.487,0.617
					c0,0.208,0.018,0.409,0.036,0.599c0.019,0.191,0.035,0.363,0.035,0.536c0,0.59-0.235,0.971-0.69,1.117v0.018
					c0.455,0.136,0.69,0.5,0.69,1.117c0,0.181-0.018,0.372-0.035,0.571c-0.02,0.182-0.036,0.373-0.036,0.563
					c0,0.336,0.09,0.6,0.508,0.636h0.119v0.735h-0.191c-0.743,0-1.36-0.336-1.36-1.307c0-0.254,0.026-0.491,0.053-0.736
					c0.029-0.236,0.057-0.48,0.057-0.717c0-0.218-0.109-0.508-0.6-0.508L207.281,85.549L207.281,85.549z"/>
			</g>
		</g>
		<g>
			<path fill="#FFFFFF" d="M58.443,96.147l3.932-1.925v0.836l-2.884,1.344v0.016l2.884,1.335v0.828l-3.932-1.925V96.147z"/>
			<path fill="#FFFFFF" d="M63.244,96.443c0-0.41,0.295-0.712,0.63-0.712c0.345,0,0.623,0.27,0.623,0.712
				c0,0.434-0.254,0.713-0.639,0.713C63.53,97.156,63.244,96.877,63.244,96.443z"/>
			<path fill="#FFFFFF" d="M65.152,96.443c0-0.41,0.295-0.712,0.63-0.712c0.344,0,0.623,0.27,0.623,0.712
				c0,0.434-0.254,0.713-0.639,0.713C65.438,97.156,65.152,96.877,65.152,96.443z"/>
			<path fill="#FFFFFF" d="M67.061,96.443c0-0.41,0.295-0.712,0.631-0.712c0.344,0,0.623,0.27,0.623,0.712
				c0,0.434-0.254,0.713-0.639,0.713C67.348,97.156,67.061,96.877,67.061,96.443z"/>
			<path fill="#FFFFFF" d="M72.984,96.762l-3.941,1.818v-0.811l3.146-1.36v-0.016l-3.146-1.36v-0.811l3.941,1.819V96.762z"/>
		</g>
		<g>
			<path fill="#63B8B0" d="M181.237,80.176l3.933-1.926v0.836l-2.883,1.343v0.017l2.883,1.335v0.827l-3.933-1.925V80.176z"/>
			<path fill="#63B8B0" d="M186.037,80.473c0-0.41,0.295-0.713,0.631-0.713c0.347,0,0.623,0.271,0.623,0.713
				c0,0.434-0.254,0.712-0.64,0.712C186.324,81.186,186.037,80.907,186.037,80.473z"/>
			<path fill="#63B8B0" d="M187.947,80.473c0-0.41,0.295-0.713,0.631-0.713c0.344,0,0.621,0.271,0.621,0.713
				c0,0.434-0.255,0.712-0.64,0.712C188.231,81.186,187.947,80.907,187.947,80.473z"/>
			<path fill="#63B8B0" d="M189.854,80.473c0-0.41,0.295-0.713,0.629-0.713c0.347,0,0.623,0.271,0.623,0.713
				c0,0.434-0.252,0.712-0.639,0.712C190.142,81.186,189.854,80.907,189.854,80.473z"/>
			<path fill="#63B8B0" d="M195.776,80.791l-3.938,1.819v-0.811l3.146-1.36v-0.016l-3.146-1.36V78.25l3.938,1.819V80.791z"/>
		</g>
		<polygon fill="#FFFFFF" points="70.125,151.128 68.177,148.806 66.228,146.481 64.279,148.806 62.33,151.128 64.049,151.128 
			64.049,158.426 68.407,158.426 68.407,151.128 		"/>
		<g>
			<g>
				<path fill="#FBD9A5" d="M164.202,170.708c-0.574-0.989-1.92,1.104-2.576,2.766c-0.344-0.589-1.703-8.662-1.885-12.173
					c-3.744-3.977-8.568-4.485-14.629-4.485c-6.647,0-14.077-1.469-17.921,1.772c-0.216,4.302-0.658,14.142-0.651,14.549
					c-0.655-1.597-1.798-3.382-2.351-2.429c-0.963,1.657-2.29,3.898-0.754,6.961c1.54,3.062,2.021,4.403,3.083,3.245
					c0.181-0.192,0.312-0.483,0.411-0.819l3.086,11.747l7.529,3.183c0.354,3.627,0.548,8.338,0.194,9.401
					c-0.732,2.231-6.229,13.88-6.229,13.88c23.387,0.651,23.436,0.116,26.157,1.017c2.438,0.8-5.871-12.248-6.717-14.272
					c-0.451-1.06-0.543-6.499-0.427-10.381l7.476-3.906l3.278-9.84c0.084-0.205,0.171-0.395,0.253-0.607
					c0.092,0.24,0.192,0.447,0.34,0.601c1.063,1.158,1.539-0.183,3.086-3.245C166.495,174.606,165.171,172.365,164.202,170.708z"/>
			</g>
			<g>
				<polygon fill="#4B4B4D" points="161.423,180.772 158.036,190.948 144.376,198.084 130.051,192.021 126.968,180.283 
					131.63,189.833 144.62,195.795 156.97,189.187 				"/>
			</g>
			<g>
				<path fill="#231F20" d="M167.274,160.335c-0.724-3.027-5.533-8.238-10.123-10.546c-2.582-1.286-3.908-1.418-4.58-1.287
					l1.025-0.581c0,0-1.464-0.832-2.812-0.941c-1.363-0.097-10.143,1.043-10.031,0.201c0.106-0.824,1.253-1.664,1.253-1.664
					s-6.792,0.524-8.881,1.572c-2.081,1.035-4.286,6.985-4.286,6.985s-3.792-2.363-4.903,0.519
					c-2.116,5.487,0.014,3.592-0.092,11.104c-0.096,7.513,1.32,7.959,1.639,8.792c0.322,0.838,0.68-1.329,2.761-4.983
					c2.088-3.638,1.225-11.559,1.225-11.559s0.944,1.647,6.573,1.778c5.649,0.137,6.793-0.852,13.481,0
					c6.687,0.862,5.853,2.91,7.104,8.015c1.25,5.103,4.147,9.019,4.147,9.019s1.49-6.835,3.162-7.457
					c1.674-0.617,4.283-0.568,4.283-0.568S168.021,163.356,167.274,160.335z"/>
			</g>
			<g>
				<path fill="#6D6E71" d="M182.825,237.62l-12.082-31.059c-5.447-3.863-20.197-5.02-20.197-5.02l-6.111,7.921h-1.347l-5.978-7.079
					c0.024-0.07,0.043-0.111,0.043-0.111s-0.058,0-0.136,0l-0.131-0.153l-0.112,0.164c-2.383,0.1-15.313,0.778-20.248,4.278
					l-15.114,31.059c0,0-11.43,18.299,3.383,18.299c5.505,0,15.129,0.104,15.129,0.104l0.039-9.032l-11.444-2.081l13.589-25.475
					l-0.167,40.549h43.385l0.241-42.049l8.556,26.051l-7.892,2.007l0.117,10.03c0,0,6.185,0,11.691,0
					C192.853,256.022,182.825,237.62,182.825,237.62z"/>
			</g>
			<g>
				<g>
					<g>
						<polygon fill="#52A39D" points="131.641,211.847 127.485,217.224 131.641,222.728 135.917,217.258 						"/>
					</g>
					<g>
						<polygon fill="#52A39D" points="139.758,211.847 135.602,217.224 139.758,222.728 144.033,217.258 						"/>
					</g>
					<g>
						<polygon fill="#52A39D" points="147.767,211.847 143.607,217.224 147.767,222.728 152.044,217.258 						"/>
					</g>
					<g>
						<polygon fill="#52A39D" points="155.866,211.847 151.714,217.224 155.866,222.728 160.146,217.258 						"/>
					</g>
				</g>
				<g>
					<g>
						<polygon fill="#52A39D" points="131.641,222.29 127.485,227.671 131.641,233.172 135.917,227.701 						"/>
					</g>
					<g>
						<polygon fill="#52A39D" points="139.758,222.29 135.602,227.671 139.758,233.172 144.033,227.701 						"/>
					</g>
					<g>
						<polygon fill="#52A39D" points="147.767,222.29 143.607,227.671 147.767,233.172 152.044,227.701 						"/>
					</g>
					<g>
						<polygon fill="#52A39D" points="155.866,222.29 151.714,227.671 155.866,233.172 160.146,227.701 						"/>
					</g>
				</g>
				<g>
					<g>
						<polygon fill="#52A39D" points="131.641,232.735 127.485,238.11 131.641,243.615 135.917,238.144 						"/>
					</g>
					<g>
						<polygon fill="#52A39D" points="139.758,232.735 135.602,238.11 139.758,243.615 144.033,238.144 						"/>
					</g>
					<g>
						<polygon fill="#52A39D" points="147.767,232.735 143.607,238.11 147.767,243.615 152.044,238.144 						"/>
					</g>
					<g>
						<polygon fill="#52A39D" points="155.866,232.735 151.714,238.11 155.866,243.615 160.146,238.144 						"/>
					</g>
				</g>
				<g>
					<g>
						<polygon fill="#52A39D" points="131.641,243.177 127.485,248.56 131.641,254.058 135.917,248.587 						"/>
					</g>
					<g>
						<polygon fill="#52A39D" points="139.758,243.177 135.602,248.56 139.758,254.058 144.033,248.587 						"/>
					</g>
					<g>
						<polygon fill="#52A39D" points="147.767,243.177 143.607,248.56 147.767,254.058 152.044,248.587 						"/>
					</g>
					<g>
						<polygon fill="#52A39D" points="155.866,243.177 151.714,248.56 155.866,254.058 160.146,248.587 						"/>
					</g>
				</g>
			</g>
			<g>
				<path fill="#63B8B0" d="M161.771,168.573h-14.61l-3.479,1.509l-3.37-1.509h-14.856c0,0.004,0,0.013,0,0.018l1.026,4.743
					l-0.007-0.004c0.33,1.039,0.513,2.112,0.825,3.153c0.181,0.578,0.404,1.146,0.747,1.658c0.333,0.508,0.807,0.935,1.359,1.231
					c1.111,0.601,2.421,0.776,3.688,0.765c1.274-0.022,2.545-0.234,3.749-0.611c0.602-0.192,1.192-0.42,1.752-0.717
					c0.272-0.141,0.537-0.3,0.793-0.485c0.251-0.171,0.445-0.392,0.63-0.636c0.351-0.488,0.619-1.037,0.856-1.594
					c0.24-0.555,0.453-1.123,0.651-1.695c0.212-0.574,0.403-1.147,0.647-1.721c0.064-0.146,0.124-0.287,0.209-0.427
					c0.035-0.067,0.077-0.136,0.131-0.207c0.059-0.063,0.105-0.138,0.217-0.202c0.312-0.15,0.65-0.217,1.003-0.201
					c0.272-0.016,0.556,0.021,0.817,0.111c0.029,0.018,0.062,0.028,0.099,0.041l0.043,0.021c0.018,0.008,0.043,0.019,0.063,0.027
					c0.07,0.057,0.127,0.106,0.172,0.168c0.095,0.108,0.164,0.225,0.218,0.338c0.243,0.454,0.405,0.916,0.592,1.379
					c0.34,0.926,0.672,1.848,1.098,2.73c0.209,0.436,0.441,0.865,0.738,1.246c0.146,0.186,0.303,0.357,0.49,0.49
					c0.194,0.145,0.41,0.273,0.625,0.396c0.871,0.483,1.842,0.818,2.834,1.046c0.985,0.226,2.004,0.351,3.018,0.337
					c1.023-0.012,2.033-0.151,2.943-0.535c0.451-0.191,0.877-0.443,1.223-0.766c0.348-0.318,0.613-0.72,0.83-1.141
					c0.426-0.857,0.625-1.819,0.859-2.77c0.176-0.746,1.379-6.174,1.379-6.174C161.771,168.586,161.771,168.577,161.771,168.573z
					 M140.476,174.197c-0.224,0.696-0.538,1.37-0.974,1.969c-0.435,0.604-1.005,1.119-1.664,1.495
					c-0.657,0.372-1.397,0.592-2.145,0.751c-0.751,0.151-1.515,0.229-2.279,0.228c-0.758-0.005-1.526-0.098-2.23-0.334
					c-0.35-0.129-0.68-0.291-0.956-0.513c-0.077-0.056-0.138-0.114-0.198-0.173c-0.057-0.055-0.109-0.124-0.159-0.195
					c-0.106-0.14-0.194-0.297-0.275-0.455c-0.34-0.635-0.566-1.326-0.747-2.018c-0.177-0.699-0.29-1.411-0.305-2.119
					c-0.018-0.705,0.06-1.436,0.389-2.038c0.163-0.287,0.415-0.519,0.733-0.664c0.319-0.155,0.68-0.235,1.052-0.29
					c0.743-0.109,1.519-0.127,2.29-0.168c0.774-0.047,1.532-0.096,2.305-0.096c0.764,0,1.532,0.027,2.301,0.129
					c0.754,0.104,1.515,0.255,2.194,0.602c0.333,0.178,0.641,0.406,0.843,0.717c0.208,0.305,0.286,0.677,0.279,1.035
					C140.912,172.793,140.695,173.501,140.476,174.197z M159.083,174.952c-0.176,0.691-0.402,1.383-0.736,2.018
					c-0.088,0.158-0.176,0.315-0.283,0.455c-0.045,0.071-0.104,0.143-0.153,0.195c-0.062,0.059-0.134,0.117-0.205,0.173
					c-0.272,0.222-0.606,0.384-0.957,0.513c-0.697,0.236-1.461,0.329-2.228,0.334c-0.768,0.004-1.533-0.076-2.278-0.228
					c-0.746-0.159-1.488-0.379-2.148-0.751c-0.657-0.376-1.225-0.891-1.659-1.495c-0.438-0.599-0.748-1.272-0.976-1.969
					c-0.219-0.696-0.431-1.404-0.449-2.14c-0.006-0.357,0.064-0.729,0.273-1.035c0.209-0.31,0.52-0.537,0.854-0.715
					c0.669-0.348,1.431-0.498,2.191-0.603c0.764-0.101,1.526-0.129,2.297-0.129c0.774,0,1.53,0.049,2.305,0.096
					c0.779,0.041,1.546,0.06,2.289,0.168c0.369,0.054,0.732,0.136,1.052,0.29c0.315,0.146,0.578,0.377,0.727,0.664
					c0.336,0.604,0.406,1.333,0.396,2.038C159.378,173.541,159.265,174.253,159.083,174.952z"/>
			</g>
		</g>
		<rect x="94.434" y="255.692" fill="#C6C1B9" width="98.479" height="4.795"/>
		<g>
			<g>
				<g>
					<path fill="#E6E7E8" d="M170.54,253.028c0,2.32-1.984,3.328-4.51,3.328h-46.606c-2.427,0-4.512-0.646-4.512-3.328
						l-0.943-25.229c0-2.594,0.668-3.322,3.095-3.322h51.324c2.467,0,3.098,0.906,3.098,3.322L170.54,253.028z"/>
					<path fill="#FFFFFF" d="M168.339,224.478h-51.326c-2.427,0-3.004,0.568-3.004,2.364L114,226.933c0,0-0.082-1.431,28.603-1.431
						c28.746,0,28.83,1.366,28.83,1.366v-0.088C171.433,225.108,170.804,224.478,168.339,224.478z"/>
					<path fill="#939598" d="M114,226.933c0.24-0.318,2.26-0.574,3.449-0.754c1.189-0.171,2.385-0.309,3.583-0.432
						c2.395-0.23,4.799-0.379,7.203-0.493c4.81-0.226,9.627-0.229,14.44-0.188c4.812,0.065,9.62,0.179,14.432,0.377
						c2.406,0.111,4.809,0.238,7.207,0.416c1.201,0.097,2.399,0.201,3.594,0.338c0.754,0.043,3.209,0.339,3.525,0.672
						c-0.263-0.139-0.568-0.174-0.859-0.23c-0.295-0.053-0.594-0.09-0.889-0.125c-0.597-0.076-1.197-0.13-1.793-0.18
						c-1.197-0.098-2.396-0.165-3.597-0.223c-2.399-0.129-4.805-0.209-7.205-0.272c-4.805-0.144-9.612-0.219-14.423-0.282
						c-4.806-0.091-9.623,0.021-14.425,0.149c-2.403,0.063-4.793,0.099-7.188,0.272C118.663,226.161,116.344,226.426,114,226.933z"
						/>
				</g>
				<path opacity="0.09" fill="#808285" enable-background="new    " d="M170.573,224.878c0,0-9.539,10.844-24.287,19.004
					c-14.606,8.081-31.041,10.729-31.041,10.729c0.681,1.369,2.326,1.746,4.178,1.746h46.605c2.525,0,4.511-1.008,4.511-3.328
					l0.944-25.229C171.433,226.276,171.485,225.319,170.573,224.878z"/>
			</g>
			<g>
				<ellipse fill="#E6E7E8" cx="143.364" cy="240.618" rx="3.818" ry="1.104"/>
			</g>
		</g>
		<g>
			<g>
				<g>
					<g>
						<path fill="#63B8B0" d="M145.069,126.625c-2.563,0-4.394-0.383-4.463-0.402l-0.289-0.059l-8.279-22.32l0.795,0.018
							c0.096,0.004,9.006,0.197,11.952,0.197c3.128,0,12.61-0.193,12.704-0.197l0.779-0.018l-7.979,22.312l-0.283,0.066
							C149.928,126.242,148.149,126.625,145.069,126.625z M141.12,125.219c0.6,0.109,2.076,0.33,3.951,0.33
							c2.258,0,3.805-0.221,4.406-0.328l7.237-20.26c-2.34,0.047-9.325,0.182-11.931,0.182c-2.436,0-8.907-0.135-11.174-0.182
							L141.12,125.219z"/>
					</g>
				</g>
				<g>
					<path fill="#63B8B0" d="M133.887,111.275L133.887,111.275c-1.805,0-3.223-0.967-3.307-2.242
						c-0.033-0.504,0.15-1.006,0.531-1.441c0.607-0.684,1.652-1.139,2.801-1.205l22.194-1.363c1.933-0.119,3.527,0.881,3.617,2.225
						c0.078,1.373-1.389,2.531-3.326,2.652l-22.201,1.363C134.096,111.268,133.989,111.275,133.887,111.275z M156.41,106
						c-0.082,0-0.164,0-0.25,0.008l-22.189,1.359c-0.879,0.055-1.688,0.391-2.115,0.877c-0.146,0.16-0.311,0.424-0.297,0.723
						c0.051,0.727,1.094,1.322,2.328,1.322l0,0c0.084,0,0.168-0.002,0.252-0.014l22.189-1.357c1.356-0.084,2.461-0.816,2.409-1.611
						C158.69,106.59,157.646,106,156.41,106z"/>
				</g>
				<g>
					<path fill="#63B8B0" d="M135.952,116.396c-1.535,0-2.787-0.992-2.854-2.264c-0.041-0.572,0.166-1.135,0.576-1.594
						c0.518-0.592,1.328-0.965,2.211-1.02l18.23-1.109c1.641-0.121,3.006,0.9,3.1,2.244c0.076,1.35-1.188,2.518-2.817,2.615
						l-18.221,1.121C136.108,116.393,136.026,116.396,135.952,116.396z M154.336,111.383l-0.166,0.012l-18.23,1.109
						c-0.623,0.039-1.182,0.287-1.533,0.684c-0.166,0.188-0.352,0.492-0.33,0.891c0.043,0.752,0.863,1.332,1.875,1.332l0.164-0.004
						l18.22-1.115c1.063-0.068,1.937-0.785,1.899-1.576C156.181,111.971,155.347,111.383,154.336,111.383z"/>
				</g>
				<g>
					<path fill="#63B8B0" d="M137.831,121.83c-1.305,0-2.385-1.002-2.469-2.283c-0.078-1.346,0.955-2.502,2.305-2.588l14.814-0.902
						c1.309,0,2.395,1.006,2.463,2.287c0.045,0.629-0.166,1.258-0.598,1.744c-0.439,0.5-1.046,0.797-1.707,0.84L137.831,121.83z
						 M152.479,117.039l-14.75,0.9c-0.805,0.051-1.428,0.746-1.387,1.541c0.051,0.764,0.699,1.363,1.488,1.363v0.494l0.086-0.494
						l14.658-0.9c0.403-0.023,0.768-0.203,1.034-0.504c0.248-0.287,0.375-0.654,0.347-1.035
						C153.924,117.637,153.271,117.039,152.479,117.039z"/>
				</g>
				<g>
					<path fill="#63B8B0" d="M139.774,125.645c-1.023,0-1.879-0.762-1.943-1.73c-0.076-1.01,0.732-1.877,1.793-1.941l10.805-0.568
						l0,0c1.135,0,1.985,0.762,2.053,1.74c0.035,0.5-0.154,1.002-0.531,1.367c-0.33,0.336-0.781,0.533-1.268,0.559L139.774,125.645z
						 M150.528,122.252l-10.842,0.576c-0.521,0.025-0.914,0.494-0.873,1.035c0.035,0.523,0.459,0.926,0.961,0.926v0.43l0.053-0.43
						l10.796-0.568c0.219-0.012,0.428-0.109,0.601-0.27c0.188-0.197,0.297-0.477,0.276-0.756
						C151.465,122.67,151.031,122.252,150.528,122.252z"/>
				</g>
			</g>
			<g>
				<path fill="#63B8B0" d="M155.879,102.189h-22.753l-0.168-1.283c-0.029-0.125-1.781-12.133-8.82-21.66
					c-6.109-8.238-10.059-15.008-5.242-27.236c6.031-15.477,22.93-16.264,26.265-16.264c3.33,0,20.252,0.787,26.258,16.264
					c4.789,12.238,0.863,19.006-5.23,27.236c-7.051,9.527-8.803,21.535-8.828,21.66l-0.178,1.283H155.879z"/>
			</g>
			<g opacity="0.2">
				<path fill="#63B8B0" d="M171.418,52.01c-2.728-7.023-7.696-11.004-12.629-13.271l-27.007,56.955
					c0.844,3.076,1.158,5.16,1.166,5.213l0.176,1.283h22.751h1.308l0.176-1.283c0.026-0.125,1.776-12.133,8.815-21.66
					C172.281,71.016,176.207,64.248,171.418,52.01z"/>
			</g>
			<g>
				<path fill="#63B8B0" d="M168.603,63.955c0,12.947-10.504,23.447-23.459,23.447c-12.945,0-23.441-10.5-23.441-23.447
					c0-12.955,10.496-23.455,23.441-23.455C158.099,40.5,168.603,51,168.603,63.955z"/>
			</g>
			<g>
				<path fill="#FFFFFF" d="M164.81,63.943c0,10.854-8.816,19.645-19.658,19.645c-10.886,0-19.656-8.791-19.656-19.645
					c0-10.84,8.77-19.629,19.656-19.629C155.992,44.314,164.81,53.104,164.81,63.943z"/>
			</g>
		</g>
	</g>
</g>
<g id="Layer_2">
	<g enable-background="new    ">
		<path fill="#FFFFFF" d="M34.219,107.472c-0.469,0-0.914-0.05-1.333-0.15c-0.442-0.104-0.893-0.26-1.354-0.465v-1.613
			c0.415,0.369,0.843,0.645,1.285,0.827c0.451,0.187,0.912,0.28,1.381,0.28c0.305,0,0.575-0.041,0.81-0.123s0.418-0.212,0.55-0.39
			c0.255-0.337,0.383-0.969,0.383-1.894v-5.715h-2.604v-1.162h3.985v6.877c0,0.656-0.058,1.204-0.174,1.644
			c-0.116,0.44-0.3,0.799-0.55,1.077s-0.571,0.481-0.96,0.612C35.248,107.406,34.775,107.472,34.219,107.472z"/>
		<path fill="#FFFFFF" d="M43.208,107.472c-0.242,0-0.485-0.013-0.731-0.038c-0.246-0.024-0.488-0.062-0.725-0.112
			s-0.481-0.116-0.731-0.198s-0.492-0.171-0.725-0.267v-1.47c0.264,0.169,0.52,0.313,0.766,0.434
			c0.246,0.121,0.488,0.221,0.725,0.298c0.465,0.155,0.932,0.232,1.401,0.232c0.342,0,0.65-0.039,0.926-0.116
			s0.512-0.193,0.708-0.349c0.201-0.159,0.348-0.351,0.441-0.574s0.14-0.48,0.14-0.772c0-0.255-0.033-0.474-0.099-0.656
			s-0.165-0.34-0.297-0.472c-0.146-0.15-0.329-0.273-0.55-0.369s-0.502-0.183-0.844-0.26l-0.738-0.171
			c-0.46-0.104-0.862-0.234-1.207-0.39s-0.63-0.349-0.858-0.581c-0.428-0.429-0.643-1.01-0.643-1.743
			c0-0.465,0.08-0.882,0.239-1.251s0.387-0.686,0.684-0.95c0.292-0.26,0.642-0.46,1.049-0.602s0.872-0.212,1.391-0.212
			c0.196,0,0.396,0.01,0.602,0.031c0.205,0.02,0.417,0.053,0.636,0.099c0.424,0.087,0.879,0.221,1.367,0.403v1.401
			c-0.219-0.142-0.432-0.261-0.639-0.358c-0.208-0.099-0.414-0.182-0.619-0.25c-0.424-0.137-0.848-0.205-1.271-0.205
			c-0.31,0-0.599,0.036-0.868,0.109s-0.499,0.187-0.69,0.342s-0.333,0.34-0.424,0.554s-0.137,0.451-0.137,0.711
			c0,0.232,0.033,0.427,0.099,0.585c0.066,0.156,0.158,0.292,0.277,0.406c0.141,0.132,0.322,0.246,0.543,0.342
			s0.502,0.183,0.844,0.26l0.725,0.164c0.483,0.109,0.896,0.252,1.237,0.428c0.342,0.175,0.625,0.384,0.848,0.625
			c0.442,0.474,0.663,1.121,0.663,1.941c0,0.52-0.08,0.963-0.239,1.33c-0.16,0.366-0.378,0.668-0.656,0.905
			c-0.301,0.255-0.671,0.446-1.111,0.574S43.773,107.472,43.208,107.472z"/>
	</g>
	<g enable-background="new    ">
		<path fill="#FFFFFF" d="M175.007,129.98c-0.258,0-0.492-0.041-0.704-0.122c-0.212-0.082-0.392-0.202-0.54-0.36
			c-0.15-0.161-0.263-0.354-0.338-0.577c-0.076-0.224-0.113-0.477-0.113-0.759c0-0.295,0.04-0.554,0.119-0.776
			c0.08-0.223,0.191-0.41,0.336-0.562c0.152-0.16,0.333-0.28,0.543-0.36c0.209-0.079,0.441-0.119,0.699-0.119
			c0.096,0,0.183,0.006,0.264,0.016c0.08,0.011,0.159,0.027,0.238,0.05c0.156,0.043,0.316,0.11,0.479,0.201v0.597
			c-0.076-0.066-0.151-0.124-0.226-0.173c-0.074-0.05-0.149-0.089-0.226-0.118c-0.154-0.06-0.326-0.09-0.514-0.09
			c-0.358,0-0.634,0.116-0.825,0.347c-0.192,0.233-0.288,0.562-0.288,0.986c0,0.198,0.022,0.382,0.066,0.551
			c0.045,0.169,0.119,0.314,0.222,0.438c0.194,0.233,0.472,0.35,0.835,0.35c0.104,0,0.197-0.009,0.283-0.024
			c0.085-0.017,0.164-0.039,0.236-0.068c0.092-0.035,0.172-0.076,0.239-0.122c0.067-0.047,0.132-0.1,0.196-0.159v0.591
			c-0.07,0.041-0.146,0.079-0.229,0.114s-0.163,0.063-0.241,0.086c-0.072,0.021-0.151,0.037-0.237,0.048
			C175.197,129.975,175.104,129.98,175.007,129.98z"/>
		<path fill="#FFFFFF" d="M178.522,129.98c-0.238,0-0.449-0.039-0.633-0.116c-0.185-0.077-0.341-0.193-0.469-0.348
			c-0.13-0.161-0.226-0.355-0.287-0.583c-0.062-0.228-0.093-0.485-0.093-0.774c0-0.585,0.126-1.035,0.38-1.348
			c0.254-0.312,0.621-0.468,1.102-0.468c0.246,0,0.461,0.04,0.645,0.119c0.182,0.08,0.335,0.195,0.459,0.349
			c0.253,0.312,0.38,0.762,0.38,1.345c0,0.295-0.031,0.557-0.095,0.785c-0.062,0.229-0.158,0.421-0.285,0.575
			c-0.124,0.152-0.278,0.268-0.463,0.347C178.979,129.941,178.765,129.98,178.522,129.98z M178.522,129.498
			c0.29,0,0.51-0.113,0.658-0.34c0.148-0.225,0.223-0.557,0.223-0.996c0-0.438-0.074-0.771-0.223-0.999
			c-0.148-0.225-0.368-0.337-0.658-0.337c-0.289,0-0.508,0.112-0.656,0.337c-0.148,0.228-0.223,0.561-0.223,0.999
			c0,0.439,0.074,0.771,0.223,0.996C178.015,129.385,178.233,129.498,178.522,129.498z"/>
		<path fill="#FFFFFF" d="M182.157,129.98c-0.219,0-0.41-0.044-0.574-0.13c-0.166-0.087-0.304-0.206-0.415-0.358
			c-0.119-0.163-0.209-0.357-0.269-0.583c-0.061-0.226-0.09-0.478-0.09-0.756c0-0.274,0.029-0.524,0.088-0.75
			s0.148-0.419,0.271-0.58c0.122-0.16,0.267-0.28,0.437-0.36c0.168-0.079,0.354-0.119,0.553-0.119c0.211,0,0.395,0.045,0.551,0.134
			c0.158,0.091,0.283,0.222,0.374,0.393v-1.79h0.569v4.811h-0.514l-0.056-0.436c-0.048,0.082-0.101,0.155-0.161,0.221
			c-0.06,0.064-0.131,0.121-0.217,0.169C182.548,129.935,182.366,129.98,182.157,129.98z M182.237,129.498
			c0.279,0,0.489-0.113,0.631-0.34c0.143-0.225,0.214-0.557,0.214-0.996c0-0.438-0.071-0.771-0.214-0.999
			c-0.065-0.104-0.15-0.188-0.253-0.247s-0.228-0.09-0.374-0.09c-0.276,0-0.483,0.112-0.621,0.337
			c-0.141,0.228-0.211,0.561-0.211,0.999c0,0.439,0.07,0.772,0.211,0.999c0.072,0.117,0.16,0.203,0.266,0.257
			C181.991,129.471,182.108,129.498,182.237,129.498z"/>
		<path fill="#FFFFFF" d="M186.335,129.98c-0.266,0-0.504-0.041-0.716-0.122c-0.212-0.082-0.392-0.202-0.54-0.36
			c-0.148-0.159-0.261-0.35-0.338-0.573c-0.078-0.224-0.116-0.477-0.116-0.76c0-0.29,0.039-0.546,0.118-0.765
			c0.078-0.22,0.186-0.407,0.324-0.562c0.15-0.167,0.326-0.291,0.529-0.372c0.201-0.082,0.419-0.123,0.652-0.123
			c0.23,0,0.433,0.039,0.607,0.115c0.174,0.076,0.322,0.187,0.446,0.33c0.124,0.145,0.218,0.319,0.282,0.524
			c0.065,0.205,0.098,0.439,0.098,0.703v0.278h-2.464v0.019c0,0.378,0.099,0.669,0.297,0.875c0.095,0.1,0.21,0.176,0.345,0.229
			c0.135,0.053,0.297,0.08,0.484,0.08s0.378-0.029,0.571-0.087c0.2-0.06,0.411-0.147,0.634-0.263v0.566
			c-0.109,0.045-0.215,0.084-0.318,0.117s-0.205,0.061-0.307,0.083c-0.098,0.023-0.197,0.039-0.297,0.05
			C186.53,129.976,186.432,129.98,186.335,129.98z M187.114,127.85c-0.004-0.177-0.027-0.329-0.07-0.456
			c-0.041-0.126-0.097-0.229-0.165-0.308c-0.074-0.086-0.165-0.151-0.274-0.194s-0.232-0.065-0.369-0.065
			c-0.277,0-0.504,0.091-0.68,0.272c-0.178,0.184-0.282,0.435-0.315,0.755L187.114,127.85z"/>
	</g>
	<g>
		<g>
			<path fill="#63B8B0" d="M132.758,65.04v0.772l-3.248-2.947V62.19l3.248-2.934v0.771l-2.731,2.514L132.758,65.04z"/>
			<path fill="#231F20" d="M133.333,61.139h0.869c0.143-1.195,0.307-2.085,0.491-2.668c0.185-0.583,0.424-1.044,0.72-1.381
				s0.575-0.506,0.837-0.506c0.147,0,0.259,0.057,0.334,0.172c0.076,0.115,0.113,0.251,0.113,0.408c0,0.144-0.025,0.264-0.076,0.359
				c-0.051,0.096-0.118,0.144-0.201,0.144c-0.085,0-0.245-0.05-0.48-0.15c-0.117-0.048-0.208-0.072-0.273-0.072
				c-0.16,0-0.305,0.195-0.434,0.584c-0.129,0.389-0.232,0.917-0.31,1.582l-0.183,1.528h0.963l-0.058,0.509h-0.977l-0.569,4.577
				c-0.177,1.392-0.46,2.446-0.85,3.163c-0.39,0.717-0.812,1.076-1.268,1.076c-0.152,0-0.268-0.059-0.347-0.176
				c-0.079-0.117-0.118-0.262-0.118-0.434c0-0.148,0.027-0.267,0.081-0.355c0.055-0.088,0.133-0.133,0.235-0.133
				c0.051,0,0.126,0.012,0.226,0.036c0.17,0.043,0.333,0.064,0.488,0.064c0.24,0,0.415-0.111,0.523-0.333
				c0.109-0.223,0.218-0.766,0.327-1.632l0.739-5.854h-0.87L133.333,61.139z"/>
			<path fill="#63B8B0" d="M136.163,65.04l2.732-2.499l-2.732-2.514v-0.771l3.249,2.934v0.675l-3.249,2.947V65.04z"/>
		</g>
		<g>
			<path fill="#231F20" d="M141.988,65.04c-0.194,0-0.368-0.031-0.522-0.091c-0.154-0.06-0.289-0.159-0.406-0.294
				c-0.221-0.257-0.331-0.621-0.331-1.091V61.46h-0.891v-0.523h1.561v2.626c0,0.303,0.056,0.53,0.167,0.68
				c0.058,0.08,0.128,0.139,0.209,0.175s0.174,0.054,0.278,0.054h0.782v0.568H141.988z M140.766,60.198
				c-0.073,0-0.109-0.036-0.109-0.109V59.46c0-0.073,0.036-0.109,0.109-0.109h0.524c0.072,0,0.109,0.037,0.109,0.109v0.629
				c0,0.073-0.037,0.109-0.109,0.109H140.766z"/>
			<path fill="#231F20" d="M145.381,65.116c-0.258,0-0.481-0.051-0.676-0.153s-0.356-0.242-0.488-0.422
				c-0.141-0.191-0.245-0.42-0.315-0.686s-0.105-0.562-0.105-0.89c0-0.322,0.035-0.616,0.104-0.882
				c0.069-0.266,0.176-0.493,0.318-0.682c0.145-0.189,0.314-0.331,0.514-0.424c0.201-0.093,0.416-0.14,0.65-0.14
				c0.248,0,0.463,0.052,0.648,0.156c0.186,0.107,0.334,0.261,0.438,0.462v-2.106h0.671v5.66h-0.605l-0.064-0.513
				c-0.055,0.097-0.119,0.184-0.188,0.26c-0.07,0.076-0.154,0.143-0.255,0.198C145.84,65.062,145.625,65.116,145.381,65.116z
				 M145.478,64.549c0.326,0,0.573-0.134,0.741-0.4c0.166-0.265,0.25-0.655,0.25-1.171c0-0.517-0.084-0.908-0.25-1.175
				c-0.077-0.124-0.178-0.221-0.299-0.291c-0.121-0.07-0.269-0.105-0.44-0.105c-0.324,0-0.568,0.132-0.73,0.396
				c-0.164,0.267-0.246,0.659-0.246,1.175s0.082,0.908,0.246,1.175c0.086,0.138,0.189,0.239,0.312,0.302
				C145.187,64.517,145.322,64.549,145.478,64.549z"/>
			<path fill="#231F20" d="M149.865,65.116c-0.257,0-0.482-0.051-0.675-0.153c-0.194-0.102-0.356-0.242-0.487-0.422
				c-0.142-0.191-0.246-0.42-0.315-0.686c-0.07-0.266-0.105-0.562-0.105-0.89c0-0.322,0.033-0.616,0.104-0.882
				c0.068-0.266,0.176-0.493,0.318-0.682s0.312-0.331,0.512-0.424c0.2-0.093,0.416-0.14,0.65-0.14c0.248,0,0.465,0.052,0.648,0.156
				c0.188,0.107,0.334,0.261,0.44,0.462v-2.106h0.668v5.66h-0.604l-0.063-0.513c-0.058,0.097-0.119,0.184-0.188,0.26
				c-0.07,0.076-0.156,0.143-0.257,0.198C150.326,65.062,150.11,65.116,149.865,65.116z M149.961,64.549
				c0.328,0,0.574-0.134,0.742-0.4c0.168-0.265,0.252-0.655,0.252-1.171c0-0.517-0.084-0.908-0.252-1.175
				c-0.078-0.124-0.177-0.221-0.3-0.291c-0.12-0.07-0.268-0.105-0.438-0.105c-0.323,0-0.567,0.132-0.729,0.396
				c-0.166,0.267-0.248,0.659-0.248,1.175s0.082,0.908,0.248,1.175c0.084,0.138,0.188,0.239,0.312,0.302
				S149.81,64.549,149.961,64.549z"/>
			<path fill="#231F20" d="M155.442,65.04c-0.192,0-0.368-0.031-0.521-0.091c-0.153-0.061-0.291-0.159-0.405-0.294
				c-0.222-0.257-0.332-0.621-0.332-1.091V61.46h-0.892v-0.523h1.562v2.626c0,0.303,0.057,0.53,0.168,0.68
				c0.059,0.08,0.127,0.139,0.209,0.175c0.08,0.036,0.174,0.054,0.276,0.054h0.783v0.568H155.442z M154.222,60.198
				c-0.072,0-0.109-0.036-0.109-0.109V59.46c0-0.073,0.037-0.109,0.109-0.109h0.522c0.073,0,0.108,0.037,0.108,0.109v0.629
				c0,0.073-0.035,0.109-0.108,0.109H154.222z"/>
			<path fill="#231F20" d="M159.043,65.116c-0.276,0-0.524-0.045-0.742-0.137c-0.217-0.09-0.401-0.227-0.551-0.409
				c-0.153-0.188-0.267-0.417-0.34-0.685c-0.072-0.269-0.109-0.572-0.109-0.912c0-0.688,0.15-1.217,0.449-1.586
				c0.297-0.366,0.729-0.549,1.293-0.549c0.293,0,0.545,0.047,0.761,0.14c0.215,0.093,0.395,0.23,0.538,0.409
				c0.3,0.369,0.449,0.896,0.449,1.583c0,0.347-0.037,0.655-0.11,0.924c-0.074,0.269-0.187,0.495-0.339,0.676
				c-0.145,0.18-0.325,0.315-0.543,0.408C159.582,65.07,159.33,65.116,159.043,65.116z M159.043,64.549
				c0.345,0,0.603-0.134,0.774-0.4c0.177-0.265,0.263-0.655,0.263-1.171c0-0.517-0.086-0.908-0.263-1.175
				c-0.174-0.264-0.432-0.396-0.774-0.396c-0.338,0-0.596,0.132-0.771,0.396c-0.176,0.267-0.264,0.659-0.264,1.175
				s0.088,0.907,0.264,1.171C158.447,64.415,158.705,64.549,159.043,64.549z"/>
		</g>
		<g>
			<path fill="#63B8B0" d="M153.008,65.109c-0.164,0-0.305-0.057-0.418-0.171c-0.114-0.114-0.172-0.262-0.172-0.444
				c0-0.182,0.058-0.33,0.172-0.444c0.113-0.114,0.254-0.17,0.418-0.17s0.306,0.057,0.418,0.17c0.113,0.113,0.171,0.262,0.171,0.444
				c0,0.182-0.058,0.33-0.171,0.444C153.313,65.052,153.172,65.109,153.008,65.109z"/>
		</g>
	</g>
	<g enable-background="new    ">
		<path fill="#FFFFFF" d="M231.843,92.696h0.722l1.228,3.889l1.23-3.889h0.723l-1.504,4.634h-0.895L231.843,92.696z"/>
		<path fill="#FFFFFF" d="M239.366,97.363c-0.201,0-0.382-0.035-0.542-0.104c-0.159-0.069-0.3-0.181-0.421-0.335
			c-0.229-0.292-0.344-0.706-0.344-1.241v-2.391h-0.926v-0.596h1.621v2.987c0,0.345,0.058,0.603,0.174,0.773
			c0.061,0.091,0.133,0.157,0.217,0.199s0.181,0.062,0.289,0.062h0.812v0.646H239.366z M238.097,91.856
			c-0.074,0-0.113-0.041-0.113-0.124v-0.715c0-0.083,0.039-0.125,0.113-0.125h0.545c0.075,0,0.113,0.042,0.113,0.125v0.715
			c0,0.083-0.038,0.124-0.113,0.124H238.097z"/>
		<path fill="#FFFFFF" d="M242.89,97.45c-0.267,0-0.5-0.058-0.702-0.174s-0.37-0.276-0.506-0.48
			c-0.146-0.218-0.256-0.478-0.329-0.78c-0.072-0.302-0.109-0.639-0.109-1.012c0-0.367,0.036-0.701,0.107-1.003
			c0.072-0.302,0.182-0.561,0.331-0.776c0.148-0.215,0.325-0.376,0.532-0.482s0.432-0.159,0.676-0.159
			c0.258,0,0.481,0.059,0.673,0.178c0.194,0.122,0.347,0.296,0.456,0.525v-2.396h0.695v6.438h-0.627l-0.068-0.583
			c-0.057,0.11-0.123,0.209-0.195,0.296c-0.073,0.087-0.162,0.162-0.265,0.226C243.367,97.389,243.145,97.45,242.89,97.45z
			 M242.988,96.805c0.34,0,0.597-0.152,0.771-0.455c0.174-0.301,0.26-0.745,0.26-1.332s-0.086-1.033-0.26-1.336
			c-0.08-0.141-0.184-0.251-0.31-0.331s-0.278-0.12-0.457-0.12c-0.337,0-0.591,0.15-0.759,0.451
			c-0.172,0.303-0.258,0.749-0.258,1.336s0.086,1.033,0.258,1.336c0.088,0.157,0.195,0.272,0.324,0.344
			S242.829,96.805,242.988,96.805z"/>
		<path fill="#FFFFFF" d="M247.992,97.45c-0.325,0-0.616-0.055-0.874-0.164s-0.479-0.27-0.659-0.482s-0.319-0.468-0.413-0.768
			c-0.095-0.299-0.143-0.638-0.143-1.016c0-0.389,0.049-0.73,0.145-1.024c0.096-0.293,0.228-0.544,0.396-0.751
			c0.184-0.223,0.398-0.389,0.646-0.499c0.247-0.109,0.513-0.163,0.797-0.163c0.282,0,0.529,0.051,0.742,0.153
			c0.212,0.102,0.395,0.25,0.546,0.443c0.15,0.193,0.266,0.427,0.346,0.701c0.079,0.274,0.119,0.588,0.119,0.941v0.373h-3.011v0.025
			c0,0.505,0.121,0.895,0.362,1.171c0.116,0.132,0.256,0.234,0.422,0.306c0.164,0.072,0.361,0.107,0.591,0.107
			s0.462-0.039,0.698-0.116c0.244-0.08,0.502-0.197,0.774-0.352v0.757c-0.134,0.061-0.263,0.113-0.389,0.157
			s-0.251,0.082-0.374,0.112c-0.121,0.03-0.242,0.052-0.363,0.066C248.23,97.443,248.11,97.45,247.992,97.45z M248.944,94.6
			c-0.006-0.237-0.033-0.44-0.085-0.61c-0.052-0.169-0.119-0.307-0.202-0.412c-0.091-0.116-0.203-0.203-0.336-0.261
			c-0.134-0.058-0.283-0.087-0.449-0.087c-0.34,0-0.617,0.122-0.832,0.364c-0.216,0.246-0.344,0.582-0.385,1.009L248.944,94.6z"/>
		<path fill="#FFFFFF" d="M252.419,97.45c-0.289,0-0.547-0.052-0.772-0.155s-0.416-0.259-0.572-0.465
			c-0.159-0.215-0.276-0.475-0.351-0.78c-0.076-0.305-0.113-0.65-0.113-1.037c0-0.783,0.154-1.384,0.464-1.804
			c0.31-0.417,0.758-0.625,1.345-0.625c0.302,0,0.564,0.053,0.787,0.159s0.41,0.261,0.561,0.465c0.311,0.419,0.465,1.019,0.465,1.8
			c0,0.395-0.038,0.745-0.115,1.051c-0.076,0.306-0.193,0.562-0.35,0.77c-0.15,0.204-0.339,0.358-0.564,0.463
			C252.978,97.397,252.716,97.45,252.419,97.45z M252.419,96.805c0.355,0,0.623-0.152,0.805-0.455
			c0.181-0.301,0.271-0.745,0.271-1.332s-0.091-1.033-0.271-1.336c-0.182-0.301-0.449-0.451-0.805-0.451
			c-0.353,0-0.619,0.15-0.801,0.451c-0.182,0.303-0.271,0.749-0.271,1.336s0.09,1.031,0.271,1.332
			C251.8,96.653,252.066,96.805,252.419,96.805z"/>
		<path fill="#FFFFFF" d="M256.978,97.45c-0.111,0-0.225-0.006-0.342-0.019c-0.117-0.013-0.23-0.03-0.338-0.052
			c-0.099-0.022-0.214-0.053-0.346-0.091c-0.133-0.039-0.266-0.081-0.398-0.128v-0.786c0.16,0.088,0.299,0.156,0.412,0.205
			s0.224,0.089,0.332,0.122c0.115,0.036,0.228,0.063,0.336,0.083c0.107,0.019,0.221,0.029,0.336,0.029
			c0.305,0,0.543-0.069,0.714-0.207c0.088-0.072,0.152-0.156,0.192-0.252c0.041-0.096,0.061-0.194,0.061-0.293
			c0-0.193-0.074-0.35-0.223-0.47s-0.383-0.216-0.703-0.288l-0.029-0.008l-0.261-0.058c-0.188-0.042-0.356-0.097-0.505-0.166
			c-0.146-0.069-0.271-0.159-0.371-0.269c-0.184-0.201-0.276-0.479-0.276-0.832c0-0.223,0.034-0.42,0.104-0.592
			c0.068-0.171,0.172-0.315,0.308-0.434c0.144-0.127,0.314-0.219,0.513-0.275c0.199-0.056,0.422-0.084,0.67-0.084
			c0.107,0,0.216,0.005,0.324,0.017c0.107,0.011,0.215,0.027,0.32,0.049c0.096,0.022,0.196,0.05,0.301,0.085
			s0.209,0.075,0.315,0.122v0.745c-0.202-0.127-0.401-0.222-0.601-0.286c-0.101-0.03-0.202-0.054-0.305-0.07
			c-0.102-0.017-0.21-0.024-0.326-0.024c-0.146,0-0.277,0.014-0.395,0.041c-0.117,0.028-0.215,0.069-0.293,0.124
			c-0.156,0.113-0.234,0.286-0.234,0.518c0,0.096,0.016,0.185,0.044,0.265s0.072,0.145,0.13,0.194
			c0.059,0.05,0.154,0.099,0.289,0.147s0.327,0.099,0.576,0.151l0.279,0.058c0.182,0.039,0.336,0.094,0.465,0.166
			s0.235,0.16,0.32,0.265c0.177,0.212,0.266,0.494,0.266,0.844c0,0.237-0.039,0.443-0.115,0.619
			c-0.077,0.175-0.188,0.325-0.331,0.449c-0.153,0.132-0.333,0.23-0.538,0.294S257.224,97.45,256.978,97.45z"/>
	</g>
	<g enable-background="new    ">
		<path fill="#FFFFFF" d="M41.933,125.232h0.561v1.84c0.102-0.197,0.236-0.346,0.405-0.444c0.168-0.1,0.37-0.149,0.603-0.149
			c0.183,0,0.338,0.029,0.466,0.088c0.128,0.06,0.233,0.144,0.316,0.253c0.171,0.229,0.256,0.576,0.256,1.039v2.114h-0.564v-2.114
			c0-0.307-0.054-0.532-0.161-0.677c-0.108-0.144-0.277-0.216-0.509-0.216c-0.134,0-0.25,0.023-0.349,0.07
			c-0.099,0.046-0.182,0.115-0.251,0.207c-0.142,0.185-0.213,0.452-0.213,0.801v1.929h-0.561V125.232z"/>
		<path fill="#FFFFFF" d="M47.157,130.061c-0.262,0-0.497-0.04-0.705-0.12c-0.208-0.08-0.386-0.198-0.532-0.354
			c-0.146-0.156-0.257-0.345-0.333-0.565s-0.114-0.47-0.114-0.748c0-0.286,0.039-0.537,0.116-0.754
			c0.077-0.216,0.184-0.4,0.32-0.553c0.148-0.165,0.322-0.287,0.521-0.367c0.199-0.08,0.413-0.12,0.643-0.12
			c0.228,0,0.427,0.037,0.599,0.112c0.172,0.075,0.318,0.184,0.44,0.326s0.215,0.314,0.279,0.517s0.096,0.433,0.096,0.692v0.274
			h-2.428v0.019c0,0.372,0.097,0.659,0.292,0.862c0.093,0.098,0.207,0.173,0.339,0.226c0.133,0.053,0.292,0.079,0.477,0.079
			c0.185,0,0.373-0.028,0.563-0.086c0.197-0.059,0.405-0.145,0.625-0.259v0.558c-0.107,0.045-0.212,0.083-0.314,0.116
			c-0.102,0.032-0.202,0.06-0.301,0.082c-0.098,0.022-0.195,0.038-0.292,0.049C47.349,130.056,47.253,130.061,47.157,130.061z
			 M47.925,127.962c-0.004-0.175-0.027-0.324-0.068-0.449s-0.096-0.227-0.163-0.304c-0.073-0.085-0.164-0.148-0.271-0.191
			c-0.108-0.043-0.229-0.064-0.363-0.064c-0.274,0-0.498,0.09-0.67,0.269c-0.175,0.181-0.278,0.429-0.311,0.743L47.925,127.962z"/>
		<path fill="#FFFFFF" d="M50.915,129.921c-0.129-0.051-0.242-0.133-0.339-0.247c-0.185-0.215-0.277-0.52-0.277-0.914v-3.089h-0.899
			v-0.438h1.459v3.527c0,0.254,0.046,0.444,0.14,0.57c0.049,0.066,0.107,0.115,0.175,0.146c0.068,0.031,0.146,0.046,0.233,0.046
			h0.655v0.476h-0.709C51.19,129.997,51.044,129.972,50.915,129.921z"/>
		<path fill="#FFFFFF" d="M53.186,126.561h0.509l0.055,0.436c0.095-0.171,0.22-0.3,0.375-0.387c0.154-0.088,0.334-0.131,0.54-0.131
			c0.203,0,0.386,0.039,0.548,0.118c0.162,0.079,0.302,0.199,0.42,0.359c0.118,0.161,0.206,0.352,0.263,0.571
			c0.058,0.221,0.087,0.47,0.087,0.748c0,0.559-0.118,0.995-0.354,1.311c-0.235,0.316-0.558,0.475-0.969,0.475
			c-0.116,0-0.216-0.012-0.301-0.034c-0.085-0.023-0.166-0.057-0.241-0.1c-0.159-0.091-0.281-0.219-0.369-0.384v1.728h-0.564
			V126.561z M54.579,129.586c0.272,0,0.476-0.111,0.612-0.332c0.136-0.222,0.204-0.55,0.204-0.984s-0.068-0.763-0.204-0.984
			c-0.136-0.221-0.34-0.332-0.612-0.332c-0.272,0-0.479,0.111-0.619,0.332c-0.14,0.224-0.21,0.552-0.21,0.984s0.07,0.76,0.21,0.981
			C54.1,129.474,54.306,129.586,54.579,129.586z"/>
	</g>
	<g enable-background="new    ">
		<path fill="#FFFFFF" d="M76.955,63.688h0.506l0.054,0.708c0.095-0.256,0.238-0.454,0.43-0.592c0.19-0.136,0.417-0.204,0.682-0.204
			c0.138,0,0.267,0.019,0.388,0.055c0.059,0.017,0.117,0.04,0.175,0.069s0.114,0.063,0.167,0.102v0.608
			c-0.115-0.099-0.236-0.171-0.364-0.217c-0.125-0.045-0.262-0.068-0.409-0.068c-0.346,0-0.61,0.116-0.794,0.349
			c-0.184,0.231-0.276,0.568-0.276,1.01v1.803h-0.56V63.688z"/>
		<path fill="#FFFFFF" d="M81.826,67.406c-0.26,0-0.494-0.042-0.701-0.128c-0.207-0.085-0.383-0.21-0.529-0.377
			c-0.145-0.166-0.256-0.366-0.332-0.6c-0.076-0.234-0.114-0.499-0.114-0.794c0-0.304,0.039-0.571,0.115-0.801
			c0.077-0.229,0.183-0.425,0.318-0.587c0.147-0.175,0.32-0.305,0.518-0.39c0.198-0.085,0.411-0.128,0.64-0.128
			c0.226,0,0.424,0.04,0.595,0.12c0.17,0.08,0.316,0.195,0.438,0.346c0.121,0.151,0.214,0.334,0.277,0.549
			c0.063,0.214,0.095,0.46,0.095,0.736v0.291h-2.414v0.02c0,0.395,0.097,0.7,0.291,0.916c0.093,0.104,0.206,0.184,0.338,0.24
			s0.29,0.084,0.474,0.084c0.184,0,0.371-0.03,0.561-0.09c0.196-0.062,0.403-0.154,0.621-0.275v0.592
			c-0.107,0.047-0.211,0.088-0.312,0.123c-0.101,0.035-0.201,0.063-0.3,0.087c-0.097,0.024-0.194,0.041-0.291,0.052
			C82.017,67.401,81.921,67.406,81.826,67.406z M82.59,65.177c-0.004-0.186-0.027-0.345-0.068-0.478s-0.095-0.24-0.162-0.322
			c-0.073-0.091-0.163-0.159-0.27-0.204s-0.227-0.068-0.36-0.068c-0.273,0-0.495,0.095-0.667,0.285
			c-0.174,0.192-0.277,0.455-0.309,0.79L82.59,65.177z"/>
		<path fill="#FFFFFF" d="M85.667,67.406c-0.252,0-0.482-0.042-0.689-0.128c-0.207-0.085-0.383-0.21-0.529-0.377
			c-0.147-0.168-0.258-0.369-0.332-0.604c-0.074-0.234-0.11-0.499-0.11-0.794c0-0.309,0.039-0.579,0.116-0.812
			c0.078-0.233,0.188-0.429,0.329-0.589c0.149-0.168,0.327-0.294,0.531-0.377c0.205-0.083,0.434-0.125,0.687-0.125
			c0.093,0,0.179,0.005,0.257,0.016s0.157,0.028,0.233,0.052c0.153,0.045,0.31,0.116,0.469,0.21v0.625
			c-0.075-0.069-0.148-0.129-0.221-0.181c-0.072-0.052-0.146-0.093-0.221-0.123c-0.152-0.062-0.319-0.094-0.503-0.094
			c-0.352,0-0.621,0.121-0.809,0.362c-0.188,0.244-0.282,0.588-0.282,1.032c0,0.208,0.022,0.399,0.065,0.576
			c0.043,0.177,0.115,0.33,0.216,0.459c0.19,0.244,0.462,0.366,0.818,0.366c0.101,0,0.193-0.008,0.277-0.026
			c0.084-0.017,0.161-0.041,0.232-0.071c0.091-0.037,0.169-0.079,0.234-0.127c0.066-0.049,0.13-0.104,0.192-0.167v0.618
			c-0.068,0.043-0.143,0.083-0.224,0.12c-0.081,0.037-0.159,0.067-0.236,0.091c-0.07,0.021-0.148,0.038-0.231,0.05
			C85.855,67.4,85.765,67.406,85.667,67.406z"/>
		<path fill="#FFFFFF" d="M89.112,67.406c-0.232,0-0.439-0.041-0.62-0.121c-0.181-0.081-0.333-0.203-0.459-0.364
			c-0.127-0.168-0.221-0.372-0.282-0.61s-0.091-0.509-0.091-0.811c0-0.612,0.124-1.083,0.373-1.411
			c0.249-0.326,0.608-0.489,1.079-0.489c0.242,0,0.453,0.042,0.631,0.125s0.329,0.205,0.45,0.364
			c0.249,0.328,0.373,0.797,0.373,1.408c0,0.309-0.031,0.583-0.092,0.822c-0.062,0.24-0.155,0.44-0.28,0.602
			c-0.121,0.16-0.272,0.28-0.453,0.362S89.351,67.406,89.112,67.406z M89.112,66.901c0.285,0,0.5-0.119,0.645-0.356
			c0.146-0.235,0.218-0.583,0.218-1.042s-0.073-0.808-0.218-1.045c-0.145-0.235-0.36-0.353-0.645-0.353
			c-0.283,0-0.497,0.118-0.642,0.353c-0.146,0.237-0.218,0.586-0.218,1.045s0.073,0.807,0.218,1.042
			C88.615,66.783,88.83,66.901,89.112,66.901z"/>
		<path fill="#FFFFFF" d="M91.896,63.688h0.506l0.054,0.708c0.095-0.256,0.238-0.454,0.43-0.592c0.19-0.136,0.417-0.204,0.682-0.204
			c0.138,0,0.267,0.019,0.388,0.055c0.059,0.017,0.117,0.04,0.175,0.069s0.114,0.063,0.167,0.102v0.608
			c-0.115-0.099-0.236-0.171-0.364-0.217c-0.125-0.045-0.262-0.068-0.409-0.068c-0.346,0-0.61,0.116-0.794,0.349
			c-0.184,0.231-0.276,0.568-0.276,1.01v1.803h-0.56V63.688z"/>
		<path fill="#FFFFFF" d="M96.41,67.406c-0.214,0-0.402-0.045-0.563-0.136c-0.162-0.091-0.297-0.216-0.406-0.375
			c-0.117-0.17-0.205-0.374-0.264-0.61s-0.088-0.5-0.088-0.792c0-0.287,0.029-0.548,0.086-0.785s0.146-0.438,0.265-0.607
			c0.119-0.168,0.261-0.294,0.427-0.377c0.166-0.083,0.346-0.125,0.542-0.125c0.206,0,0.386,0.046,0.54,0.139
			c0.155,0.095,0.277,0.232,0.366,0.411v-1.874h0.558v5.036H97.37l-0.055-0.457c-0.046,0.086-0.099,0.164-0.157,0.231
			c-0.059,0.068-0.129,0.127-0.212,0.177C96.792,67.359,96.614,67.406,96.41,67.406z M96.489,66.901
			c0.272,0,0.479-0.119,0.618-0.356c0.14-0.235,0.209-0.583,0.209-1.042s-0.069-0.808-0.209-1.045
			c-0.064-0.11-0.147-0.196-0.249-0.259c-0.101-0.062-0.223-0.094-0.366-0.094c-0.271,0-0.474,0.118-0.609,0.353
			c-0.138,0.237-0.206,0.586-0.206,1.045s0.068,0.808,0.206,1.045c0.07,0.123,0.157,0.212,0.26,0.269S96.361,66.901,96.489,66.901z"
			/>
	</g>
	<g enable-background="new    ">
		<path fill="#FFFFFF" d="M190.966,64.426c-0.17-0.067-0.32-0.176-0.449-0.326c-0.244-0.284-0.365-0.687-0.365-1.207v-4.081h-1.188
			v-0.579h1.928v4.66c0,0.335,0.062,0.586,0.186,0.752c0.063,0.089,0.141,0.153,0.23,0.193s0.193,0.061,0.309,0.061h0.865v0.628
			h-0.938C191.329,64.526,191.136,64.493,190.966,64.426z"/>
		<path fill="#FFFFFF" d="M195.926,64.611c-0.347,0-0.657-0.054-0.932-0.159c-0.274-0.106-0.509-0.263-0.702-0.469
			c-0.193-0.207-0.34-0.456-0.441-0.747c-0.1-0.291-0.15-0.62-0.15-0.988c0-0.378,0.051-0.71,0.152-0.995
			c0.103-0.286,0.243-0.529,0.424-0.73c0.195-0.218,0.424-0.379,0.688-0.485c0.263-0.106,0.546-0.159,0.85-0.159
			c0.3,0,0.563,0.05,0.791,0.149c0.227,0.099,0.42,0.242,0.581,0.431c0.161,0.188,0.284,0.415,0.368,0.682
			c0.084,0.268,0.127,0.572,0.127,0.916v0.362h-3.208v0.023c0,0.491,0.129,0.871,0.387,1.14c0.123,0.128,0.272,0.228,0.448,0.297
			c0.176,0.07,0.387,0.105,0.631,0.105c0.243,0,0.492-0.038,0.744-0.113c0.26-0.077,0.535-0.191,0.824-0.342v0.736
			c-0.142,0.06-0.279,0.11-0.414,0.153s-0.268,0.079-0.398,0.108c-0.129,0.029-0.258,0.051-0.387,0.064
			S196.052,64.611,195.926,64.611z M196.94,61.838c-0.006-0.23-0.036-0.429-0.092-0.594c-0.055-0.165-0.126-0.298-0.215-0.4
			c-0.096-0.112-0.216-0.197-0.357-0.253c-0.143-0.057-0.303-0.085-0.479-0.085c-0.362,0-0.657,0.118-0.886,0.354
			c-0.23,0.238-0.367,0.565-0.41,0.981L196.94,61.838z"/>
		<path fill="#FFFFFF" d="M200.228,64.611c-0.467,0-0.835-0.131-1.105-0.391c-0.129-0.124-0.23-0.27-0.303-0.437
			c-0.072-0.168-0.108-0.37-0.108-0.606c0-0.496,0.169-0.876,0.507-1.139c0.333-0.26,0.826-0.391,1.48-0.391h0.994v-0.116
			c0-0.172-0.022-0.324-0.068-0.459c-0.045-0.134-0.113-0.242-0.205-0.326c-0.088-0.08-0.205-0.141-0.35-0.181
			s-0.314-0.061-0.508-0.061c-0.254,0-0.511,0.036-0.768,0.108c-0.261,0.073-0.512,0.179-0.753,0.318v-0.74
			c0.112-0.043,0.237-0.086,0.374-0.129s0.275-0.079,0.414-0.108c0.244-0.052,0.49-0.077,0.736-0.077
			c0.191,0,0.364,0.015,0.52,0.042c0.156,0.028,0.301,0.071,0.436,0.127c0.123,0.054,0.24,0.122,0.352,0.203
			c0.111,0.082,0.206,0.177,0.283,0.284c0.057,0.078,0.103,0.159,0.137,0.245c0.035,0.086,0.062,0.171,0.081,0.254
			c0.043,0.196,0.064,0.492,0.064,0.89v0.921c0.005,0.156,0.009,0.293,0.013,0.411c0.002,0.118,0.01,0.228,0.023,0.33
			c0.014,0.112,0.029,0.219,0.047,0.317c0.018,0.1,0.032,0.175,0.046,0.226c0.019,0.083,0.04,0.162,0.064,0.235
			c0.024,0.074,0.038,0.117,0.044,0.131h-0.744c-0.014-0.032-0.03-0.08-0.051-0.143c-0.02-0.063-0.039-0.133-0.059-0.208
			c-0.014-0.059-0.025-0.118-0.037-0.179c-0.013-0.061-0.021-0.112-0.027-0.155c-0.077,0.135-0.178,0.254-0.299,0.358
			c-0.123,0.104-0.242,0.188-0.361,0.25c-0.128,0.066-0.264,0.116-0.408,0.146C200.546,64.596,200.392,64.611,200.228,64.611z
			 M200.381,63.991c0.405,0,0.725-0.143,0.958-0.427c0.236-0.29,0.354-0.68,0.354-1.171v-0.165h-0.938
			c-0.429,0-0.754,0.075-0.974,0.226c-0.115,0.077-0.199,0.174-0.251,0.287c-0.053,0.114-0.079,0.246-0.079,0.396
			c0,0.14,0.021,0.261,0.064,0.364s0.104,0.191,0.181,0.264c0.078,0.07,0.173,0.125,0.284,0.165S200.226,63.991,200.381,63.991z"/>
		<path fill="#FFFFFF" d="M204.341,59.986h0.672l0.072,0.882c0.127-0.319,0.316-0.564,0.572-0.736
			c0.252-0.169,0.554-0.254,0.905-0.254c0.183,0,0.354,0.023,0.515,0.068c0.078,0.021,0.156,0.051,0.234,0.087
			c0.077,0.036,0.15,0.078,0.221,0.127v0.756c-0.152-0.123-0.314-0.213-0.482-0.27c-0.167-0.056-0.348-0.084-0.544-0.084
			c-0.458,0-0.81,0.145-1.054,0.435c-0.244,0.287-0.367,0.705-0.367,1.256v2.241h-0.744V59.986z"/>
		<path fill="#FFFFFF" d="M208.872,59.986h0.668l0.073,0.677c0.134-0.261,0.312-0.456,0.535-0.588
			c0.223-0.131,0.488-0.197,0.797-0.197c0.241,0,0.446,0.039,0.616,0.117c0.168,0.077,0.309,0.188,0.418,0.334
			c0.226,0.303,0.338,0.761,0.338,1.372v2.793h-0.744v-2.793c0-0.405-0.071-0.703-0.213-0.894c-0.143-0.19-0.367-0.285-0.673-0.285
			c-0.177,0-0.331,0.03-0.46,0.092c-0.131,0.062-0.242,0.153-0.332,0.274c-0.188,0.244-0.282,0.597-0.282,1.058v2.548h-0.741V59.986
			z"/>
	</g>
	<g enable-background="new    ">
		<path fill="#FFFFFF" d="M83.621,92.714h0.574l0.614,3.013l0.504-1.924h0.495l0.51,1.924l0.615-3.013h0.574l-0.826,3.729h-0.555
			l-0.564-2.044l-0.561,2.044h-0.555L83.621,92.714z"/>
		<path fill="#FFFFFF" d="M89.124,96.54c-0.365,0-0.654-0.108-0.867-0.323c-0.101-0.102-0.18-0.222-0.236-0.361
			c-0.057-0.139-0.085-0.306-0.085-0.501c0-0.411,0.132-0.725,0.397-0.942c0.261-0.215,0.647-0.323,1.16-0.323h0.779v-0.097
			c0-0.142-0.018-0.269-0.054-0.379s-0.089-0.201-0.161-0.27c-0.069-0.067-0.161-0.117-0.274-0.15
			c-0.113-0.033-0.246-0.05-0.397-0.05c-0.2,0-0.4,0.03-0.602,0.09c-0.204,0.06-0.4,0.147-0.589,0.263v-0.612
			c0.088-0.036,0.186-0.071,0.293-0.106c0.107-0.036,0.215-0.066,0.325-0.09c0.191-0.042,0.383-0.063,0.577-0.063
			c0.149,0,0.285,0.012,0.407,0.035c0.122,0.023,0.235,0.059,0.34,0.105c0.097,0.044,0.188,0.101,0.276,0.168
			c0.087,0.067,0.161,0.146,0.222,0.234c0.044,0.064,0.08,0.132,0.107,0.203c0.027,0.071,0.048,0.141,0.063,0.21
			c0.033,0.162,0.05,0.407,0.05,0.736v0.762c0.004,0.129,0.007,0.242,0.009,0.34s0.008,0.188,0.019,0.273
			c0.01,0.093,0.022,0.181,0.036,0.263s0.026,0.144,0.036,0.186c0.015,0.069,0.032,0.134,0.051,0.195
			c0.019,0.061,0.03,0.097,0.035,0.108h-0.583c-0.011-0.027-0.024-0.066-0.04-0.118s-0.031-0.109-0.046-0.171
			c-0.01-0.049-0.021-0.098-0.03-0.148c-0.009-0.05-0.016-0.092-0.021-0.128c-0.061,0.111-0.139,0.209-0.235,0.296
			c-0.096,0.086-0.189,0.155-0.282,0.206c-0.101,0.056-0.208,0.096-0.32,0.122C89.373,96.527,89.252,96.54,89.124,96.54z
			 M89.244,96.027c0.317,0,0.567-0.118,0.75-0.353c0.185-0.24,0.277-0.563,0.277-0.969v-0.137h-0.734
			c-0.336,0-0.59,0.062-0.763,0.187c-0.09,0.064-0.156,0.144-0.197,0.238c-0.041,0.095-0.062,0.204-0.062,0.328
			c0,0.115,0.017,0.216,0.051,0.301s0.081,0.158,0.142,0.218c0.061,0.058,0.135,0.103,0.222,0.136
			C89.018,96.011,89.122,96.027,89.244,96.027z"/>
		<path fill="#FFFFFF" d="M93.016,96.18c-0.179-0.182-0.268-0.5-0.268-0.952V93.19h-0.942v-0.476h0.942v-0.976l0.58-0.266v1.242
			h1.317v0.476h-1.317v2.038c0,0.273,0.049,0.465,0.148,0.576c0.096,0.109,0.269,0.163,0.517,0.163h0.652v0.489h-0.709
			C93.503,96.457,93.197,96.365,93.016,96.18z"/>
		<path fill="#FFFFFF" d="M97.523,96.54c-0.263,0-0.502-0.044-0.717-0.132c-0.215-0.087-0.398-0.217-0.55-0.388
			c-0.153-0.173-0.269-0.38-0.345-0.621c-0.077-0.241-0.115-0.513-0.115-0.817c0-0.317,0.04-0.596,0.121-0.835
			s0.195-0.442,0.342-0.606c0.156-0.173,0.34-0.303,0.553-0.388s0.451-0.128,0.714-0.128c0.097,0,0.186,0.005,0.268,0.017
			s0.163,0.029,0.243,0.053c0.16,0.046,0.322,0.119,0.488,0.216v0.643c-0.078-0.071-0.154-0.133-0.23-0.187
			c-0.076-0.053-0.152-0.095-0.23-0.126c-0.158-0.064-0.332-0.096-0.523-0.096c-0.365,0-0.646,0.124-0.841,0.373
			c-0.195,0.251-0.293,0.605-0.293,1.062c0,0.213,0.022,0.411,0.068,0.593c0.045,0.182,0.12,0.34,0.225,0.473
			c0.197,0.251,0.481,0.376,0.851,0.376c0.105,0,0.201-0.009,0.288-0.027c0.087-0.018,0.168-0.042,0.241-0.073
			c0.095-0.038,0.176-0.082,0.244-0.131c0.068-0.05,0.135-0.107,0.2-0.171v0.636c-0.071,0.044-0.149,0.085-0.233,0.124
			c-0.084,0.038-0.166,0.068-0.246,0.093c-0.073,0.022-0.154,0.039-0.241,0.051C97.718,96.534,97.624,96.54,97.523,96.54z"/>
		<path fill="#FFFFFF" d="M99.78,91.263h0.58v2.011c0.105-0.215,0.245-0.377,0.419-0.486s0.382-0.163,0.624-0.163
			c0.189,0,0.35,0.032,0.482,0.097c0.132,0.064,0.242,0.156,0.328,0.276c0.176,0.25,0.265,0.629,0.265,1.135v2.311h-0.583v-2.311
			c0-0.335-0.056-0.582-0.167-0.739s-0.287-0.236-0.526-0.236c-0.139,0-0.259,0.025-0.361,0.077
			c-0.102,0.051-0.189,0.126-0.26,0.226c-0.147,0.202-0.221,0.494-0.221,0.876v2.107h-0.58V91.263z"/>
	</g>
</g>
</svg>
