<?xml version="1.0" encoding="utf-8"?>
<!-- Generator: Adobe Illustrator 16.0.0, SVG Export Plug-In . SVG Version: 6.00 Build 0)  -->
<!DOCTYPE svg PUBLIC "-//W3C//DTD SVG 1.1//EN" "http://www.w3.org/Graphics/SVG/1.1/DTD/svg11.dtd">
<svg version="1.1" id="Layer_1" xmlns="http://www.w3.org/2000/svg" xmlns:xlink="http://www.w3.org/1999/xlink" x="0px" y="0px"
	 width="847.363px" height="376.004px" viewBox="0 0 847.363 376.004" enable-background="new 0 0 847.363 376.004"
	 xml:space="preserve">
<g>
	<g>
		<path fill="#7EB8BD" d="M87.996,229.059v20.932L0,170.155v-18.297l87.996-79.474v20.882L13.993,161.38L87.996,229.059z"/>
		<path fill="#FFFFFF" d="M103.565,123.392h23.551c3.875-32.384,8.31-56.481,13.303-72.287
			c4.992-15.804,11.496-28.273,19.511-37.406C167.944,4.566,175.499,0,182.594,0c4.007,0,7.029,1.555,9.066,4.663
			c2.036,3.11,3.054,6.801,3.054,11.076c0,3.887-0.691,7.127-2.072,9.716c-1.383,2.594-3.191,3.886-5.428,3.886
			c-2.303,0-6.646-1.359-13.027-4.079c-3.16-1.294-5.627-1.943-7.401-1.943c-4.344,0-8.259,5.28-11.745,15.836
			c-3.488,10.561-6.284,24.844-8.388,42.846l-4.949,41.391h26.108l-1.576,13.795h-26.452l-15.428,123.975
			c-4.796,37.697-12.465,66.262-23.009,85.693c-10.544,19.432-21.99,29.147-34.341,29.147c-4.139,0-7.275-1.589-9.411-4.762
			c-2.134-3.177-3.202-7.093-3.202-11.757c0-4.019,0.739-7.223,2.217-9.618c1.479-2.398,3.597-3.595,6.356-3.595
			c1.379,0,3.417,0.319,6.109,0.972c4.599,1.167,9,1.748,13.204,1.748c6.504,0,11.234-3.013,14.19-9.034
			c2.956-6.025,5.912-20.762,8.869-44.209l20.003-158.562H101.79L103.565,123.392z"/>
		<path fill="#7EB8BD" d="M180.229,229.059l74.003-67.678l-74.003-68.115V72.384l87.996,79.474v18.297l-87.996,79.834V229.059z"/>
	</g>
	<g>
		<path fill="#FFFFFF" d="M338.011,229.066c-5.256,0-9.969-0.82-14.141-2.463s-7.833-4.303-10.987-7.98
			c-5.978-6.964-8.966-16.816-8.966-29.562v-56.957h-24.142v-14.189h42.273v71.146c0,8.213,1.51,14.354,4.533,18.428
			c1.577,2.168,3.465,3.744,5.666,4.729c2.201,0.986,4.714,1.479,7.538,1.479h21.187v15.372h-22.961V229.066z M304.901,97.911
			c-1.971,0-2.957-0.985-2.957-2.956V77.907c0-1.97,0.986-2.956,2.957-2.956h14.189c1.973,0,2.957,0.986,2.957,2.956v17.048
			c0,1.971-0.984,2.956-2.957,2.956H304.901z"/>
		<path fill="#FFFFFF" d="M429.949,231.137c-6.963,0-13.074-1.379-18.329-4.139c-5.256-2.76-9.658-6.568-13.205-11.432
			c-3.81-5.188-6.667-11.381-8.572-18.574s-2.857-15.224-2.857-24.092c0-8.736,0.936-16.703,2.809-23.896
			c1.872-7.193,4.746-13.353,8.622-18.476c3.877-5.124,8.508-8.949,13.896-11.48c5.386-2.528,11.266-3.794,17.638-3.794
			c6.701,0,12.547,1.414,17.539,4.238c5.059,2.891,9.033,7.061,11.924,12.514V74.951h18.131v153.328h-16.355l-1.773-13.896
			c-1.512,2.627-3.219,4.978-5.125,7.045c-1.904,2.07-4.205,3.859-6.896,5.371C442.396,229.691,436.583,231.137,429.949,231.137z
			 M432.509,215.766c8.869,0,15.57-3.613,20.104-10.84c4.531-7.16,6.799-17.738,6.799-31.73c0-13.992-2.268-24.601-6.799-31.828
			c-2.105-3.351-4.797-5.977-8.08-7.884c-3.285-1.905-7.262-2.857-11.924-2.857c-8.805,0-15.406,3.581-19.808,10.741
			c-4.466,7.227-6.7,17.835-6.7,31.828c0,13.993,2.233,24.602,6.7,31.828c2.3,3.744,5.125,6.472,8.477,8.181
			C424.626,214.911,428.373,215.766,432.509,215.766z"/>
		<path fill="#FFFFFF" d="M551.447,231.137c-6.967,0-13.072-1.379-18.326-4.139c-5.258-2.76-9.658-6.568-13.205-11.432
			c-3.812-5.188-6.67-11.381-8.574-18.574s-2.857-15.224-2.857-24.092c0-8.736,0.938-16.703,2.809-23.896
			c1.873-7.193,4.746-13.353,8.623-18.476c3.873-5.124,8.506-8.949,13.893-11.48c5.389-2.528,11.27-3.794,17.641-3.794
			c6.699,0,12.547,1.414,17.541,4.238c5.057,2.891,9.029,7.061,11.924,12.514V74.951h18.131v153.328h-16.357l-1.773-13.896
			c-1.512,2.627-3.221,4.978-5.125,7.045c-1.906,2.07-4.205,3.859-6.898,5.371C563.896,229.691,558.082,231.137,551.447,231.137z
			 M554.011,215.766c8.867,0,15.568-3.613,20.102-10.84c4.531-7.16,6.799-17.738,6.799-31.73c0-13.992-2.268-24.601-6.799-31.828
			c-2.104-3.351-4.797-5.977-8.08-7.884c-3.287-1.905-7.262-2.857-11.924-2.857c-8.805,0-15.406,3.581-19.807,10.741
			c-4.469,7.227-6.701,17.835-6.701,31.828c0,13.993,2.232,24.602,6.701,31.828c2.297,3.744,5.123,6.472,8.475,8.181
			C546.126,214.911,549.871,215.766,554.011,215.766z"/>
		<path fill="#FFFFFF" d="M702.509,229.066c-5.256,0-9.969-0.82-14.141-2.463s-7.834-4.303-10.986-7.98
			c-5.98-6.964-8.969-16.816-8.969-29.562v-56.957h-24.143v-14.189h42.273v71.146c0,8.213,1.508,14.354,4.531,18.428
			c1.576,2.168,3.465,3.744,5.668,4.729c2.199,0.986,4.711,1.479,7.537,1.479h21.186v15.372h-22.957V229.066z M669.4,97.911
			c-1.973,0-2.955-0.985-2.955-2.956V77.907c0-1.97,0.982-2.956,2.955-2.956h14.188c1.971,0,2.957,0.986,2.957,2.956v17.048
			c0,1.971-0.986,2.956-2.957,2.956H669.4z"/>
		<path fill="#FFFFFF" d="M800.062,231.137c-7.557,0-14.271-1.23-20.15-3.695c-5.879-2.463-10.855-6.157-14.928-11.086
			c-4.143-5.123-7.193-11.313-9.164-18.573c-1.973-7.259-2.957-15.487-2.957-24.685c0-18.657,4.041-32.978,12.121-42.963
			c8.076-9.919,19.77-14.88,35.08-14.88c7.883,0,14.73,1.266,20.545,3.794c5.814,2.531,10.689,6.224,14.633,11.086
			c8.08,9.985,12.121,24.274,12.121,42.865c0,9.395-1.002,17.737-3.006,25.028c-2.006,7.293-5.045,13.401-9.115,18.328
			c-3.941,4.862-8.854,8.539-14.73,11.037C814.63,229.889,807.812,231.137,800.062,231.137z M800.062,215.766
			c9.264,0,16.26-3.613,20.988-10.84c4.73-7.16,7.094-17.738,7.094-31.73c0-13.992-2.363-24.601-7.094-31.828
			c-4.729-7.16-11.727-10.741-20.988-10.741c-9.197,0-16.16,3.581-20.891,10.741c-4.729,7.227-7.096,17.835-7.096,31.828
			c0,13.993,2.365,24.57,7.096,31.73C783.902,212.152,790.865,215.766,800.062,215.766z"/>
	</g>
	<g>
		<path fill="#7EB8BD" d="M636.535,230.939c-4.465,0-8.244-1.545-11.332-4.631c-3.086-3.086-4.631-7.097-4.631-12.021
			c0-4.928,1.545-8.934,4.631-12.021c3.088-3.088,6.867-4.633,11.332-4.633c4.467,0,8.246,1.545,11.332,4.633
			s4.631,7.094,4.631,12.021c0,4.926-1.545,8.936-4.631,12.021C644.781,229.393,641.001,230.939,636.535,230.939z"/>
	</g>
</g>
<g>
	<path fill="#FFFFFF" d="M312.034,102.69c-4.465,0-8.244-1.545-11.332-4.631c-3.086-3.086-4.631-7.096-4.631-12.021
		c0-4.928,1.545-8.934,4.631-12.022c3.088-3.087,6.867-4.632,11.332-4.632c4.467,0,8.246,1.545,11.332,4.632
		c3.086,3.089,4.631,7.095,4.631,12.022c0,4.926-1.545,8.936-4.631,12.021S316.501,102.69,312.034,102.69z"/>
</g>
<g>
	<path fill="#FFFFFF" d="M676.535,102.439c-4.465,0-8.244-1.545-11.332-4.631c-3.086-3.086-4.631-7.096-4.631-12.021
		c0-4.928,1.545-8.934,4.631-12.022c3.088-3.087,6.867-4.632,11.332-4.632c4.467,0,8.246,1.545,11.332,4.632
		c3.086,3.089,4.631,7.095,4.631,12.022c0,4.926-1.545,8.936-4.631,12.021S681.001,102.439,676.535,102.439z"/>
</g>
<g>
	<path fill="#FFFFFF" d="M685.488,319.377c-1.328,0-2.539-0.137-3.633-0.41s-2.175-0.71-3.242-1.309
		c-2.006-1.146-3.607-2.786-4.805-4.922l-0.703,5.508h-6.484v-60.781h7.188v22.617c1.119-2.135,2.708-3.775,4.766-4.922
		c2.005-1.146,4.361-1.719,7.07-1.719c2.5,0,4.798,0.495,6.895,1.484c2.096,0.99,3.912,2.5,5.449,4.531
		c1.51,2.031,2.643,4.467,3.398,7.305c0.755,2.839,1.133,6.029,1.133,9.57c0,7.136-1.511,12.761-4.531,16.875
		c-1.484,2.031-3.269,3.568-5.352,4.609C690.552,318.855,688.169,319.377,685.488,319.377z M684.472,313.283
		c3.463,0,6.067-1.419,7.812-4.258c1.771-2.864,2.656-7.07,2.656-12.617s-0.886-9.752-2.656-12.617
		c-1.745-2.838-4.362-4.258-7.852-4.258c-3.49,0-6.133,1.42-7.93,4.258c-1.797,2.865-2.695,7.07-2.695,12.617
		s0.898,9.74,2.695,12.578C678.3,311.852,680.957,313.283,684.472,313.283z"/>
	<path fill="#FFFFFF" d="M733.691,319.377c-3.359,0-6.374-0.515-9.043-1.543c-2.67-1.028-4.941-2.545-6.816-4.551
		c-1.875-2.005-3.301-4.42-4.277-7.246c-0.977-2.825-1.465-6.021-1.465-9.59c0-3.672,0.494-6.895,1.484-9.668
		c0.989-2.773,2.356-5.137,4.102-7.09c1.9-2.109,4.127-3.678,6.68-4.707c2.552-1.028,5.299-1.543,8.242-1.543
		c2.916,0,5.475,0.482,7.676,1.445c2.2,0.964,4.082,2.357,5.645,4.18c1.562,1.823,2.754,4.03,3.574,6.621
		c0.82,2.592,1.23,5.554,1.23,8.887v3.516h-31.133v0.234c0,4.766,1.25,8.451,3.75,11.055c1.197,1.25,2.649,2.214,4.355,2.891
		c1.705,0.678,3.743,1.016,6.113,1.016c2.369,0,4.778-0.364,7.227-1.094c2.525-0.755,5.195-1.861,8.008-3.32v7.148
		c-1.381,0.573-2.722,1.068-4.023,1.484c-1.303,0.417-2.592,0.768-3.867,1.055c-1.25,0.286-2.5,0.494-3.75,0.625
		C736.152,319.312,734.915,319.377,733.691,319.377z M743.535,292.463c-0.053-2.239-0.346-4.16-0.879-5.762
		c-0.534-1.602-1.23-2.896-2.09-3.887c-0.938-1.094-2.097-1.914-3.477-2.461c-1.381-0.547-2.93-0.82-4.648-0.82
		c-3.516,0-6.381,1.146-8.594,3.438c-2.24,2.318-3.568,5.495-3.984,9.531L743.535,292.463z"/>
	<path fill="#FFFFFF" d="M775.527,315.158c-2.214-2.135-3.32-5.859-3.32-11.172V280.08h-11.68v-5.586h11.68v-11.445l7.188-3.125
		v14.57h16.328v5.586h-16.328v23.906c0,3.203,0.611,5.456,1.836,6.758c1.197,1.276,3.333,1.914,6.406,1.914h8.086v5.742h-8.789
		C781.568,318.4,777.766,317.32,775.527,315.158z"/>
	<path fill="#FFFFFF" d="M823.613,319.377c-4.531,0-8.112-1.263-10.742-3.789c-1.25-1.197-2.227-2.61-2.93-4.238
		c-0.703-1.627-1.055-3.587-1.055-5.879c0-4.817,1.641-8.502,4.922-11.055c3.229-2.525,8.021-3.789,14.375-3.789h9.648v-1.133
		c0-1.666-0.222-3.15-0.664-4.453c-0.443-1.302-1.107-2.356-1.992-3.164c-0.859-0.781-1.992-1.367-3.398-1.758
		s-3.047-0.586-4.922-0.586c-2.475,0-4.961,0.352-7.461,1.055c-2.526,0.703-4.961,1.732-7.305,3.086v-7.188
		c1.094-0.416,2.305-0.833,3.633-1.25c1.328-0.416,2.669-0.768,4.023-1.055c2.369-0.494,4.752-0.742,7.148-0.742
		c1.849,0,3.528,0.137,5.039,0.41c1.51,0.273,2.916,0.684,4.219,1.23c1.197,0.521,2.337,1.179,3.418,1.973
		c1.08,0.795,1.998,1.713,2.754,2.754c0.547,0.756,0.989,1.55,1.328,2.383c0.338,0.834,0.599,1.654,0.781,2.461
		c0.416,1.901,0.625,4.779,0.625,8.633v8.945c0.052,1.511,0.091,2.839,0.117,3.984c0.025,1.146,0.104,2.214,0.234,3.203
		c0.13,1.094,0.279,2.123,0.449,3.086c0.169,0.964,0.318,1.693,0.449,2.188c0.182,0.808,0.391,1.569,0.625,2.285
		c0.234,0.717,0.377,1.14,0.43,1.27h-7.227c-0.131-0.312-0.293-0.774-0.488-1.387c-0.195-0.611-0.385-1.282-0.566-2.012
		c-0.131-0.572-0.254-1.152-0.371-1.738s-0.202-1.087-0.254-1.504c-0.756,1.303-1.726,2.461-2.91,3.477
		c-1.186,1.016-2.351,1.823-3.496,2.422c-1.25,0.651-2.572,1.126-3.965,1.426C826.692,319.227,825.201,319.377,823.613,319.377z
		 M825.097,313.361c3.932,0,7.031-1.38,9.297-4.141c2.291-2.812,3.438-6.602,3.438-11.367v-1.602h-9.102
		c-4.167,0-7.318,0.729-9.453,2.188c-1.12,0.756-1.934,1.687-2.441,2.793c-0.508,1.107-0.762,2.39-0.762,3.848
		c0,1.354,0.208,2.533,0.625,3.535c0.416,1.003,1.002,1.855,1.758,2.559c0.755,0.678,1.673,1.211,2.754,1.602
		C822.291,313.166,823.586,313.361,825.097,313.361z"/>
</g>
</svg>
