<?xml version="1.0" encoding="utf-8"?>
<svg version="1.1" xmlns="http://www.w3.org/2000/svg" xmlns:xlink="http://www.w3.org/1999/xlink" x="0px" y="0px"
   viewBox="0 0 1522.6 1366" xml:space="preserve">
<style type="text/css">
  .st0{fill:#858F96;}
  .st1{fill:#F4F4F5;}
  .st2{fill:#BBC1C8;}
  .st3{display:none;}
  .st4{display:inline;}
  .st5{fill:#868E95;}
  .st6{display:inline;fill:#669ED5;}
  .st7{fill:#BBC0C7;}
  .st8{display:inline;fill:#0F2F50;}
  .st9{fill:#CFE3F5;}
  .st10{fill:#669ED5;}
  .st11{fill:#CEE2F4;}
  .st12{fill:#91BFE2;}
</style>
<g id="logo_color">
  <g>
    <polygon class="st0" points="747.2,193.6 1126.8,17.7 1497.1,182.6 774.6,519.6 12.2,181.8 368.6,13.4     "/>
    <polygon class="st1" points="333.1,718.7 747.7,905.7 747.7,1121.6 332.4,1349.7    "/>
    <polygon class="st0" points="1177.3,715.5 747.7,905.7 747.7,1121.6 1177.7,1350.5    "/>
    <g>
      <polygon class="st1" points="1497.1,182.6 1497.1,1164.8 1177.7,1350.5 1177.7,718.7 774.6,917.8 774.6,519.6      "/>
    </g>
    <g>
      <polygon class="st2" points="12.2,181.8 12.2,1167 332.4,1349.7 332.8,718.4 774.6,918.9 774.6,519.6      "/>
    </g>
  </g>
</g>
<g id="logo_grey" class="st3">
  <g class="st4">
    <path class="st5" d="M2137.7,549.1c-6.6-11-24.7-21.4-45.5-21.4c-26.9,0-39.8,11.2-39.8,25.5c0,16.7,19.7,21.4,42.8,24.1
      c40,4.9,77.3,15.4,77.3,61.2c0,42.8-37.9,61.2-80.6,61.2c-39.2,0-69.4-12.1-83.7-47.2l30.2-15.6c8.5,21.1,30.7,30.4,54,30.4
      c22.8,0,44.2-8,44.2-28.8c0-18.1-18.9-25.5-44.4-28.3c-39.2-4.7-75.4-15.1-75.4-58.1c0-39.5,38.9-55.7,74.3-56
      c29.9,0,60.9,8.5,75.4,38.1L2137.7,549.1z"/>
    <g>
      <path class="st5" d="M2371.8,658.9c12.3-17.8,18.1-40.6,17.8-62.5c-0.8-49.4-31-98.2-98.5-98.2c-67.5,0-99,50.2-98.7,100.4
        c0.3,49.9,30.4,99.6,98.7,99.6c21.7,0,40-4.9,54.6-14.3l23.3,23l25.5-25.5L2371.8,658.9z M2345.4,633l-22.5-22.2l-25.5,25.5
        l22.3,22c-8.1,4-17.6,6.4-28.5,6.4c-41.7,0-62.5-33.7-63.1-65.3c-0.5-32.4,17.8-68.6,63.1-68.6s61.4,33.5,62.8,64.5
        C2354.5,608.1,2351.6,621.4,2345.4,633z"/>
    </g>
    <path class="st5" d="M2585.3,503.1v110c0,56.8-34.8,85.8-83.1,85.8c-46.1,0-85.3-28-85.3-85.8v-110h35.9v110
      c0,34.6,19.7,52.9,49.6,52.9c29.9,0,46.9-20,46.9-52.9v-110H2585.3z"/>
    <path class="st5" d="M2751,658.6h-100.4l-16.5,36.2H2595l86.1-192h39.5l86.1,192h-39.5L2751,658.6z M2700.8,543.1l-35.7,81.7h71.3
      L2700.8,543.1z"/>
    <path class="st5" d="M3004.2,694.8h-43.1l-56-64.2h-34.8v64.2h-36.2V502.5c30.4,0,60.9,0.3,91.3,0.3c45.3,0.3,69.1,30.4,69.1,63.6
      c0,26.3-12.1,52.9-48.5,60.3l58.1,65.6V694.8z M2870.4,536.5V598h55.1c23,0,32.9-15.4,32.9-30.7s-10.1-30.7-32.9-30.7H2870.4z"/>
    <path class="st5" d="M3175.2,694.8h-143.7c0-63.9,0-128.1,0-192h143.7v35.1h-107.8v44.2h104v33.7h-104v43.3h107.8V694.8z"/>
  </g>
  <g class="st4">
    <path class="st5" d="M968.3,502.2h13.5l77.2,113.7l77.2-113.7h13.5v192.3h-14.3v-167l-76.1,110.7h-1.1l-76.1-110.7v167h-13.7
      V502.2z"/>
    <path class="st5" d="M1279.8,500.5h13.7l89.5,193.6h-15.7l-24.4-53.8h-113.4l-24.4,53.8h-14.8L1279.8,500.5z M1337,627.4
      l-50.5-111.2l-50.8,111.2H1337z"/>
    <path class="st5" d="M1423.7,501.9h14.3v126.3l122.5-126.3h19.5l-84,84.9l87.6,107.4h-18.7l-79.1-97.2l-47.8,48.3v48.9h-14.3
      V501.9z"/>
    <path class="st5" d="M1620.1,501.9h136.8V515h-122.5v75.5h110.1v13.2h-110.1v77.2h123.9v13.2h-138.2V501.9z"/>
    <path class="st5" d="M1804.2,501.9h80.8c23.6,0,42.6,7.4,54.1,19c9.1,9.1,14.6,22,14.6,35.7v0.5c0,32.1-23.9,50.5-56.3,54.9
      l63.4,82.1h-18.1l-61.3-79.7h-62.9v79.7h-14.3V501.9z M1883.3,601.6c32.1,0,56-16.2,56-43.9v-0.5c0-25.8-20.3-42-55.2-42h-65.6
      v86.5H1883.3z"/>
  </g>
  <polygon class="st6" points="-395,2012.1 -395,2012.1 -395,2012.1 -471.4,2046 -562,2005.8 -562,2005.9 -562,2005.9 -562,2198.2
    -548.3,2198.2 -548.5,2024.5 -471.4,2059.4 -395,2024.9 -395,2198.2 -380.7,2198.2 -380.7,2018.4 -380.7,2005.9 -380.7,2005.8   "/>
  <g class="st4">
    <polygon class="st7" points="593.9,450.3 710.7,396.1 824.6,446.8 602.3,550.5 367.7,446.6 477.4,394.8    "/>
    <polygon class="st1" points="466.4,611.8 594,669.4 594,735.8 466.2,806    "/>
    <polygon class="st7" points="726.2,610.8 594,669.4 594,735.8 726.3,806.2    "/>
    <g>
      <polygon class="st1" points="824.6,446.8 824.6,749.1 726.3,806.2 726.3,611.8 602.3,673.1 602.3,550.5      "/>
    </g>
    <g>
      <polygon class="st5" points="367.7,446.6 367.7,749.8 466.2,806 466.3,611.7 602.3,673.4 602.3,550.5      "/>
    </g>
  </g>
</g>
<g id="logo_light_on_navy" class="st3">
  <rect x="-32.9" y="-351.6" class="st8" width="4136" height="2108"/>
  <g class="st4">
    <path class="st9" d="M2137.7,549.1c-6.6-11-24.7-21.4-45.5-21.4c-26.9,0-39.8,11.2-39.8,25.5c0,16.7,19.7,21.4,42.8,24.1
      c40,4.9,77.3,15.4,77.3,61.2c0,42.8-37.9,61.2-80.6,61.2c-39.2,0-69.4-12.1-83.7-47.2l30.2-15.6c8.5,21.1,30.7,30.4,54,30.4
      c22.8,0,44.2-8,44.2-28.8c0-18.1-18.9-25.5-44.4-28.3c-39.2-4.7-75.4-15.1-75.4-58.1c0-39.5,38.9-55.7,74.3-56
      c29.9,0,60.9,8.5,75.4,38.1L2137.7,549.1z"/>
    <g>
      <path class="st9" d="M2371.8,658.9c12.3-17.8,18.1-40.6,17.8-62.5c-0.8-49.4-31-98.2-98.5-98.2c-67.5,0-99,50.2-98.7,100.4
        c0.3,49.9,30.4,99.6,98.7,99.6c21.7,0,40-4.9,54.6-14.3l23.3,23l25.5-25.5L2371.8,658.9z M2345.4,633l-22.5-22.2l-25.5,25.5
        l22.3,22c-8.1,4-17.6,6.4-28.5,6.4c-41.7,0-62.5-33.7-63.1-65.3c-0.5-32.4,17.8-68.6,63.1-68.6s61.4,33.5,62.8,64.5
        C2354.5,608.1,2351.6,621.4,2345.4,633z"/>
    </g>
    <path class="st9" d="M2585.3,503.1v110c0,56.8-34.8,85.8-83.1,85.8c-46.1,0-85.3-28-85.3-85.8v-110h35.9v110
      c0,34.6,19.7,52.9,49.6,52.9c29.9,0,46.9-20,46.9-52.9v-110H2585.3z"/>
    <path class="st9" d="M2751,658.6h-100.4l-16.5,36.2H2595l86.1-192h39.5l86.1,192h-39.5L2751,658.6z M2700.8,543.1l-35.7,81.7h71.3
      L2700.8,543.1z"/>
    <path class="st9" d="M3004.2,694.8h-43.1l-56-64.2h-34.8v64.2h-36.2V502.5c30.4,0,60.9,0.3,91.3,0.3c45.3,0.3,69.1,30.4,69.1,63.6
      c0,26.3-12.1,52.9-48.5,60.3l58.1,65.6V694.8z M2870.4,536.5V598h55.1c23,0,32.9-15.4,32.9-30.7s-10.1-30.7-32.9-30.7H2870.4z"/>
    <path class="st9" d="M3175.2,694.8h-143.7c0-63.9,0-128.1,0-192h143.7v35.1h-107.8v44.2h104v33.7h-104v43.3h107.8V694.8z"/>
  </g>
  <g class="st4">
    <path class="st9" d="M968.3,502.2h13.5l77.2,113.7l77.2-113.7h13.5v192.3h-14.3v-167l-76.1,110.7h-1.1l-76.1-110.7v167h-13.7
      V502.2z"/>
    <path class="st9" d="M1279.8,500.5h13.7l89.5,193.6h-15.7l-24.4-53.8h-113.4l-24.4,53.8h-14.8L1279.8,500.5z M1337,627.4
      l-50.5-111.2l-50.8,111.2H1337z"/>
    <path class="st9" d="M1423.7,501.9h14.3v126.3l122.5-126.3h19.5l-84,84.9l87.6,107.4h-18.7l-79.1-97.2l-47.8,48.3v48.9h-14.3
      V501.9z"/>
    <path class="st9" d="M1620.1,501.9h136.8V515h-122.5v75.5h110.1v13.2h-110.1v77.2h123.9v13.2h-138.2V501.9z"/>
    <path class="st9" d="M1804.2,501.9h80.8c23.6,0,42.6,7.4,54.1,19c9.1,9.1,14.6,22,14.6,35.7v0.5c0,32.1-23.9,50.5-56.3,54.9
      l63.4,82.1h-18.1l-61.3-79.7h-62.9v79.7h-14.3V501.9z M1883.3,601.6c32.1,0,56-16.2,56-43.9v-0.5c0-25.8-20.3-42-55.2-42h-65.6
      v86.5H1883.3z"/>
  </g>
  <polygon class="st6" points="-395,2012.1 -395,2012.1 -395,2012.1 -471.4,2046 -562,2005.8 -562,2005.9 -562,2005.9 -562,2198.2
    -548.3,2198.2 -548.5,2024.5 -471.4,2059.4 -395,2024.9 -395,2198.2 -380.7,2198.2 -380.7,2018.4 -380.7,2005.9 -380.7,2005.8   "/>
  <g class="st4">
    <polygon class="st10" points="593.9,450.3 710.7,396.1 824.6,446.8 602.3,550.5 367.7,446.6 477.4,394.8     "/>
    <polygon class="st11" points="466.4,611.8 594,669.4 594,735.8 466.2,806     "/>
    <polygon class="st10" points="726.2,610.8 594,669.4 594,735.8 726.3,806.2     "/>
    <g>
      <polygon class="st11" points="824.6,446.8 824.6,749.1 726.3,806.2 726.3,611.8 602.3,673.1 602.3,550.5       "/>
    </g>
    <g>
      <polygon class="st12" points="367.7,446.6 367.7,749.8 466.2,806 466.3,611.7 602.3,673.4 602.3,550.5       "/>
    </g>
  </g>
</g>
</svg>